<mxfile host="app.diagrams.net" modified="2022-07-07T07:26:10.837Z" agent="5.0 (Windows NT 10.0; Win64; x64) AppleWebKit/537.36 (KHTML, like Gecko) Chrome/103.0.5060.66 Safari/537.36 Edg/103.0.1264.44" etag="U57e_fW3bgVlTX1Oyp_g" version="17.1.4" type="github">
  <diagram id="C5RBs43oDa-KdzZeNtuy" name="Page-1">
    <mxGraphModel dx="782" dy="478" grid="1" gridSize="10" guides="1" tooltips="1" connect="1" arrows="1" fold="1" page="1" pageScale="1" pageWidth="827" pageHeight="1169" math="0" shadow="0">
      <root>
        <mxCell id="WIyWlLk6GJQsqaUBKTNV-0" />
        <mxCell id="WIyWlLk6GJQsqaUBKTNV-1" parent="WIyWlLk6GJQsqaUBKTNV-0" />
        <mxCell id="fya4og5elzQJn8ioy4DR-16" value="" style="rounded=1;whiteSpace=wrap;html=1;" parent="WIyWlLk6GJQsqaUBKTNV-1" vertex="1">
          <mxGeometry x="490" y="90" width="250" height="120" as="geometry" />
        </mxCell>
        <mxCell id="PRaEHVmMno1cnMzCAUFc-0" value="" style="shape=image;verticalLabelPosition=bottom;labelBackgroundColor=default;verticalAlign=top;aspect=fixed;imageAspect=0;image=data:image/png,iVBORw0KGgoAAAANSUhEUgAAAggAAAEcCAYAAACiU0xzAAAAAXNSR0IArs4c6QAAIABJREFUeF7sXQd0FFUX/ma2ZNN7JXSkdxBBigULYAf0V0QEpVmwYAdELBQFUapgoRcRpAgICEoRUWkqUqW3JKQnu5vtM/+5EwIJm2Rndmd2N7DvnBzLvnffffe9mffNrQzP8zwCLSCBgAQCEghIICCBgAQCEiglASYAEALnISCBgAQCEghIICCBgASulUAAIATOREACAQkEJBCQQEACAQk4SSAAEAKHIiCBgAQCEghIICCBgAQCACFwBgISCEggIIGABAISCEjAtQQCGgTXMgr0CEggIIGABAISCEjghpNAACDccFseWHBAAgEJBCQQkEBAAq4lEAAIrmUU6BGQQEACAQkEJBCQwA0ngQBAuOG2PLDggAQCEghIICCBgARcSyAAEFzLKNAjIIGABAISCEggIIEbTgKKAQTebgOvz/c/garVgN3uX3wxABMZB4Zh/IuvADcBCQQkEJBAQAI3rAQUAwjmrStgmPmO3wk2dOD7MH79nt/xFTV5A9TV6/kdXwGGAhIISCAggYAEbkwJKAYQ9J+9Asuu9X4lVTaxOqInrUPO060AjvMv3hJSETNjq095ev1fEz49YfEpD4HJy5dAvVAWJ4y+P7OH7wpHo3BVYJsCEghI4AaQgCIAgbdakNO3OcD7/oVWeg+1HXog4tXPYfh6DMw/LfGv7VVrEDN3D1hdqM/4CgAEn4m+ykwcAAhVZqsCjAYk4LEEFAEI5h1rYJj2usfMyU0gYuQcaFt2hj3tFPJfvldu8h7T87WZIQAQPN7C655AACBc91scWGBAAlckoAhA8EfzAhMRg5jZO8GoNeCtZuQ83Rqw2/zqKKjqNkfU+BU+c1b0KUAQio7zUDEMWHLalLozroqWuyBIRc+JBOm8uMu8CCwEHEfL7EQAIEg9mIH+AQlUXQnIDhB4mxW5A9uDL9L7lVR0dz+BsMEfCDzxPI+C0X1gP7rXr3gkZmLm/wU2JMwnfPkKIFTXMegaq0bvGlq0iWQRpmHBelECJcDAwfMw2oBMC4d0M48DhQ4cz7cjzwGcNXP4z8ChyFEMIgQ0IRnFeHFRCk0VAAgKCTZANiABP5SA7ADBum8rCicM9rulRrw1C9q2Xa/w5ci8gLwX7vA/Pt9bCG3T9j7hy6sAgQdiNAzGNdFhSJ0gn6zXnUkLbBy+PmPF2jQbThgdApAo9rRxR+3hDge+HeMvAIFAvt1uh8PhEDRuKpYFq1KBZb0JLeXdC47jhPXQP2l9KpUKGo1G3kmqCDX7pYswrJwPRqNF2INPQhWfdMNr83iHHZYDu2HcuAq6lu0QcteDYDTKvjtlBwgF456F7a8dfncMYxceAKMLLsNXzrO3gC/M9Steg27vifDnJ/jkYfAmQIjXACfujUCEpuq+0OngcDyPj46aMOGoBWbBTHF9AwV/AQhWqxVDhw7Ftq1bkZiYiLZt2+LWjh3RunVr1KtXTwAKVSGvCAEBWsvJkyfx559/Yu+ePcI/8/Ly8Oijj2L8hAlVYh2yvkR5Hhcfvx1cTpZAVtuoGeI/mQM22HcO3LKuz01i5n07kfX24GLtJYDooa8jrNcARe8K2QFC7nO3gctOc1MEygzT9Xgaof1HOj1o+W89Avupg8pM6i5VhkHMnL1gwyLcpeD2OG8BhCQtcLpbJIJUzHWhpaeXPGkRsswcPjtpwcTj1pJn2O298NeB/gIQ6EK9q+tVjWCJvLRaLZJTUvBknz64/4EHkJSU5JcXLJ2Zs2fP4ocffsD3K1YgIyNDAAqlG/G+eMkS1KlTx1+PgyJ8WQ7vQ+ZLT12lrdEgcdJcaJu0VmS+qkCUtAf5U9+HYf33V9hlNGpUW/UHGF2IYkuQFSDYjv2FglGPKcasu4TDX5+BoFvucRpuO3EABe/0cpesYuMi3v4S2jbeN394AyDEqRmc6R6BUPX1acAX/FtsPLZn2/HS3yacM3OKInzFDmEFhP0BIJCMV61ahdeGD69w+aQ9iI2Nxf3334++Tz0lXLL+olE4cuQI5s+fjy2bNyM3N1cwJ5TXyMQwYcIE9H70UW9vs8/m43kOmcP+B+vRQ2V4CH+kD6JeGOUzvnw9saMgD5eGPgJHVmYZVhKnLIS2SRvF2JMVIBR89Axs//yqGLNuEWZZxM7/q3yUxTmQTdEM5iK3SCs1SNe9H8KeeVcp8hXSVRogUHqd328LQ9told+8rJUUso3jsSbdhvcOm3DY4CrMQklO5KPtDwCB7PTPPfccNv/0k6iFJScn4+FHHkH//v2RkJAgaowSnUhL8MXMmfhxwwZkZxWrz101MjN8MnGiq27Xze+cqQhpj3YGbzaVWZO6ei0kf7ka0Givm7VKWYhp1xZkj37JaUj4w48j6sXRUkhJ6isrQMh5ph14fZ4kBpTuTI6J5KBYUSv85HlY92xWmg1J9JnQiOKQzKCyPhOSiLjRWWmA0D1ejfWdwq4Ls4IU8VJ0xNwzFkz4z4qTRf6VPEzKOqivPwAEo9GI1q1aOankK1sLaQ/q3XQTXnjhBTz00ENOXQ0GA9LT0wW1P13e2dnZSEtLQ35+vvBnMpkEB0L62idaarUaoaGhiImJEf5SUlIQExuL1GrVkFq9uuAXQX2omc1mrFq5EjNnzsSFCxckibx+gwZYt27dDeOsaNm3E5lvD6FQs7JyUqmQ/M0aqFNvLHNLiRByJ42AceNqp7Ojik9E0tc/gA0Nl3SuxHaWDSA4Ms4i76W7nTdWLCcK9Yv8YCk0jdpWSN20bSWMM95SaHb3yZYkdXKfgvSRSgIEhgf+7RqOJpE3bpreIjuHDw+bMfmUFdYqqlDwB4Bw7tw53Nali/QDDgiX9h133IE333pLAAHkFLhnzx4cPXpUAAH0R9ER7rbg4GAEBQUhIiIC7dq1Q/MWLbB161bs2L5dABhSW2JSElavXi34UlzvjeccyP3gZRTt/KXcpYY9+D9EDxt9XZnsxOwpb7cjve9dcGSXNS8IY9VqJIyfhaBWt4ohJbmPPACB51E45VVYf/Ov2guU5Cbmq11gI+MqFQwlTfK3vA1Bdz+B8Mt5GyTvqpsDlAQI9UMZHL4rAirKgnSDtxMGB+7fZcQxA/knVC1h+ANA+Pfff/HgAw94JDgCCiUaAY8IKTw4MjIS3y1fjvr16ys8k+/JO/JzcGnwI3DkZpfLjCo2Dsnfbr8hzJOlBWDevQ1ZI56vcIMinngWEc8MV0QusgAE3kKZCVsBDveRtxLHU1WjPqI/dQ1aCj97GdZdPyrBgts0megExMzaAYb13he3kgChV6IaK271TQIotzdBwYFkdnjzXxOmnrTAzled0Eh/AAg7duzA0/36Kbg7/kOaojIWLlokaCOu92bevwtZbw6seJkqFVKWbYMqKvZ6F0WZ9eWMfQ1FWzdUuGZN3QZI/HwRGAXCQGUBCFxeFnIHK6Pi8OQkRH++Capqrm1Wpo0LYfymOMuiP7UILydNUhIgDKiuwZy2N3Yc87Vni8ysR/V2tN9mQKF07bNPjqo/AATy/h80aJBP1u/tSSmfw9x589DFTZOKt/l1ez6eRx6F8f3wXaVatcj/9UfEwDduHDOD3Yb0fvfCnplRoWiZkBDEfzQTQc3lB5GyAITCKa/BuvMHt8+GIgM1WsTMoeqIrmNEObMRuc+2B6xmRVhxl2hQ18cQPnSsu8Mlj1MSILxYW4tpLV3vhWSmr4MBWRYO9+8yYHee/5sc/AEg/PLLL3j2mWeug513vQQyhcxfsAC33up/H2CuuRffw5Gbhczh/WC/cLbSQWxUNJIX/ww2SCeeeBXuaT2wG5dIq+LCLyai7xBE9n9Z9pV6DBCotHMuRS9Y/CtUUJV6E6Imrxdtlyn4sD9sB36TXcCeEGQTqyNmevkOO57QrWiskgBhWG0tpgYAQoXbprfzeO2ACV+dsfq1X4I/AIR9e/eid+/eSjwCfkczLCwMS5cuRdNmzfyONzkZMu/5FVkjnwM4F1E+LIvkBRuhTkqVc3q/pZU74U0Yt6xzyZ+2YVPET5on6oPYJbFSHTwGCPYzR5H/hmcOQ1IYFts3fPg0BHXoJrY7zDvXwTDlVdH9vdKRYRA18Qeoazb0ynQBgOAVMVc4iZ3jMe6YGe8dsfgtSPAHgFBRFkXf7p4ys8fFxwtJoVJTr+MLkeOQP2sC9CsXiRJiZL/nENFvmKi+Vb1T+lN3w55+0eUy2NAwxE/4CtpGLVz2ldLBY4BQ9P1MFH37mZQ5le+rC0Xc/P2AhMItjpwM5D1/m2sEqzz3ZWbQ3toDEa9O8cqsAYDgFTFXOgn5JUw9acYrB8x+CRL8ASAUFhaiVcuWQlGj673Vrl0b69evR3DI9Wuec+RlI/vtgbCe/E/Udmpq1UXCtG+v+9oM1kP7cOmNZ4FrUnBXJKTIp19AxFMviJKh2E4eAQRKGpL7LCVHyhc7n1f6qWo1QvRE6T4RBWP6wnboT6/wKHYSNqE6YmZ4x8wQAAhid0X5fisuWPHE3iLY/Sxfgj8ABMpTMKB/f+zcuVP5jfDxDJQqetr06T7mQtnpLf/sRuZbru3sJVwwWi0Spy6Bpl5jZRnzIXWetCqfj4bhx5WiuQhq0kIwM8hZ4dEjgGA9+CcK3+8regHe6hj2/ATo7pBeY8Hy+wboJzuns/QW3+XOw7CImbcPbIjyIYIBgODTnXaafMl5C/rvM8HmRyDBHwACfZisWb0ar77qZyZBBY5PjRo1sGjxYlSvXl0B6r4nSRdh4ZzJKPx2jiRmoga+grD/DRLtYyaJuB90ptQBGYMfhv3iOdHcsOERAnBSV3cduSeWqEcAwfTTYhi/GiN2Lu/002gRO28fGK10L1fHpXPIe9G5Qpx3GK94FqEE9AsfK85GACAoLmLJE8w/WwwS/CWhkj8ABNIgPP3009j1m385FUveXJEDyP9g85YtQoZGfyk4JZJ1l914kxGZbwyA9ai0qrpBLW9G3Iczr1szg/XoP8h89SnwNgm5hXggetg7CHu4VCVMlztQeQf3AQLHIWdQB/CFuR6yIO9wdcO2iPpwqVtEhUp8VAL6dNlKYm4Rk3EQExknZIRU+uUQAAgybppMpOhMvnPIhI+Ply0FLBN5yWR8DRBIHp9Nnoxp06ZJ5r0qD7jzzjsx+8svr9R3qMprKc277eQRZLzwP5dhfNeulw0NRcLkBdDUbXS9iOLKOgStyqLpKFxQcQ2hchfNA9r6DZE483vZ8kS4DRDs508gf3h3v9uckMdfRUivitNSumLY8scG6D/1MzMDgJi5e8GGRbpi36PfAwDBI/EpNpiyLg7eX4Q5Z20+1yT4GiBQBcehQ4feEA6K1x6oGTNmoMd99yl2znxBuOCbSShcKs28UMJn9IsjEfbwk75gW9E5uSIDsoY/BeuJY5LnYYJDUG3ZNjAymaTdBgjGZVNgWuF/zjMxX/0B1oNUnI78bOQN6iB5Y5Qe4CnwEcNfACCIkZJv+pgdPHr8ZsDWHN+mXPQlQMjNzcX/HnsMJ06c8M0m+HhWKgBFpgZflqyWWwQZQ3vCduKoW2SDO3RB7KjPwVxnSZOsJw7h0tBH3ZIJDYodMR4hdzpXLHWHoHsAgdJivvUIHH6mite06ITIUXPdkcNV9Y7DjtyBHcAb/CsygwpPxS45BEat8Wh9lQ0OAATFRCsL4bNFDrTcoke+DzGCLwHC5E8/xfTp04WSyzdqGzxkCN55553rYvn2SxeQ3q874EaVSxIAGxFZ7JSXWvu6kIewCJ6DfuV85H8x0e01qZNSkLRgkyx1fNwCCI6si8h7/na3F6DUwODHXkLoo54n0DBvXgrDl6OVYtNtutHTf4EqUTlv5gBAcHtrvDZwV7YdHXfoZbMxSmXcVwAhMzMTvXv1wvnz56WyfF31Dw0NxYaNG6+LqIb8WeOhX7HQo/2JeXkUQh/o4xENfxpM5oXsN/rDcuyw+2wxLFJW7IAqMsZ9GpdHugUQDPPGwrx+nseTy00gZvavYGM8r5tO9bdz+jbzu+qUYS9MgO526eGbYuUcAAhiJeW7fvTtPOwvI2ac9o0/gq8AwuzZs/HJxx/fkL4H1562ESNHVv1iVTyP9Gd6wH6+8toLrp604Fs6Ifb9GYpqVl3xIOfv1lNHcWlIL8BDLVnsyI8RcofnGY7dAgj57/SC/cQBOeXiMS2q2hg9eYOk7IkVTUoqzLyhXcDlVlxBy2OG3SDAhEYg5ps/wajUbox2PSQAEFzLyB96WBw8qm0oQA4FNjDe5cgXAIGex169euGv/fu9u1g/na1x48b4Ye1aqFTeKwUvtygcOZlClULeYvGINJkZkr5ZC1V0nEd0/GIwz8OwZhHypo/3mJ2gmxogfvpyj+8KyQCBK9Ijd8DNAOdDQ2g54gvtPxLB9/X3WLBEgF5I5rXfwLhQ+dwDUhmOnroZquRaUoeJ6h8ACKLE5BedThocaLBZD28/hb4ACEePHsXj//sfCgoK/EL2vmYiMjISS7/9Fo0aVdEQP55H4cJpKFg42+MvZdqL6NfGIKz7Y77eFs/ndziQOfxJWA7J8PGtDULyvB+hTkj2iC/JAMH43VSYlvtfDHL055tAWgS5GmWyynmqheA04k8tdMC7CO7RTxGWAgBBEbEqRvSeX/XYnO1diOALgLBkyRKMfvddONx0ZlNsA3xFmGEwbtw4PPHEE77iwKN5eYcDl4Y+AttpeaJRdDffivjxX3vEkz8MtqedRXr/+2SrBxQ3aiKCb/csLFYyQMh7tQccF477gzyv8MDoQhC78B/Zecp7/QE4zroXgiM7M5cJqm9qgaixyxVxUgsABKV2TRm6WRYODX4qRJ6EZGuecuJtgCAkinr7bSxbtsxT1q+r8U/3748xY/wsi61ICXMFeUjr0xX0ESZHYyOikEKx/xqtHOR8RkP/PUUvyKe11rXriPiPZntkdpcEEDhzEXKfvQWwyrOxcu1E2IufQHfbI3KRu0LH8NUYmH9aLDtdTwkqZWYIAARPd8b741/4uwgzT1m95ovgbYBAFRv7PfUUfvMwrTIBDa1ajeAgDdTqYts9c9mBgwcvmBXtdg4OnoPN7hD+qLkKqSzJbsoyDIK0GqhYRvANUDGMAOLZ4okEOhwPWG12FFksnvqgoXPnzliw0LMIAO+fVkGg0H/3FfK/niKLeaFkDXHvTUZw524+WZJck2a9/jTMf++RixxU0TFImLIY6pSabtOUBBBMGxbAOOdDtydTamDUpHVQ12wgO3muIBe5gzvIpvKRi8HQZ0cjuJt8+bZL+AoABLl2yHt0MswcGm/2nhbBFwChU6dOSE9LkyxUupRDdFrUSopDszrVUT0hFkkxkQgP1YFlWeEStzs4cDwPm90Oo8kCi82GQqMJBpMFdodDuNAdHA+bwyGYOBwcoFIxAthQsSw0KhZajVr4iwoPgU6jQViI7jJYYKFRq8AyrECfQEee3ohzl7Jx4mImDp66gKx8vTC/1Eb+B+vWrxfWUZUaZzEh6/X+sB75V1a2g5q3QcLkKgiYLkvBnnEeGQPuB2+zyScXhkHMGx8h9B73P55FAwTKD62f/iY0jdp67BkpnwQInTMI6vKQYjyZd6wB7DJumoeL5x12OC6dR1jfNzyk5Dw8ABBkF6lXCA7/pwifnfSOFsHbAMFms6FtmzYoLCyUJEv6oq9fPQm9b78ZLevXRkREGIKDddCo1WBVLOh3upd5ngPH8UL4pMPBwcE5YLPZYSdg4ODAo/j/cw6HoAGgQaQ1IBoEEOiCZklroCaQoCnWHhD9K7+xV2qo0BwEOmhNBoMRaZdysGn3Afy0518UGEySaq3UqVMHP23eXOUiGewXzyBj0MPgrfLWFmHCI1Bt+a9VNtxR/+2XyP/6c0lnXEznkNvvRczbE8Go3Yt8Ew0QBPNC/7ZQN2yFiFengo2MFcNfoI+MEuAMBdB/+iJsh3YjeuZWqOJSZKQOBACCrOL0GjFvRjR4GyAUFRWh/S23QK/Xi5YnXeB3tW2CwQ/eidRqSaDkQnSJ+1sjoJCTm4/f/z6Mz77biJwCg2iQULNWLWzcuBE6nfSqtb6SA2l0jOuWIm/KR/KzoGIRN3oygjveIz9tpSnyPLLe6C+reaGEZVViMhImzoU6pYZbqxANEOxnjyH/9fuLJ2EYRI5dDnW95qIPtFvcBQYJEqAHi0pR57/aA7AXI+/QwR8i+O7HZZVQACDIKk6vEaMP2/57jFhwQXlNl78DBHpWerRvgZcfvw8pKYl+r4Infk0mM37f9y/e/OJbmK02Ue/UmjVrChkVg4ODvXbOPJ2IzAs5H70G8+/bPCVV7vigFjcj/pM5YKpYfgh7xjlceu4xcHppWjKxQox991OE3OZeYUXRAKHgowGw/bPzKk8si6DbeiL8uXGKeNSLXfz13o/nHDDMGgHLtlVlnHqCOj+E8Jcmybr8AECQVZxeJfZLphVddxYp7qzobYBgNpvR7uabRWsQbmlUB+8NehTVU1PKv2gZFqroZOGd5chL91o+FzY8HkxQMBz6bMBiLJPhikCCxWLBjj//wltffCf4O7hqtWrXxqZNm6DVVh3PffvFs7g0tCc4k8nV8tz6XUiatHAzVKFhbo331SDDygXImz3R7ZoUrvgO7fYIYoZ/6FY0gyiAwFvNyOnXGnA4f6GwKXUQPX4FmJBwV3wGfpcoAUdWGgonDILj3H9OI9mEVMTM2CqRYuXdAwBBVnF6lZjexqH2pkLkKKxE8DZAIMfA1q1aifJBSI6NxKRhfdG8cf1ywYE6uR40iXXBqIoLnhH4tmedhe3iUcXynbDhcdDWbAY2KEQAJTz5OxhzYTm1H7BdzSIoJGczWzBl8Wos2rTL5dmpij4IRVt+QM6Et12uze0ODIv4cTOgu/k2t0n4YmD2O4Ng2vObYlOrq9dCwqR5UMUmSJ5DFEBwZF5A3gt3VExcq0Non9eg69EPDFO1vGolS8xLA0xbvoNxwTjARF8b5TS1FrHz94HRymeDDAAEL22uQtOMOFiE8cfldf66llVvAwRy7Ot4663IyKg87TldsMMf74F+D90Fjca54qk6qR601RqCYdkyoYvkmWDNOAnbhSMEGWTcGR5MWCyC67YVntGScMmSsEiHIRfm43sAe9lUw2npl/DMh1/gQlZupbzcdNNN2Lhpk9+bUEoWwVstyJ00EkW//CijjJ1Jhd59P6JfG+e2U56izJVDnMvLQsaQnnDk5ig3NcsifuxM6G7uInkOUQDBfuYI8t940CXxoC4PI7T/CLDh0S77BjqULwGq5mWcPQqWXetdiij8jZkIane3y35iOwQAglhJ+We//Xl2tNlmUJQ5XwCER3v3xn4XdRhqJcdh5ltDUD0lwUl7wIREQVf/FrCaINjNZpzbtR35Z08jPCUV1Tt0RlBYmHBZc4WZ8smOVSGofnswughcOvgPMg/+A01ICGrffjeCY2IFHq3pJ2C7ULZqHwGir7/fgKnLNlZquqV6DBTmWAI45GNcGUr2zDRkDHkEvARnU3c4UZNT3ozvoIqqAk70PI+izauR8+l7ihcGDL33IcS8Lt0dQBRAMP28HMZZI0TtFxuXItjGNY1uFtU/0OmyBCgW+8QBFH46DHxOuiixBHV9DOFDx4rqK6ZTACCIkZL/9jHaOUSuKYBDQY99bwME+vIeMmQINv/0U6WCf7pHF7z61MNQlxPOpanVAtr4mrBbLPhr/pe48Puv4Ox24as+qXlrtB0yDGrODMsJSlIjgxaB58FGJyOodmsc/2k9Dq9YCs5WrNnRhIXhjvcmIDwpBZylCOZjv4MXfBKuttPn0/D0mGnILaxAewigbdu2WL5ihf8exms4K/plLXLGvaU8vwwQP/5L6Np2Un4uD2eg1AG5H7yEop2/eEjJ9XB1SioSZ60CGxLqunOpHqIAQv57T8J+eLckwiF9Xkfw/f3BaIIkjbsRO/N2G8xblsE45wNJ2cU0LTohctRc2UQWAAiyidInhISqh38asSrNrpizoi8AAtVhWLRoUaUynfHWQHRp08z5i1qlQXDjLmB1oTizcxushQVgNRr8Pf+rK32bPPok6ne/H6bD2+XJEsvzCLqpHQrzi7B39lTU7HQbLu75E3mnilPUxzVqhk5vjgKrUsNy+h84cs6VWZvFYsVzY2di95FTFa65e/fumPnFFz45Z5In5TjkTHgDRb9skDzUnQHhPZ9E5NC3wbD+Xe3SUZiHjH7dwBnEh/C6Iw9hDMsiYfJ8BDVtI4mEKICQM7A9+ALpNhJ1zYaI/GBJwIGxki3h9PkoGNMXjnPHJG0cdVZVr4/oya5NEWIJBwCCWEn5b7+tmTbcudOgWGSRLwDCwoUL8f6YMUIyo/Ia+RGsnvw26lZ3zgvChkZDV789oFJj1+RxaDPwBUFzsO6FAVfs95E1a6Hzm++Bu3QUXP4lzzeXYRHc9HYcXLUS2f8dRuc3R+P4hrU4sqq4ngSr1eKO0RMQVbMWrJlnYTvzd5n9onV+9OUyfPfz7xXyUpVqMZDZNP3Ju8BJTHbl7kaoU1OR8PkS/y4BTeGtv/+C7DEvQ0jP6YUWcmc3xI6cLGkmlwCBMvfl9GsJWN2s260NQuT7S6Gp10wSYzdCZ+uB31A4YTBwWf0odc1MVBxiv6r4JSKV3vUAEE4YHPjgkAnnzDKoiqUK0EX/DjEqvNVQhyiNco68GWYHUjYUgr9cZ0DmJcDbAIH4/33XLgwcOBCUNKm8FqoLwqpP30ZKgrPdmVT9urptYcrNwc/vvgFtWDhUQVrknz55RYNAF3bXDydBa8+H41LFX+3iZMkDrBrBTe/Ezs8+RtbhfxGakCTMX2JmIIDS7vlXUePWLrAXZsF89Lcyzt30+7Sl6/Dlqs0VTjlq1Cg8O3CgOJZ83Mu8Yy2yP3rTe1wwDGJHToK2cWvvzSlxJrpXC7/5BEXbKt5jiSRddlcnJiFpobTIN5cAgZJb5Apljz174WpadkFY+lrHAAAgAElEQVTkiK8V+7JxKR0/66Cf8RYsO1Z7VuchKARxi+SrYlmVAQK9VFen2fDobiMcPBXK8bMNJ3Z4IFwFHL83Aok6ZUCC2cEjbGU+HGplBOALgGAwGHBX1664dKn8r3uqg7BuykikxDsDBFVMKnR1W6Pgwjls/2gUbEZnJ076Yr973GcIVlthp5BHKrTkbqP3pFoDbYMu2PHx+wIQubbRWW3W52k06PEwHIY8mA7vcDKNTFmyFl9VABDIz2LK1Kno0aOHu1x6dZzj55fB/7QRqNilQnZ+DHks9Fn0jHmwl7JzdZUgq+KRUMfu0VGTxB6JoToL1cD1YGLqiB7qEiA4cjOQN6SzaIKVdVTVbIjwYRNBpocbtXG5l1DwwdNwXHR+cUiWiUqDuG/LekFLplFqQFUGCFYHj9A1BbD75/ugzLb0SFBhfUdl8oZQ4Z+6Gwpwxk2Fn6vz4wuAQDz1ffLJCis60pavm/ouaibHO7HPRiVDV68tDJfSsfX9d2Arx95LoY9dx34KHaeHPeOk5wBBpYGuye34deJY5PxH4ZNlGwGENs8+j9p33A17YTbMR3c6hYd/PG8lFq4vP+NgVFSU4KBYr149V9vl+99tZjhW3Qnk5QCUzkXhPB0lC7aZgazTLEAfC/7WqLJoKI+4Wp59dEtaFmHnWvT3IFRdPhF9xl0CBPupg8h/y/1qUE6L0AQhtN/bCL73SdFMShKEn3Ymj1XTxoUoWjSxTIIUj9hlWcQtk+67UNGcVRkgFNl5hK0pAK/Mh7lH23Tt4M7RLHbcHiErzRJidPkM+9uEGaeVKd7kK4Awc+ZMfDppUrl+CPSaXfHJm2hUO9UZIITGQNegvVBo6edRw6G/eMGpT0h8Am4b+RHY3NNw5IuLIKp08xgWuqa3469F83F2+89OXSkVcJcRHyKufkPYss7CerqsDwINGDljEdZsK98xvHadOkIdhqqQRZE/tQHcrleLNdCU2oEsOF64F2m67DMMbCZ/fCHwiEjiEBajyCvAmSgllqwLgOIFNJFge+8EoxKXgdMlQLAe2IXCD5+WfSXatl0ROuRDqKKcUb/sk/mYIJefDeP8sbDsXCczJwziljtnWXR3kqoMEOhifPh3I37IsPk38OR4zG8bgn41lYvu2ZBhRY9dyqRddgUQhJLIDgfsdjsoTXJWZiZy8/KQl5cnVDF02O0gk4GxqEioREjfd6TiF34TyilzIDBNrbhqogpqlQomkwnzFyyA0VB+nofJwwfgng6tnI++OgjBjTsLmQwPfb8UR1Yvd1I6177jXrR8asDlKAYZ0gBTFEODDsg6fQ6/T/kEvN1ehq/QxCTc+cFEaIJDYD17EPas02V+p2qSz42fhT/+Lf/Zbt++PW6//XZBxlRGmipNliRiIp11cUVJlRDySX/0G8k4WKdDaFiYkEiK/iIjIhAdHY3EpCSh6FNJf6pEKVd+BW7ri+AvbC7W9NO2XgQgAwYT844rzAIMWf4XycCwPBJv4uCVIAvKGUaKJgIJgjJFBfb+tWCiCDG4bi4BgmXvL9B/PMQ1JTd6MGGRiHjna6hvaiHbgXSDDcWG0INpP7oP+skvgcvPUmSeuOXFoVNytKoMEErW3/sPA7blOGAVavP6V4tQMxhcS4vRjZQtsJNh4pC8UZnCL+UBBLrcjx07hoz0dKFmQlZWlgAKIiMjUaNGDUEVTsWFgoKCPHrOhwwejJ8qyIcw6JF7MOyJ+4Qyztc2bZ3WUMdUgzk/D9vHjYYh/eIVPoJj4tDxjVEICdfBeny3bCmXVTHVoE5tgv1zZuHcrh3Cu5neByqNBu1ffgvJLduAs5ph/u938KayYW4FBiP6jPgMZ9OdEzfR5T133jx06SI9K16JXIgPq9WKtIsX8d/x4zh79ixysrNBpov4+HiER0QgJSVF2DePikHZrXCs7gqYS62DykwQ7vFCZJ/VDGSf8j+AoAnmEF/bC+8nOnRkVogr64rB1HoUbMcPRX1IuQYIu7dAP/E5Rd+0IY+9guCHB4HRiFN7KMqMTMR5uxVF338B04rpMlEsn0wAIDjLhezwXnj8JO+r4DLliQOcyBmNdh5R6wpgV0AI5QEE0hT8888/aNmypQACpLSSL1/SHtBXbskf/X8CHoWFhTAajcK/79ixA1OnTBH+/drWqmEdzHxnCMJDnMEXEx4n+CGwai2KcrKx75uZ0KddRFhiEpo+3g/RNWsJtRGE4k2VNKGOAucQtBou91GlRlD9DnBALSRKomyKlEmxfo+HUb19RwEs2CjE8dwBpxlPp13CI8MnwF5O0aaQkBB8MWsWoiIjodZohFLW4eHh0JHcGUbgi7QHBCQEDY0b543ke+TIEQHcEWhwt/FnthSbF7hr0n+TQoWWXVax4u40lY67dJKBw+JHZgaeR0Syl8wLiQBqliOe4GSw9/8AJsi1mdM1QNi/DfrxgxTZvNJEmfBoRM/4BYwu1K1DrTiDEibgbBYUvPEwHBdPSBjlXtcAQHBPbtf3KB4hawpgUiC82pWJoSK5XlGBU+0DqxWZmZmCxuH8hQuCqpxMCGR6IFu12WIRzAyRUVFITEwULsCSi/DjCROwfft2p2noHlw8djia1atZ7vtDU60xNMl1nJwBhYs661zxRV1JpBb1O7XvIC6dPIOmXTsiIs61AZmNiEdQ3TYCMCndBJW/SQ/z8T8Ba1mTBv32zerN+HxJ+ebI1157DV27dhVAk8FoFEwul8iMk5srgALySyBQQEAiLLT4XVotNRXJSUlISk4uA+DcAQ9Snhtu+6vgz1dQe4EiGsi/WgEQW5pHQy5QmOFHWgSGR3IDDoqXLCKc3ISSbpS3YyyYbsvBxjV1uZ0uAYL10J8oHNPXJSFZOuhCEDZwDHS3yegUKQtjIomQ6u7oXhR+9Iw8GdlcTcswiPsu4IPgSkw34u8x6/KRp4DHuBSAQNoAUl+fOHECF86fF75o6T4gW3dSUhLi4uIE00OJzbzEbk4XHbXyLrCjR47gwQcfdNIi0MX6yB3tMWbo44LPgjOCYKGhao7JN13JsEcgRPiKTztabqXa0jSKCvTY9e1a2C1WhMZEoXPfh0UdKzYqCdoaTaGiao7UyOxoyBUcE69NsUw/kyblsbcn4dgZMtaXbeQnsOv33wW/gfIayUAwa9rtxf4cl/8uXLggALJLGRkC+CL5kt9CQmIi6tatK5gSSPayNocFjjXdgKK0ismSwua8rLM6EaNohsyTpElRdh6x1LWhHOJqKoyKaCubk0NiBVzxANNoENg2w+EKqbgECPZz/yH/tfvErl+WftrODyJi2CRRNhJZJpSBCG+zQj95GKx7lc+rfYVdVoW4ZUdl4L6YxPXgg7Az24YvTllB+QDkbioG6FtDiwdTyjeFrUmzYsl5K+wVfLnHBzEY0VCHGiEyv4zLWWjqhgJcVCBZVGUAgTQD+/ftw9Fjx4RLKCQ4GPEJCUhOThYuNbrg6K+8aoti94ouwCWLF4MSBV3bgjRqTH97MDo0ryiMmgGjCwMbGiWknuWMBeBNhQDncPmu4ewOHPl1NzJPn0eT29sjoU4NsSwDGh1UYdFgNDpwZgM4Qx7Ala9f37H/EIZ9/CUc5fjQUO6DBx54wCMNa4nzKJmFCgoKhCqZ6enpggbHbrOhTt26Qp0H0th40ri0P8FvG+hsXihNlB7RMwDIRUGhC5z8XbNPM7D7gZmBFFSRyQ5loxcIWzco7ZRYwS5GNwV71xwwQZGVbrNLgMDp85D7TDtPzopbY9mkmoh45TOo6/p/Bkb76cPQT30NjgvKmxTKCFOjRdySQ27Jt7xBVRkg0MO35LwF/fcVwa5goiR6j41pGOTkaDj6kAnj/rOAfLAqbDwQp2XwV9cwpAYrCxLqbirEqSL5bQzlAQQCBmvXrhXe8dVr1ED16tURFhYmAASy18vd6HIbPXo0ln/3nRPpWikJWPjhK4iOILftClqJKUHiZ6XD7oDdaoU2WCf9ki5tvqhgXtK4dB/2AS5mOpd6JrPC9BkzBIAld6N5zSYT9AaDABbOnjkjaBp69epVbvErl/NzDnB/fgT+5BKXXYW8CORnrVARUhK7IQfQZ8p/Dl0v7poeDI/4OhwUK09EDyBF+iaJAFxMENh7FoGJJ1VDxc0lQKA63jmUSZFQtrebWo3Qfu9Ad/cTYNQV6Uu8zdTV+Xieg3n9AhiXTnI/FbUn7IeEI27+fk8olBlblQGCjeMRsto7iZIi1EDe/VEoXTQxcV0+MkWq9LvHq/BjJ2USJZVsaL2fCnHS6B2AQF/1FovF4ygFKQeZvn5ffeUVbN3qnDq2ab0amD3iOUSGe/YVTPzQ5Xnp5DnE1UiBJuiq5kifky9Uh4xOIU8wzxs5JL7x+Txs/sM5M2r9Bg2wdOlSQQujtN8AraQkykGqw2mJFHibEdya+wCziHhG0iJQBm2lkijxxdbe7NO+BwhkXoipzpPySplWkgxJzFLJzNBiONjmlUcougQIZDOjWgy8ufw86MqstCxV3YMDEfaUF0qFSlyMcdEnMK35SuIo+bqz8dUQM7P8bGvuzFKVAYKQKOmHAq8kTtMwgOHBSGhLIYTIH/JRKBJDK5ko6QpA2FSIk17SILhz1uQYQ7UZXnzhBcFp8dpCTpRVcdpbg1E7JcGjS5Uuy3827UBUUjxqNG8o0CJNwr41m1GrVWMk1i3PTVz86gRwZbNh2tL1mL/2F8FHozQIIB+Br7/5BrVqUbxa1Wh8xj5wW/qIZ5YWrWASJfq2zTzJgLMrdTOLW2p4ggNhsS6tWeKIle5F8iMsTKYFKd/R8beAvWMmGG3F2jbXAIH27vnbwWU5O81IX4l7IyInrIKmrmuPS/eouz/KvG0lDDN8B1zU9Zojavz37i/gmpFVGSDQi/b2HQbsyKFSxwoZNIs/r3BbnBrbupTVANy2vRA7clzbslmex9etgzGglvyq4tLbWe8GAAgl6/3ggw/w7dKlgh29dNOoVXi7fy90u7U1wkODwZZW+Uh4akx6Iw5s2gGVRo3wuGikHTmJ5IZ10eDW1qA0ze42AjXp2XmYMPd7bN17sAwZ8uFo0aIFpk6bhtRU5wyR7s6p+DgyL/w9DfxhiaWo6ZKjJJcilA5S10BmBkqaZMz2YW0GhlIrc9AqkQJFDaD+Zb8DScJRg+3+HZhYCncov4kCCPrpb8KyfZWkqeXsHPPV72CjKNuDfzVyTMx55mbAR9oV7c13IeJNiQ9iJSKsygChZFk9duixNdchJG2TuxHsaBnO4ufbwhCqLnsxWBw87tyhx74CR4WVFNXgMbKBDiMUTpRE6/amiUFuObtDb9u2bfjg/fdx5syZq1kFLxOKiwrHsMfvR+dWjRATGQ6Vm5kC9dm5ILAQk5oMtYbeytJbSVbDvEIjfvxtH2Ys+xFGc9nCGaTaf+yxx/DOiBGeJSqSzp7HI3hrIbi1jwAm55TWLokrmETJUgTknPEdQKDkSLE1eGWyJ1LtJTevR6bF62CbDqzwo0oUQLDu347C8b4pLaqq1wJR45Z7pCZ0eTA96FA48XlYd3uvZGdpVnX3D0DY0yM84L7s0OsBINAL2MxByL0vdyPFBBVhLC9bH81FCZoslcxNVZ41QjIbuTlzpudNJ0XlVyNuBtIgfP3111i4YIGQzfHaRlEOlFDpwdvaoXGd6kiOjwGVivZGo5DKjNwC/Hf2In7cuR+/7P4HJquz00rrNm3w3nvvoWnTpkIkSFVr/KW/wW1+3P0EByQSSqIk0lwnVj6+NjOExzsQFqeAcpMcEquLcEqsQFBMfHuwXWcD6vI1mqIAgv38ceQP901p0YhR86Bt0VHsOfB6P/PP38Ewa6TX56UJo6ZuhjpZPtvk9QAQfLIRfjhp8o8FyLDIj5Kk5EHwhVgIIFLM//r167F61SocOnSo3AJPYcE66II0qF0tETWTElAjOQ4p8TGICgtFsE4LrUaD4CD6C0KQVi3kVihzYfOAg3PA7uBgtzsEPwKTxQqrzS78e5HJgpwCg5Au+UJmNo6cuoDcQgMKjSYnDQeFFHbs1An9+vVDmzZtFIlU8MZekNM2/+9X4A9Mdn+6EqdFKoIpoxqQzAwFGYAxV746E2IXyVP0ghLmBUqEeJNQXsH9pgoB230lmKja5dIQBRCojkDuoFvdZ8LdkVodYuft8+sUzFxhHnKHdATsIl3Y3ZXFteNCwhA7d++VpC9ykA0ABDmk6B80otbmo0CBVLbeAAhkm1+8eDFWrVyJIpMJ0VFRwsV59z33oFmzZqK+rAko5Ofn4+jRo/j555/x559/4tjRo+WmaRYSDFECJ5ZFkFYDtVolmCGEPxX9kwHL0MVydW+pvzCONEbgwRFQoHTRPC8UnLIRaLDahD7lRR5QnQpKTd2xY0d0ue02wQmxJAuif5wg6VzwNhO4Hx8F9DLUh6HcCJQjQaZGAMFKZoaz3jczqHUcYmvykDXilyxc5DoggwKMaTUCbJPyCzKKAgg850DuM7eANxbItF3iyKhS6yFq8o9+a14oWUXhJ0Nh3eNc1lXcKt3rparbDNETVro3uIJR1wtAcAgZ5dwTDd0B5MvmjXAy9zh0PcrO8QhfWyCYWuRu3gAIlAHw5ZdeErQAJa16s9ZIqpaKBvGRePnll4UsjGIbAQ4CC5Taee/evUKdAQIOly5dEhIFlU4DLZamlH5U8KhatWpCfohGjRujcePGaNKkiVAYydOERFL4ULovn3sM3PoH5Ul6RGeXAEK2fFxT0qSsExSF4l3TTVicA+HxMpoX6CVFucCuVGj0UEbx7aG6d365REQBBBppmDcO5vVzPeRE2vCwoWOh6/qYtEE+6G3evhqG6W94dWbdA88irN/bss55PQCEtw4WYcEZq9uXI7067kxQY3zTYNQL80R3J+vWSCJWYOUQu75QbjOuwIM3AALNQ5f32PETsHH9OuGrPzIpBRFxicjPSEOjhvXx8Ucfuh36R4CAqk5SwqWcnBzBsXHLli1YtHChUD65jBPjZbVBeW4jVzBoKTRK2gMClw8/9BC69+iBaikpSKlWTUgcRWDA3dwCkg6AjzpzB+eC/3uCfLMrkEQp9yIDU35xUSvvtMvJkeQKWhKykQGg9BtyLUEVCrb3TjCay+nASwlGNEBw5F5C3tDOlRY0kVXgwaGIW/C3rCSVIubITkPec7e775jjBmMRb82Gtu2dboyseEhVBgj00n9iTxGWXbDKAtXbRrD4485wqLz2IpFvK4/rHai/RZl6ut4CCKQFOZBjQlDmaYwaOVKoFkl73ObBx1Gn1S3Yt3AaVqxYgegY10WTXEmWIiCeeuoppKelCWGLBBDInkDOqOR3QP9PcEwtBRYIHJBmggABTzUP6N8vV6Sk+WJiYjBv7lzc72FqZFe8+9Pvjo19gew98rJERZ3IYnFNQUh3J6HM2nkXWXglYQp4sGogoS4nX/QCHfe6MoKDy4JkO3wGpq6zn6FogMBbzcgZcLN3ihCR30XtJoj+ZLW758C748jeOaIX7Cf+9c68uhDEztkNRuacnVUZIMieKInjcbpbBGqFVi0tAn3MfnPGjEF/meX7wih1qr0FEAqsDmxJN6JnjQjhXqbaC5TroOQS1miD0Lp1K8FXwZPaDlRIir72qay0HAWLrBYLsnNyYLXZhFLJlIKa/Ay898XqnVdQebM4Vt4LFMnoOFAySQ6AU/J8f5HPyKUT3kqaxCM4ikN0ikx7QsmQKN+BlGRIIqdm2r4HtqFzcivxAIHnUfBBP9gP/iFySs+6hfQfiZD7+ntGxIujLX/+BP2kF7wyo7bLw4gYNlH2uaoyQKA8BMFrZMykyPHIuC8CibqqBhB49NhpwMYsStok+xHxmonhjN6KbZdM6F0zHGEaVtAejH73XSxatEj4ku82bATComLQLpxD79693bqACWwMGjQIW3+Rr8BaiT8DmSoomoIcETdv3iyAheu9OX59Azj7g/zLJHUNFYWUKVdfznkGFr03/BA4JNzEQ5YqAfQaIr8Dz7OHO+8PD7D3LgeT4FyXQTRAIKq2I3tQMFpCCk13jwqrQsyc3WBDKY6jajRHbibyKJrBCy389RkIuuUe2WeqygCBXsyr0m3o9UeRLBfjw4lqrOwQ6tbFI/vGSCBIqvmwlfmwUOlJBZo3NAh0H+zLMeNArgUdE4LRILK4BgLVe+jzxBPYt28fYlJromGnu3D857X4dtm3QtliKY3OC0U2DOjfX/BFUKJR5cSc3Fx88sknePHFF5WYwq9ocpf2g99M94ObHsKVrYbyIpCpgfzkPTzaRQVAPpkZPCXkQvqMikNSfYpi8XCbSJz1yG6lEMuxbaDqRsDbGTRJAgj0UOUN6QQuj2JQlGuaRm0R+cFS5SZQgLIQ6fHcHeBzFcgVWopfJjQC0bN+BatzdijxdFlVGSCUrH1Dhg2r0qzQuxnip2YgpFJ+vLoWYfQfVawVWjlErysA5/FbqfyFewsg5JgdOJBnwS1xOoRShqnL7a+//sJjjz56JVwxqV5D3HxzO7zz8vNISU4WvVv0LhsyeLDwda9ko0qXtWrXFuYJCZH/mVWSd8m0Kc3y8e/B73lP3iQGJYzIlESJohkyjzPgHMpqEXQRDkRXk8ElqhoAOtpKsBvZCGyXz8BEepAHofRB0c8aCcvPzmVWJR+mSgaEPDEcIT2fk5OkV2h5w8wQ/OAghD71piLruR4AAgnG0++XqgcLrh6HgwV2NPtZL8NbyXcAobLDTRf7uLFjhYyJ1Nr17Ismd3bHuXWL8PorL6NBgwaitD4UxdC5UydQVUixjfwIKLyyvCyNFdEgfqnkNYVsNmrUSOxUVbcfJUuiYk2/vwMUnZd3HfRgk7KHKtx7GMKbe4GBuVCJG7d4yZRZI6EeB83VAqDSZUHrJcsUaQ9kt3SyQO2eYFu9Ciak4pBhSRoEWiFXkI3c5+9Q1Fkx+qtdUEXFSxeoixHWQ3+iaPEkhPQZDk2T9qJeJFKYcORnI29wRwjZUxRqUZ+uh7oGearI364XgCC/ZKoOxfHHTBhxyKKY9tQbGgRX0qbcBT26d0dubi60wSGITqmO7LOn0KhFKzz28IO4++67kFyBNoHGHDx4EPPmzcO2rVsl5UBISUnBnLlz8WSfPkJ4pNhGEQ6zZs1Cjx6+yUYrlk9Z+5ly4dj9IXBhM8DLnESOFNhnPfsSEKIZzhdHqyjRWHWxecGjRuCC/A7kCpEsYSYoFmzzV8DUewRQVe7xKBkg0BwFHw2A7Z+dHq29osHqhm0QReYFGTeOt1pgWj8XRUs/K768GRah/d6G7t4nZc3SSPnWc/q3AUwGZWRTvyUiP/xW1uyJpRkNAARFts1rRG0cj6T1Bch107wihlF/AAgUXrh69Wq8Nnz4FZYjEpLQe8xnOLRlPdL27sAt7dsL9Qyqp6bCYbfjzLlzOHjggJB6uWaX7lj75RSEqMtPu9u5c2fs3LnTCTzUr18fGzZuFMDJsWPHnMRFv//333/linH4a69h2LBhYkR8XfXhDs0Df/hLwCIeULkUAH1/EUBwLrfhcmhJB6rNcOk4C55TBiAER3KIruYBQCDlBpVvlisZkrBwFohpDrb9h2BixH1kugUQ7Cf/Rf7bPUVvhpSOcpsXKH+D/pPnQDxf21Q1GyHinS+hiqWKF/I08/ZVMExXxgQQNXEt1LUIUirTlAQIL9TW4vPm7tc6lYIX6ZEX/qQMUkakXqV6xuhA7U1kXlBuWn8ACLQ6Ksz0yiuv4KdNm4TF0l7XatUeVpMRaf8dwrPTF8OQl4sV7w9HYt0G6DbsHexZtQT/bFqDjk8MxMqpE5AYH+d0RkhLsHzFCnTp3FkIqSzdXAGENT/8IPhHkDPlte2JPn0wbtw45TbGjynzWQfB7f0IyPnHc9tAyTpJKXECgJvpPigcOD8NMBXIrrsXVBuxtTgEuetyokgypBAwdf8Hts1rLrUGpY+SWwCBCBSMHwzb/q2yH8vozzdBVY3qV3rWyPbnOHUI+aMec1knIXzkN9C26CzLhcI77Mh5orHsCaUYXShi5u9TTHtA0lYSIKQGAUtaaxAss+OfE0bni5VPWgZIDlEjKkgNtVBBUcFb07OjKtvob05bMPBvk2z0yiPkLwCBeCsqKkKvnj2FtMmlGz370cmpiK5WHaf3/QFNkA6NutyNU/v/gD47U9AMkB9BYiKloyvbhgwdigEDBqDjrbdKBghbt20TCkRNmTLFie4DDzyAqdOmKbo3fk3cqgf3zwzwxyilr0wm2CIApMhx04JRHM0gP0BQaTnE1/agtLPcyZBCUsDePAZMahfJmnm3AYLtxL8oeEdeLQITnYjYL2UwXVDiojF9YT+8W9wzwzDQtu+GiOFTxfV30Svv1e5wXCB4K1+Lmb0TbIzzC02+GZQFCOQ5mKIDvm+rgYaKHXihEXigmYJVDBpG6Sos0+wFVhSfgsIbm/9ciCMGD9SaIrj0J4AglPY2m/HMgAH44w/x+VnIREHJjBLinf2c6JKn2gnuAgSqudCwQQOnCpI3PECg72rOBqT9Bm7n64DdzU//MkgQQN5lTYKIs3ttF7sVyDwpf1ZFMi9EpbgR3kiPLuU5ICUxFWPytBG9lNvBtnsPTFiyZHBA07sNEOjhpDLHll+We7qMK+NDh45FsIe1Fxxpp1EwbiC4S+ck88Um1kDku/OgSqRk1+43w+xRMG9Z5j6Ba0aqUuog6vONin8FK6lBKFlSshZYdbNaqJznrUbqRBUL1AvXIlwrx5PnLc7Fz3Mg344WPxuUCYUqxYY/AYQStsjcsGTxYsyePVtUhAEBBHJWvLbgE2Vk3P/XXzAajZUChO7dupXra0DgokaNGmjapIlgAindAgDhsjSokFpRJrjtrwC5+8Uf8Ip60iVIkeUXpJOicEcyM5gL5dMi0LsmpqYDweQ7ILURG1ShURanRBZs2/eAug+BUevcAgceAYHV09sAACAASURBVAQabM84i/yX76Gk5FJFUW7/qElroa7pvo29aN0cFC2dDFidbYCiGdQECSGWwb2ed/tC5s1FyHm6NUCeMJ42rQ6C9iAs0lNKLsd7AyCQJiFeCyxro0ZEqfh2l8zJ1KFOuBZRWpXbeysTG7KTGXWwCGOPy5SwvhLu/BEglLB78eJFobQzOTCmp6ejID8flIegpOSyWq1GeHg4qNQyZTmkUMfSTafTCQCB0i5XpkG45+67cfLkSScpEUCoWbMmWjRv7kQ7ABCuEZfDDu7f2cUOjJyHiaro+iGFbb60x4ou8xIzg1wWSJWGQ1wt3lVwQPmMliRDkraMsr0JMOkSwd4+HUxcM7eBQQlRtzUIJQSK1nyFokWfeLIkYSwTnYCYWTvcsrFz+jwYvhgB654tHvNRQkDT9k6EDx0HNjLWLZp5rz8Ax9mytlF3CFGkRdjAMe4MlTzGKwDhMleJWmBuSzUSgrynSaCpKSXzsjQeD1ULwh3x6usCKORaONTZVIgCGfCoq0PjzwChhHdyLkxLSxNAAmkDOIdDKLhEpoO42FgkJCZixfLl+Oijj8osl37ft39/ACC4OgQy/s5f/BXc/olAgXNUiKRpyA/hMD3gkkbBZgGyTslkZuCB4CgHolLcuJepXgMlRPLE+soGgalxH5i2b4HRyZPa22OAQF/Lea90A5fjWQZBd6IX6MvAfngPCj97CXyBjGE0l88YExGL8Jc/hbbZrZJ33DBvLMzr50k7rdf0VlWri+jPN3pEQ8pgbwIE4otAwjctNEjSefJUSFlhcd8TRgf67HNgcG0tvmjlrqux9HmVGjHpPzPeOKhMcaZrea4KAMGVnMnEMHfOnABAcCUoL/3O6y+C/3sK+PMbAM5NLRh9OZPTIn2TSQDKpPympEkWvQyOzOQcm8ohWKqyl+5y8st31/pJaw9JBtP0ObD1ekqKUnC1xR4DBJqAy81E7tBOHnnuR035CeqU8tM9lrcIIbfBOsptMNmzjBmuJERObo8MRQiZHILEh+k5si4i78Wu7psZ1BpEUHRF0w4iOJSni7cBAnEdrwEWttIgLsi7IGHicTuWpTvQKVaNHV3CqqwmweTg0XRzIU6ZlHVOLDlhNzJAoCyNP27YgICJQZ73TRkqDgu4/1aA/3c6YM11bwJ6BCg3goQkSoKZIQ8oyPC8NoNKXRzeqJaSPZH8DSglgdt+BwwQ1xZs27fBxDV1T26VjJIFIBB943dTYVruZhiPVofYefvEJS2i8MW8LBS81wdcBp0E7zRVaj1Ejp4PNjpB9IS5L98DLu206P6lOwY/PAShT77u1lh3B/kCIBCvcRpgeRsNwjXeAwknjBwe31ecUWhgTQ2+bB1SJUGC0pkTAxqEqxJo2LAh1v/4YwAguPuCcTWO58HlHQe/42XAQPWd3WgEEqjitIQkSkI0wwl693hm7tSFc4hOlRC9QFNS9m2KXHDn1ceowTToD7b5UEAb7oawXA+RDSCQuj//lW5wpEnf2OCezyH0iatZ0Spju7jeAVVG884XUxleGBaR780X0jSLacYln8K0apaYrmX6qBu3Q+SYRV6/sHwFEGgrI9TA1lu1XttVOq89/rAhy1ZsPTp7bziqh8jnzSx5090YwPFArQ0FOG/x3rNwI2sQAgDBjUMqdQhFOXB28HsmgT8+z72Lk0wM5NIgMqEtJdfNOsPAbvYMIESlOBAixfRfi1SoboIDMGC7LQdim4AppwqjVLFX1F82gEAT8BYT8ob3AJcpIeaEYRHz5U6wImovFE55Ddada30DDkpJUF2vBSLHLnPpUGk7ug8F7z4uea+iv9wFVbT8tShcMeIzgCAcHiBaA2xor4XMuZQqXPb443Z8n8EJcydrgPP3R0IllzuzK2HL8Ptz+42YdcYq2T/Gk6kDACGgQfDk/Igey3Pgzm8HT0WfbJTsQEIjvEzOikfEJVEiM4MhG9BnuW9mYFge8XUkmBeiLxdhckdzEN8BbJfJYHTRij/7sgIE2kL72aPIf6c3BPdQMU0Xgti5e8BUYrixn/sPhR8PkQY8xMztQR82PgXhr02Hpm6ziqnwPAQzQzrpvMS1qE/XQV2DknB7v/kUIFwGCZEaYH07DXQqd54caTL77oIdn5y+HKLL8zh2dzjqh7vrKSRtbk97F9o4JG8oRJEEhyxP56Tx1ztA+HPfPugLC9GlY0enTIr1bqqPhWvW4X/33Ytzp8uaDkkjtXnrVtSsUQttW7UIhDnKcdiE4oBnwO8ZB2T8Kj0DI+GK4+IYcdiLazOAd++9ow3lEFtDpHmB/KLJtCBVYakJB9N4KJhGfYtzG3ihyQ4QiGfL7s3QT3xeFPtBd/RG+PPjy+3Lcw6YVn+JohUzxAMOUbPK1EmjRUjvFxHyyNAKkZxx2RSYVkx3PSHDIvzNmQhqc6fiqLAiZnwOEC6DBDI3LG6tQbLC0Q0r0x0Yd+LqDbuiXQh6VZPiYeR6W5XoQVkTb9mqx/4CKjymxAwV06zqAIHjeVgdPObO+QYfj/2ojBlPowvG+2u2w6DXY8L/7hHCI0u3+Fp1MWj2cswe2BM558uCfgIIry5Yi8TqNfH+g51gNpTNsXDvffdj4udToGUZIZMoW4U0Vd49Yc6z8VY9+MMLwB/5BnAYxbMjMYlS5kkyMzCS379Cau9UDiFiohfo9ULff+L93Yut6VGNwLR5C2xye8n8iReYc09FAAJNY/5lOQxfjKzcHMAwiJ66BaqkGk6ccXlZ0H/xNmx/7fBkfV4Zq2neCWEvTICqnFTItiN7UDC6T+V8sCqEDhyD4LulmyPkXKBfAITLC4pWA9+01KC6jsKP5FzlVVrXAoTnamsxs6X/hz0uOWdB370mdz92PBJmVQMIBKbMDg4FNh45ZgdyrA7kW+z46btF2DD94zIAQR2kw/Dl22Au0mP6k90kA4Tn5/6AmNSamNSzMyzXAASqBfHou5MQrWURGaRCjFaFWJ0KURoGOhULtZfSj3u0+b4czDnApf0Bfv8EoLD8ipnlskcYj5Q9IgIjCjIBY7Y7ZgYeCTdxUFdeObnYB5LCGanWgthGjoi1HgHT8kUwofIVFRQ9PU/wR6Fm2rAQxrkfVhj+yMZXQ8zMbU6zW//+FfrPXwFvLFSIM/nJMmGRCH/5M2hadCrz0uGtZuQO6QzeUEGaL5UaIY+9jJCeQ+VnSiJFfwIIxHqoCljQUoOaIcoghGsBQq8UNVbc4k6OVImC9qD7WaMDtRSu2FgZe1UBIFDZa4OdQ1qRHelFdmSZHShyXH3NUVn2PauXYNPMT7wKEHq9O8lJtCEqBnE6FZKD1UgNVSNExULrBfOaB0fQp0P5omxweycA5zcCvMgqTZRagfIjuEjY6G5tBnUQh/g6IswLlAgpWUKwRFAc2Javg6lzH6DyjWZTMQ1CySkyrZ8H4zwqc+qMQ7QdeiBi+NXKZ5TbwLjoY5g3LPTpIfRk8uAn30BIj35gtFdtRMaFn8D0w1fOZAkcPPEqQh4a7MmUso31N4BAC4tUE0hQo1qwZx7G5QnpWoAws0UwnqsTJJs85SZkdvBoTQWZjIphepcs+ytAoO8cyglxzmDHaYMVGSZHhTUDCSDsXrUYP30x0WsAoWHnu9B79KeVypdgcGKwCrXDNKgZWlz5NGCKKEdknL04Z8KBzwCriPzKJUmUyGmRNAqVfG9cOsHAYZXwriHzQnUOwREuHh1ySqQ0P6JcnBggugmYjpPARtbyqknh2lUoDhBoQsvfO6Ef94yTJiHq0x+hrnGTwBNnKED+Ww/7lSOiy7dlRR3UWsR8sb04TTPDoNxoBlaFsKFjobujl9vTyD3QHwGCoElggXXt5M+TcC1A2N4pFF0oc5MfNroARx02Y9x/Ip1/FVqDvwEEARjYOfybb8VJvU0ACa4aZVLcNmcafvv2mzIAQRsSileX/QyTUX4TQ0qjZuj/+QKwIouU6VgGtcM1aBEdhBC1DFn+XAmlCv7O558Gt/1FQC+ici4di+zL5oZK1pqfwaAoVwJAYHgkNeBQ6bbSx39jAGKUAIwKqPsEVO1GAKxUL0b5N9ErAIEeYsfFU8h/7b4rmQXZhFRET/9FeEAtu9ZDP/V1gFxJr5em1iJs8PvQ3dEbnMWE3L7Ny6ws8oOl0DRq61er9VeAQEIKU1F0gxahohC4OLGuTHNg3Mmrjmin7glHbbJr+GFbeNaCfvspl6wy5haxS/YngEAOh3/lWHC00ArSroht5Hw4e5Czo2FkYjUMnbMaJn2+Rz4IUx6/G4bcspl6dOGReHHBeujCpCW0oWieBhFatI4NCmgTytlg3m4Bv+dj8CeXuA5/F5FEyW4DMimaQeRzxmo4JNZzYV6gCo3k2uTq0dVEge34GZhqHXyqNSgtZq8AhJIJHZfOFZdiTjsNTZs7EPHqFBSMHwT7oT/FPttVqx/DQNPqdkS+NQtCbYYNC4R0zVGfrocqIdVvDkGJUP0ZIJSAhDU3axChYVw+a2IOShmAYOdh6hnllfBKMbyV7rMrx4a7dhphkqdoqtTpy/T3F4BgsDmwOb0IeRZOcnKtzDMnhEgE+jgp3eq164zHPpwKQ152pQBh1rM9kXvBOYqhxElx/ecf4O8fVzrJuf1j/dF14CuSE6ARl1FaFt2qhQnahEC7RgKUWOn8NnC7xwAWFykURSRRyjrFwCYyaVJkNQdCK4teEJUMiQWSbwfbbhSYcHJU8J/mVYBAy+aK9DDOHgV1g1YwrZsHLuui/0hDIU7Y+FQEP/AM7Cf+EaIVWLeKhSvEXCmy/g4QiFUtA6xsK0+Bp+/THBh/WYMQBh4FD0f53VdatsWBZlsMyLCK/0JW8qT4A0DItzrw4wWjKHNCaVmQJjP73CksfH0givLLurWrtUHoO/FrVGvUDPrcrEoBwhf9H0Je+vkyYibaz89di5jUGtDnZOHLwb1h1heU6UMZ73qN/hQNOt4hGSQQoSCWwX2poYgO8k8tl5LnziVtysBIORP2fQw+fXvlORNMlzMtVlAXqjCTEie5ljHDFEcvqCrSalIhYIpaqAzTaSLANH0ezE2PgtH6n4O01wGCsNE8B9OW5TDOeR8gnc713nQhCHvqbejuecKvV1oVAAIJMIwtLhVdm5wTPGjfX3Rg/CmH4D/7Ul0tPm8e7NaL2wMWKh1aZOfQYLMeF8z+AQ6IWV8DBPI3WHfBgEKbeJnQ5Z2XfgF7f1iG/euWw2656s5Ov2mCdLit/wu4pWdfsCoVCnMyywUICXXqY+AXyzD72UeQU44GYcjXK5FQqx6I5r9b1mHjjAmwGsvm+6WYsVY9euLW/w1AdEp1yectVM3g/tQwhGk8O/tKnVmf0iXh2ozgDs8Hf2w+YCsL0MrwRr6N5LpQjlbOagKyTrNwpafU6DjE1a7AvEB3PeU7qBBnMEBkAzBt3gGTdLPLrLy+kqtvAMLl1drPn4D+s5fhOC8hrtVXknJzXlXtxgh7fgI0tSh1ln+3qgIQBJDAAPNaq1ErxP0X5RUNAs/jty5h6BCnkcV0Iccu00XYaIseZ4t417ZLOSYUScPXAGFfjhl/50pz1LRZLVgwfADSjx0qs0qVVoe4GnXQqc+zaHDrHQI4oFaYdQnT+nYDRTuUbrVa3YI+E2Zh+Xuv4L/ft5UNZ+Z5PPDGB2h578NXhpza9zt+XfwV0v87DLuFPluvttQmrfDkx7MEcCK1NYvWol2clEw7Umeo2v0pwR7Sfgcn5EyoIJUi4csMAGUVQcLCKT9W7tnKzQwEAiOTOISRluDa5ioZEqMGaj4ItvVrYIKLHdn9tfkUIJBQaDMN016HZRfVAvdy3lgld4VlobvzMcGkwFx+8Sg5nRy0qxJAoPVS5OOiVu7nSShtYkjvHoEknftgQw75C88DgAIrh1Y/63GGSjj72bvD1wBh5Vk98qzSnDEcdjt++WYazh36FzxYaMMiEBaThOTGt6BGs9aIiglGcLAKLMsIX/9n/9krmCGufW93f2kkWt//KE7u/Q3fjnzRKSqr7s2d8PjY6QJwIDpWK4e8PAvOHzyAi//ugiE7HWZDvvDOq9e2Pbo8+QxUaulet+EaFr1qhEEVSK5U6WPHWwrA7XoXuLip/H503ZArSU7Zn0kRoc+q3MxAtRfianHQXIvv6BVSl5xGKjAtaCLBtB4Btu79ACt97+V6z4il43OAUMKo9Z+dKKQqjWYJqTTFrtLL/ZjgMIS/MRPaZh28PLNn01U1gCCABAZYdbMGcUHSb9ISgEC4IOe+CISofQ8QcgkcbNHjnBcrNEo5Nb4GCItOFsJCZSwlNnrpWyx25OTYYCvHPBEZqUZkpAY2cxG+ebEPckulUqbLnjIkDpiyECGRUbBZLPhq6GNOjoqUqnnY4o0IDo+E0Vg817Vp6CgcLiZGg5AQtQBI3GmUXOmRmmFCBsZAcyEBKvp04gfwe8cAjrJaHGEkWbgpP8I1SZQsRiDnbAXRDDygCeEQW5N3Dm8kH8OU8sABA0TUh+qOWUA4dagazW8AgvD1ZLch/+2ecJyltFdVtKk1iF3wFxiN/ybcqUiyVREg0Cc3OS7u6iwmyLjsykt8EKIYIPvBSJ9/kRE4aLS5EJmkQXfv7lD8ofE1QFh7Xo9MszQNQmmhOBwc0tMtsNudQYaGy8PP00fh7IF9ZcwHQaFh6DnyE9Rpe+sV7UDmqf+w+O2hTs6OEQlJ6P3+DNg0KU7ggPhITdVBpfIsr0FMEIuHqof5nUOt4ofPzQkI4PGF58Bvex4oPFH22aJjQLiBrE+ljgRF3GefZeCwlAPCeCA8wYHwawvuUjIkckq81u+A0iXXfxpMy2HFRZb82KRwrYj9CiCUgATzpsUwzhvr5nHw1TBGqMcQ1OUhv3U4cSWZKgkQhENTbG7Y0F6NMAlaAAEgnLSjWSiLf+6JkOww5kqeUn7fn2fHfb8ZkOHnPru+BghHC6z4LbOcL0EJwrZYHAJIuLb9Pn8cTvz6w5VzIBThqVEfHfq+hmYdb4Y26KpKmIDG0f1H8Puiz5FxeHcZUtGp9dBj9HxQ1ELpFh+vRUiIyuNz1iFeh8ZRVe8DRMIWyd5VqChgKwK3/zPg5DLg/+ydBZwVVfvHvzM3tpdl6aXjRUoQCQMDRUURUQQLO1BsfLEDsf4qomLrqxggYiAGKKCioCgKKKCkdLOwy7J598bM/D/PmXth6e1ijh8k9syJ3zkz53eetAq4MAgxEDWD5GwIkwSpnpUKuTv3tzIU9UKtJibegmlbRNUgRon7LktUHfTjnkRrdFKVUClUeoKgBmhZBFf/Q9ZT12HlHMIStdS3UfEa1GuHUz+3OkTq5+I1Xa5PVVmCECYJYtj9aRcPjUXvUIiiVAyrQjzWJppH2kaX+MNdiC4PWGXcBj+3LfSRVQVMcCqaIEjypZnbfKzPLT6TMk2LLVt8hPaJy7b0+wnMm/Ai0XGJ1G/XjWbdzqRemy5ExSUSH++mdm3v7j2ya1eAXbuCBPN9pK1Zwvr5M5SdQSB3F50H3MZRp1+0134SM6SGDW0vmZJcIBvGuujVIE5lhHRK0RGwjCDWhu+x/noOfFv2NCDEYD2wfc8/5efAzg37EwRPjJ3aeXegQ1kKsUGPKyj509AanYl27L2Q0KjCvi1FR2jvJyqdBKHg8FTMhPeexD9z/6AjJZ14aT0f1fNC4q66Hz1B5EtVu1RpghCG3qPB2x3ddEg8vH524haDZ1YZrDs7gaaxh/d7Lu3VFVX63X/n8cqaAFUlhmhFEwRZA8nO+HOqj425xUNNuT1mBMjah5FZlkHdWiY7dhgYlgvd5d79YRfbgZSUaNxuHSEYmzf7lLV7pJgikzYNGjaKYluqBG/ae/95vRoNGpSMhDaIcXFa/VhiiiAlK+09W13as3atwVzwAmz6fo/KQdZTHOrCmbqVmmHd3rkZRLKQUMcgsW4BJEStIN4MEc7mTkTreBv6fy4SY4UqDVmlJggRZH3ff0zeh89i5e3tU1yRyGvRccRe/SAxvS6qUjqlQ2FWHQiCzE/UDa90cHNMjUOTBCEIo9YY5FeA/cHqHIPL5uUyL8OoUvunMhAEWWORJMxPz2fZrsBBkzIdbK8LQcjMDLJr194EQ272jRvHkJUVJCMjtN9Nv04d27jQMCw2bdo/NWBUlE79+lFs3OhjHw9JoqPlZ0V3aZQ5iLCgdaKX42pHO2mhS/OjH8jBXPER1uLXIeSzD3jRPCy1fxcykLkF8jILXB40W70QJdICKUIUmhYgBzXaonV9CL1+F9hHxVSaQy+vtqoEQRAwJExz9gt3EFqzty9zeQFVsB9Xk6NIfPAdXLXKPz93Wc63uhAEwUicGl4/2k2nQ5AEIQhjNppsP/dQsVJLF3G/YTF2Q4CbFviwqqCUuLIQBFkVOehT8w3mpeWT7pdbf+HW6nAEQQjA5s37E4D4eBe1annJzzdITd07DJ8cJklJbpKSPKVGECTrc60oF11qRZMSW/ld4gqHfiWrZZlYqX9h/nov+DbbNghZYUmCeL7kihRB3y1Jcklq52Zh7wVJq9EmTA50F1qTvmhd70eLSa5kkyz+cKoMQYhMMfvtR/H/8EnFxEzQXUT1OJf420dVWZ3SkSBBiMwxWoO3OrppfxB1w8TNBj/shHmnFS2BTnFeN0kstCzLYPCfPubsEqlBcVqp+GcqE0EoiMa6nCBLd/nZ4TcIHcbJ4XAEQVQIB5YQaEoKILYHmZl7Sx+EINSv7yU62nUQgiDPFi64kaRbEGIghojN4t2Ot0J5bHsjiDHzDtj2M5ih3UGURM2wfbWu/klKQm2TxHrhzIxCDsQo0ZNgxzb4zwXVQmpQEO4qRxBk8MG1S8h88KLyDdPsiaLm81NwNZDsG9WzVCcJQmSFRDj4WRc3TQ4QcVEkCHN2wsyeZUcQVDpiw+KKeXl8sa14OvPKtNsqK0GIYJQZMFiWGWBTbois4IETOcmaiJFhZubeVqERFcPhCEJ6eoCcnL2fFYLQoIGXqKgDE4SoKLFBODhBEL6Y6NFpGOumbZKHJK8jMaiIfW8ufh9ryWuQn6WCKFlpYqgI+TkiRYBaTU2i5HMhwZBq2rEN9F5j0OL29XmsiNGXfp9VkiCIcsj05ZD5yGUYG1aUPir7tOhpfzyJ976OFlt2B0mZT6IQHVRHgiDTFsPFA3k3TNwcomutaAY0KnoMhULAid8wGfyXj8+2BO10xCUxXy9Mh+VQp7ITBIFApZcXN7WgycbcIFt9IbbnGwTDkoWyIgiHkiAciCCI103daBf1ot00jnOT5HUhaoV9s0yWw7I6XUQQkJgJO1fYmSG3LoAVkJ8G6et0XB6o28pEbywBLaLQjroK/ZjbwBVVLd7tA22CqkkQwjORkKX+WV+R8/p9ZbbB464fTvQZl6K5PWXWR2VpuLoShAhJGNfZQ8vYPW5mkzaFeLhDAjGlnEJ3Q57BkAU+Zu8MkS1R+6oBMYjs0apAEAq+T6JSNkyLgGmRFTRI95tkBQxW7/CzYYcfX4GoioeTIEQ8EdLSAuTm7i9BOBBBEMmCtJuc6KZFgxhFCCRUcu0oF4leHa+u4Sqh62Nl+X5Un3FYWL4MrMVvYy34AHOJQepSjZiaFjXagdahCXr3B6DRKWhVIFxySdalShOEyMTFcDFr9F2YWyXSRekUSdGccM+reJrJjqiiCuMiQlGdCYJAoVvwdqc9hovTUw0eaJ9QKuYAIiF4dbWfyVuC/Lyz6toYHG7LVDWCcKD5iD1IwLB/5Uq+BF+IvIBFdtAgOs5FbtBi47Z8gqaFYUJe0MQfsnB5NFLqRbFtR4Ds3BAS6TjaravMih6XRr3aXhJi3PizQ8R6dBKjdGK9OskxbmI8mqojhMCREBxul1WOn1shP9amnzGnjyDtm3RqNANv397oxw1FS2xa7ewNqp0EYa+bgi+XnHefCMdMKKQ58wER0ZDYBvHXj0ArRqa1yrG1izeK6k4QBBXR7L7cwU23mjr/5lgMahbxVyoaZhLDYGWOwXepQX5OC/H11iABcUuo5lyyOhCEQ6203PiFQIgbpRT5u6grVCQ+DRWOW35mmfa9QX6JBEBcESW3gvpdEgVX831QtLelCtcWlUPOVvLffwTvcaegd74YzVM4Y9MqPOvdQ68WEoSCC5H/y1fkvvMYVl442kURVklLSFJBj6J7DijCU9Wn6pFAEGS1xHDxhfZuutZ0cWKdg7/s6ohQB4RFZsjirwyD1HyLKalBftoRZIc/HJn1CDoMqjtBqD5vszMTB4GSI1DtCIJAYmbtJPOJazHWScSLwhVX8/bUeGgMeo0DJfguXBtVvdaRQhAUSbDgqXZeOibZ1uJyS5T8Pb4QigysyjVYlm2wKtsi1WeSGXGyP8JD3DoEoaq/5c74HQQKj0C1JAgR2WD2mw/ZKgfzEEHuNY2YgbcRd/EdhUetmtY8kghCNV3CMp+WQxDKHGKnAweBSoNA9SUIYYiNnalk3HIaGAdO7pL03GRcTY9yDIcAhyBUmvey0g7EIQiVdmmcgTkIlDoC1Z4gKJVDbhY5bzxA4I/vdgPo6XQyCf99Cb2axzYoyo5xCEJR0Doy6zoE4chc9yNh1iMH30Zun8E81r9T8aebupCuNzxPt1uf4Y2zGxa/nUry5BFBEARrKxRU6gbJDhl342NEndLfkRrsswklFPCavMPEqa0kG9cZRsUgcEptNwmlHDeiYmayf68rfvmCUTM28PaIO0ttSF9OeJMPV2hMHHFTqbXpNFQSBLZy1+DHmDBnGXnhZo697wNmXtmMq3qdS0bvO/jy3t4smPI+l7/2JyumvgKWwW09z2Nsw36kfjSEQ/owbJ5DYu/7OWX4B0y5uOpH3T1iCEJkS5k5u9Djk0qyw5xnHQQcBKoqAr6dDBv5P97+bOruGQwY8gjv3XYGX4y+jdu+zmTlj+OIzV7OJX3vZsCbH3Jx2yR+HvsMfd/8h9W/RLoEywAAIABJREFUjScSVPfsc04l7qRb+fyhiw+Kxugnbmf47zpZ37xUVRGrVuO+tve5fB57ND+89ADdm9SAQA7jVwa5vH1Nnn7pNRLb9aJf8kaGPfce09blc9PAPgwfdi0PHIAg5KavZcRbXyt8Wp10ATed0hQiBOG+l2i7cZb62T133krduKoZOvuIIwjVarc7k3EQcBAoAgI+XrvtFh6bu50Xx3zK5UfbMTDmL1lM1/YdWPrH9/y6yeS6809kzDsv8cir39Pv6uu5duB5hH556xAEoR8/jP2azQlHc3X/tuz45xs+XZDLxRddzPhRNkFY/dIgPv1tPRx1Mrce16AIY3aqlhoCayZSt98rPPrGWG49WXI07106ntqben3u4b2zNO5+7j2+Xevjlov78tDQqw5IEH4d+wiTt0rmpp28P24Gr4+fxIW1/1UShOjEWlx3/qn8+eEk/uhwOVs/vJG4AlmjS21OZdyQQxDKGGCneQcBB4HKgUDWih9pNOAxjn9wLN8N2v+A+ODJG3hoVoh1U0Zxw9D7mfzLStp17c6Q2+6i8dKx9H11Lm89O4xIcvARjz1I4zNFgnAGN3Xoz89NbmTZt5ez8O1LOOWlbfz80yxmvnk7wz/5m+YdutO6Zi4//LKE8ZO+ok9rR4pZ3rti++ThtHpgFmM+/YKLaqxQB7mUWvXOYc0P99Opp00Qvr/vDKa+NoJLpqSTdQgVQ35WKj/+uUq1cdeDD3L+Xa8wskeuavfEW0cz7ebO7Jr+OE2GzeDnH77nmPplk/OlLHF0CEJZouu07SDgIFBpEFg180OOve1tnv7wR27pCK1PPJ3UHJEPn8XmLx9iUpggbPr+fdj+HU1Of4pRn321R8Uw6ntat2isAm1JWbd+LScNLARB+DHAhp/eIjGYT4se59Luiif59o4TKg0uR8xAlo8neeD/uP3JN3jsgnZq2m8OO5VnFxaDIITSuPqYAfzWqDnJ0bB67Vque2gPQYjYIOT98gz1b57K7B9/oGPdqpfP5wgnCCb5vgC6x4vXrR8x70n1nGiA544+iyckJG649LpgKBOG9yPaW3qyvXcfuIOhkxdx9mMf8OmAqm+EVD33woFnlbrwC/5zxWha3vEWC25soyp9cv2NDE5vWjiCcFAbhIIShEEs+N+lnPpyAQlC2AbBMvy0OKkv7Qc9wZTbjz+SoK80c+11/oXMW53OexO+4pxW0Yx5oDcv/LM/QZj2xuNc/NpSZsz/gK5Rbm4XG4QG57LuveuJBoKpS2na9y6GvzedIfV+oHWf5xg0fA9BaNKmE3Pff4zBJ/bnG/1c1i28h6ooM6riBMHih6cHM2RaOjfd8wz39D3qsBsxuHMDx10/iXmThuLSVtG1w/X0uvdlnr1qf9eWl2+7jZf/2Uy3M/sz4eGrDtu2U6EiEYgQhNP5c+atJG7+nf9cPhJPvQ6snPEayaUytE2c2ely/jAgpV0Pln/6f6XSqtNIOSFgBnn6tjN4dnYi42ZM5rw6hycIt48awz1ntzqMkeJ5PDzgbN5Na8aWme9zX5/zeWNj5h4Vw2dLefvzGfTzfkOTc0fy9AcTuKFLSjlN2ummIAKmP5e5E5/grKfnhP+5Nl///AGn1ozfS8UQ8m/mmi6D+Dq2Niv/+JQnhCCk5+5uqu9dzzNY/5Lzn/+FW0Z+yNT/u4Led+whCO0vuYEln7yj6i/65Qea16x60gMZe5UmCJLu+ageZ7At26Tmsf1ZNnYosYd5H8bccyoj5p7JupkPH4IgWEy85mqum5/MJ+POZ+SVI0geeB+fj+jjvG2VFoEIQTiHDYvvU2x91U/vc+zt73HaY+P58oL6XDL4Bn6Yu5YQUL9JS9575116pMC8D27hkueXkiYJetqcz9Y3zuK0yx9i+ZZdQCzTF33DCS6dDdOepMPd6/l8dE8G3P0FU2dNpIcopP/5gMTL3qVF0wasWb8VouK4+um3eenUJBr3OA8tqTF65iZ2+UIcf97VfPf0dZUWxeo+sEDeLmbO/IqB9767e6p3PvMGI/q248OCKgZCPHvh5Tz17zaGjnyHM9I+P6QXw9Z/fuSoyx6TTyojL0jm3i/T9xCEWT7uabWS52bDpf99hpeuPF5ld3SKg0BlR6BKE4TQ6s+od/6rTBl5Mb3v/ZZPp0zi7GZRrJ09hk63fswfv35D23gfZ57WjwbnDqe3Zxo3vz1395qsnjeGc7pdD+06kLN0MVu88dz04hhGnlxHEY+z7hjNq5d1YuTDN/H8P3GkfvVCZV/PI3h8+xMEUheS2OtO/nPx44xr8g7Hj9rAD9On0r1OPpf178+2Zpcy+eGTSTnzdq666yVGX9+RjI072Dh/PD0fmcrzE77kuqPcZHjc1NY07rzsUv5scR4z7+pE15630vDWV/jm5o67CcKQEaMZObAt/3fdVbyb2pR/J41QBCG77TlsfOceVk0exWkjfuKzH76hd/0jeKmcqTsIOAhUCQSqLkEwA4y+8kyGB4ew44Pu9DrtOtpe+wxv33TCQQnC2Lt7cSAJgvf82/htxGlcd9YAfo2+jOXfDKBFt4Hc9vwHDOvZjMkvDefy77LI+mZ0lVjUI3OQ+xOE7JUzaNj/cY4a/DxDlwzj5t+OZfVfL1LHC8PvvJzJu1rxzbButBn0El/OmcLpCVEKOv/2lVw1bDhTF2whLqEb3333HEe7VtDplJuo3fUceh2dzI+fjWeZqwubZ7ywmyC8/vGXXNGhJp+9dh/Dvk5j3dcvK4LQ+dpnmXJrN7IXT6Xhpc/w9qRZXNL6yFwlZ9YOAg4CVQeBKksQ8jM2UPfkKznzslsY0KEG7779Kuu83fhr0qOkH0SCcDCCELFBePWuU3lpWV/+/fYaRRDufHEsQ09pykfP3ceQmX6HIFTqfb0PQchN5f77H+XdP3OZMX0crs+v4vhR65n903d0jNlJn0suxdX1Xsbf2IhGvYdyxZ2jeXlwJ3Zu3IFmhohu2oDQ2rk0Pe8ezntsIsM2jaLn20vpe+4JJLjAl7GFL39ZxUc/T6PvZlvF8N//e4UR5zTj9kvPY6Z5Oos+vjssQbiMre8P5scxj3H5/1bzy6yxdLJd8J3iIOAg4CBQaRGosgRhxfTn6DZsCl07dcCtaxi5acz7dyujP/6OXjmfcvSNH/DNd5M5OXElnbrfTqdrhhMhCMN/P4H1s57Gra/ey0hxN0GYOowTTzmHhhc9wCd3nMCD117BbFd3fn3nnkq7kM7A9vdiqNukJU+NfJVLOsRihgJcctXlTP97u4KqQdMTmPTJM7SPDzHl6du54qOliAkCHQfyw0UGZzzyharnTW7NzJn/4/Je55DWYiCrx9ygrJgDO/6l5WmD8fV7jNRL11Nz0Ls0rJvA5u3ZxCbU4MnXJ3BdO8I2CA0w0zaRE/Jy4dXX8v49g5zlchBwEHAQqPQIVE2CYGZye8d+jIvuyZY/HiNWvNiyl9LjpJtJ6DmMSQ93oG2fa8nwQXyNGvizMzn3KpsgzJs0kl7Dv1ELE7FB2FeCsHLaPSwZP4RTRi4naFhERcfz4eff0Hv/2CqVfoGdAZYDAmEjxYiKIdKjWEwXVDGUw0icLhwEHAQcBEoNgapJECyL/EAAdDdRHhe2PbBFMBDARCfK68EI+Qka4PZ4MENBVdfrdmFZJv6AnfpZ6gUCQXS3B49LJxT0Y1guorx23OyAtGdZ6C77Wac4CBwQAYcgOBvDQcBBoBoiUDUJQjVcCGdKVRiB/F0s37yL+g0bkxS9h0hapsnKdRuITqpHk+RD5oCrwpN3hu4g4CBQXRFwCEJ1XVlnXg4CDgIOAg4CDgIlQMAhCCUAz3nUQcBBwEHAQcBBoLoi4BCE6rqyzrwcBBwEHAQcBBwESoCAQxBKAJ7zqIOAg4CDgIOAg0B1RcAhCNV1ZZ15OQg4CDgIOAg4CJQAAYcglAA851EHAQcBBwEHAQeB6oqAQxCq68o683IQcBBwEHAQcBAoAQIOQSgBeM6jDgIOAg4CDgIOAtUVAYcgVNeVdeblIOAg4CDgIOAgUAIEqh1BCKmgy6ADKqad/MPBihsMwCzwcw0L9+6HPCWA1nnUQcBBwEHAQcBBoOoiULkIgpzsmvxPigaWhWUnWlCHvmVCyLRzLvjyA2Tl5LDLF2RXZi5ZPj/ZWXnkBSyCIYOgYSqG4A9ZWFakzYILZeFS/4GmWXg9Gi6XpnIuJMR4SEqsQazXTXKNaJLio0mIT1C5G1wuHZduD0rIxJ6x2kOOjNZC2/PXqrs/nJE7CDgIOAg4CByhCFQoQZCDW9PCqZbkz4aG5Qqopcj3Q3ZmNuuzssjelcU/a9P4e+kaNqbnkJq+i515pkrzbFnqiC+T5dN1F1gBLC2Ebpqk1EimfqOGtKtn0aFNa5o1SCYxKYkGNaKJi4tF8QY1H5MgGh5L/lo2YyuTCTuNOgg4CDgIOAg4CESuvtaBr9flAlCk61DIID/fz+ZtmUyf+zfTZs1l5c4gWtAi5Ireayx+orA0jRgy1L+bprdsCUKkdxOiAiLJsAhERdDzqT/oIY246ChO7RRLz7MGcHKrJOKidaK98ei6KDuc4iDgIOAg4CDgIFC1ECg3CYI/jIseCLHT0Jnz1zq+nfkHq7ZmsHNXDjl5fkJhVUBEsiCHsZQDC+sLiPfLG/MDdr1HjeHSXUpdUS+5LnUTYml/dGNuOKcr9evE4sVU/2m4y0juUd5gOP05CDgIOAg4CFRHBMqFIBhGiBVbs5j441/8+ttSNqfl4zfyyfV4cIV0ND0fXYwJq4k4XlQTQnK8po98LQFDM4nWQiTExdKtZX0uOv8kTmybQlyUO2xOWR23ljMnBwEHAQcBB4GqjECpEwTxCDAsA8vQ2JSew5SZ85g6ZxlrtmQSCJlYpijm7du2KYRA/oqY9NmygupUNGVkqSsvCd0SqYGmjC49OiTHJ3BCx4YMOrsbx7RpjtdlQtBEGS4oHIQ8OMVBwEHAQcBBwEGgYhAodYKwcUcGn/3wB/OXbmXpqq34cg0Cmo4WPu9MUxwLj+yiabZdgscw0DWTFg2SadO6Of3PPJZubesR7XIIwpG9Q5zZOwg4CJQNAuHLaVgjbHuiyRUucjnV1YVVnVLhy+tu5bEyOo/YlNkXXXX5U23I9S9scB/521733ap5+S0xQbAlBiGys4JM+OFP3vhiFrl5eVhWxJKvdJdZFkg8A0J2lAN0M7i7A1tDoamf25p+cWUU6cT+bo5i7iAeEKZIMzR7eV2y1OJLibJGxG1EEdIh6NJUXAXhOKI6sOuUfgkZOt2PbsywQT3p3rYxLi0ftFjVt1McBBwEHAQcBIqOQEE7fMsybA96JcnW1e9yOvgNE18whD9kkuM3bbd5f5CcgIE/aLvZC5HwunXiPB7io3USoz0kijG6x0OsRyfK7VLniC6Hi3y0hUwouzr7Cy7nUlXzaisxQcjMC/LVL4t49oNp+Py2Vb99+JYNQXCZHgxCePQglu4iMdpFQmwcWrRGdEIU8ZZGTJQHj8vC64ba0TrecNyCglvLtDQClpfMvGwM3UUgYCHD95tB0vNChAIaeb4ccn0+zKChPCdCuu1RUVYEQdQRIXTcmJx/aldu7t+dtk2Si/5GOE84CDgIOAgcwQjsDn2jmQgXCP9PyQYkRM6uXD/b84L8szWLVTtyWb49m3WZAbZlhdjlM/CZGoZcLS1RC9syAvv6aSmpr4ugkvQmeDzUTYyiWaJO67qxtK6TQPv6NUipEUVyrBePkAJ1A9VB18NUISJz2N1opVWuF5sgGMF8ZizcxN0vvEeaFYU34qZQ3E2p6QQ84A240DQf0UEv3jgvMYkaDeuncFTTRvToeBTtmiZQt4ZHsTW3y5YilHUJhYKETMjyh1i0bicr16Uxe/7fbErNJ8eXQ1ZuDkI4lGmFlY+lh/mmWTKSZFoBbu7TiduvPBtPdBzeyGYr6wmXU/umZbE1zyAraPL+6lymbMojNd8kJ2jiDwtphHvHujVqeHVaxLt56OgatEpwUzvapf7NKQ4CDgIOAvbFbW9JsX2RU7dV/EaIHXkhZq/axox/0/lru8H6tBxyDC+GS1fqAiWBtiybS2i2zRiWkhsrgG3vMwt1zNvmc/aF0YzEu3HhMgLEavk0TE6gcy2N01rX5+SjapGSEKMkDSpUTjjWb0TiLR1XVgVEsQiCLMQDb33Hx9PnKZFJFCHyIyEPS7BX3a4QLZNbcmH/zvTpkkJyci11OFQm8JQ4KjzH6LDuaXN6GovXZDDx+4XM+GcjWnAnpoiuSixFEfbqolGNfKa9Noz4mIQCOrASAF2Bj8reCVkwfEEGr6/IIUv+UszSMcnDuz1qcUxN7+7olsVsynnMQcBBoMoiIGoCO/KuFMM01M3fMEPkANOXbOOD2StYuEMjK6gREEmwJapqE0sX/UHEfsB+fs8XaW+rAqVe1sTgPAyUJhKGsCu+/Fk96UIzdSzNvuG4rCDxukWnmkEGdW9Gv85NSY72oBPA0t248dgq7rB6vLItQdEJggnPjp/BW1/OwVQY7GvkcegpRow8gp4QekAnWofTujTn1gGn0LJpfcWyVHChAqygMhGEvWdnG6dEtpVslvyAycbMLL78YSnjpy7El51FSBeTF9lMRbRdsM0j8LtiqGnl8MsHw0hKiEMPuaqkk8O6nCADZ6bxz64AgSJCcbBdJfgkejSuaRXPi11rVjkdX2X7IDjjcRCoWgiIpZmFZUrUW/Un/GYem7JMnvlmPt+uC7EzKOoCF2guLDm0lLRXWRyqP4ev9ftMe7d8IGzAKN/vffzs9j2Y1CNCIiwlTRZZg2YJCZGxgUcLUdMVonttnScHdqZNbS+6FouySQ9H4bVtFCrPiVckgiCil9ueHcvUPzeKZaINxgHzHBx8iwlBkINSjPAeuOEsmtdJIDE+zrYB3W0hWrW26L6jlZAOOga+vHy2ZfiY9vtKXpowhYBRPJWDronRZzT1kmsy5tGLaduoXpWK0Lg8M8CQ33cye7vf3jZlVJK9OkNax/N45yRcpRBTY1dAVB85/Lbdz6rsIOl+k4BhqTlI89JHnFujXrSL7rWjOCslirMbxpbR7JxmHQQcBPa9oInRobI3NCwCVpB/tuXwxPTl/LLRT5YRjaWJJYFc0CJ2BHu8DcoDzcjnTkkdLAtDE1P4IHISdK0HD57ZmuNaJBPr0nDpbnRNQ9fKLn1AUedcaIIgPGD89HmMeGcqhrlHtFLUDj2Wxr3X9uaqc7vidQkpsB1FKhNrKuqc9q1vb0eZkT03w7T4e8VGBj8+hvTceCzdV6TpagRVjkkRTLVoXpcvn7qWmBgJMV35ywN/ZfDa8myyS6BKKOos29bw8N6JtTiuTtEJ2ersIO+uzOGrTT6WZwaLTGhqeXW61vZyTct4Lm0eV9ShO/UdBBwEDoqAbU9g3/ztC6phBvGbFv9szubFn1YzbW0eeaYbI/xzMS6Xb7At591jalheIO/uUXlF2tKFiDZet9xE6T5OahTN7T1bcHKzmsS73Wi6fOmVQYQyjj9YLOHymEOhCYI/EKL71Y+T5bcPpiKLy8OzuWbAKTxyRc+wk2J5TLFy9CEbZc2ubM4Z/CIBdVgWXYzkVnmgLEbe0Y8LT+9cOSZ2kFGk+gwumrWDX7aX1Hq1eNMUrB4/Jon7OiQqVn64smhngKcXZ/LlhrzdBpKHe+ZwP28S52Jo20Ql1YhxOwaVh8PL+bmDwKEQEPWBYZnq8iXnvxg5r96RyTu/bGDCkgxSQ7bKwNI19TNbVhD51pY/OdhrLkrlYH/2I9YKthLCwtRd1LDyOa9NTe46uQVtG4oE1L5kqq+GJob7h/+GlcXuKTRByPH5OebKZwlFIkgU44CTCTx5c18uP6ujykVwJBVlnEc+Pa54he25IkEo/oK3admQb0der3ZPZTt2ZJ6LMoJ0/2YrwTJUJxR271zaNJb3etQmWrGr/UtmwGT4wl28sjz7ANEyCtvLoes1iHHxv+OT6dMoplBkpXR6dVpxEKheCCiCYIZA4u4E4IsFm3hhzlr+zXBhWl5MLYi22y1RWQBUUgDCtmuKNIjbpKjq5VvuomGsn5u7p3DN8Q2pFROFpnmQ3D6VnCBYZObkc8yVz6jQQyUpdWsn8tXTN1C/VlyFTbok4y/us8FQkA+nLeaJMd9gqmAdxd+8Xt1i+cRHMSRsc3EHVAbPybafu8PP8VO3lUHrxW/yxDpefjyrPlHKGsguQmR+2+HnpGmpxW+4iE9e1DSWt0+o5bhnFhE3p/qRi4Bt4xa+acjhbxmsyshhxLdL+XqVj3zLjSvkJqiS+dhyWRHhyxOV7fJ04FUMpyRUegdxtdTwWiFOrO9i1AXtaV8/0bZNUHGXwvEUynE7FEqCIJr07Bwfna58tuSwWxY1E2IYdc9AjvtPCnHRbuw4zAE0qoZe/XDrE5AwysrxxiRkaKRn5vDch9/z1YxFBIkBLVgcDcPubhPdFos+G668cktG1w43k6L9fF6an+7fVi5yEJlB+xoe/urbQNm9iPjxpWVZ/Hf+rqJNsBRqN4jW+btfiorj4BQHAQeBQyMgBEEssHQrgMhg/9rqZ9Bbc1hnJKpYBXsCIlWkpr50V1GRIs1FLTJ49YI29OvYDI84YWhiyFi+V8JCE4Q8X4BOVz6HYZQsl4JkOrRvcBDnMel98rHcMaAbDRvURjd1CTZV5Yt4M+ZaBnPnLePFT2ezeFMOhPKLbbexLyBtm9Rj6ks3FsuOoazAXZ8TotUXm1WMg8pazmoQxbQz6nPpzzv4dH1ehQ1TtB3rL2xIStyRpWarMMCdjqsuAhK4KBTEFzJ5fe4GRkxfh0+PQcevDLdLdNOqpKhIhgcVx1FsD0yTIZ0TeKJve2LdHjxuj1Kj7BaXlPEcCkUQ5Jvvy7cJQtA2QihxEf2QHefKJMrtJqVuLKd060qfE5vRuXlt8MSoPpRMwTIIqkAUuhKpVwyHkNFG8j7ssY4XwZYSZ1kW2Tl5TJ6/mR//+Ju/V6xkZ6ah/G7DwqPdWSyLC17EDfSsbs1564HLwklGKv6QkdClrb/czJocW8xXmUuzOBfrcktnD5dknh4N1g1oREqsI0koCY7Os9UTAblFy2VUQiOn5/p59NvFjPsnn4ByATQxwy7xxVfUVl7cwkoHFZDJ1DVcWoDe9WN57ZI2pCTFgebFrXISlf0cCkUQZBh5+QGOuXIUgVDZHAKaqBgkxnUojrp15FcyTVPiOa7dUbRv3Yh6iW5ivG50l4nH7SLK5VUbyFXG4ZalD1kIsYdVPvCGSdAw8AeCLN3qY+Wqjfy2dA1bt+axLX076XkmbrLUM2YJQy3vu/x2DAmLmy88jvsGnQEuOejKV+R0oC153a9pvLc6t+x3azXrQYju+gENaeRIEqrZyjrTKSkCogYMhnys25XPA18tZeoGH37LYydeDCc+KmkfVeF58dnwWEGVx+H4ei5G92tNuwbJ6lJdHoaLhSQIJv6gSbcrnybLX1YyZDnsIqYle8sIxF8UK6CMNGrGQN3keBrUSiQ+PpY6NWOpl5xEUnwUtROiiJX8DdGJJCd48FoeYhLtwDVCttweN16Ph7w8326LdSNkkZeTjT9kkZkfIDs3k8zMPHLy/KRnBti6M4P03DwyM31s3p7FruxsMoP2rc9tSlol0Q0J1dMIeMNnNhESVbq3e02CflhRPD/0fPqf2i4sQajYG+iPW32c+f32yHtbFd65SjXGpnEuFp6XQpKTV6JSrYszmPJHQG7OQgyUq6JlsCwti3u+WMKPm01JsWR/syVEcqX1Tih9zCT/g8vSMXUTj6HTvm6QV/u357hGdTB0kaiXbYbIQhMECY500tWPszWnHOQahcBZ02zCEDJjlDmgndZZI+QK4bIksKYAJymb3UpnY7oMLJeBpovnqYTABN2vqwu4ISoMC0KWpOc0cWu2CNrAi2aJ64wc+EIFih54pxBTKXQVW6QUxcSnB9HlqMaFfq4sK7aatJnVVUC1UJYYlLTt61rG8c6Jtfa6EYikKM1vMm2zT/2+YGeAyRt95BmmCt4UiRejiK+GkkJc2CSW5vFu6kTr9G0Uu5fXRknH6DzvIFDWCAhBCJkGuhliTVaQmz6ey89b3IocSIKkcNaDI4gehBFXnMn25nDpJkcl+nj3shPpVC8atysaVxlGIC4kQbD9NQc//h4/LNgQHnXFWAJENqkQBLvIoV0wz8HejGpPQCdRFURiHHrDIaLDW+6QAAs5kF/SR8WK8zUtCsvK548xQ6mXXKOs39fDtv/Bqhyu+S39sPWcCodH4NtedemdEs3yzBBzdvi598+d7AwUX1onHp0n1olSgaIkDHQdx2vi8Ivg1KgQBAomPAoZITICfi54/Rf+2BWrtKiGLtKDij1vKgSYAp2qeAmWpaQJIc1FE+9Opt/Skxa1YnApL0C7lLbaodAEQTofO+1PHv3fV2Fr/OrhkljRC1+U/sUGIblGLH+O+W9FWWruHm7ItKj36cYSHWJFmXt1r9s41kWMW+PfrNK38RGyMKBpDM93SXbsHar7RqqC85NLnLgyaqZBtj/Eha/OYHZWTSwrgKkyMYs8+Mgu4cxHknQCzbQDJ7XxpvH97adTO14CsLlwuUrfLqFIBGHl1lx63zJSJcCwLIcglPeWdZs6vU47mjeG9lVRtyqyrMkO0fKLzRU5BKfvYiDQrZaXWb3rEa3yoBzpn91iAOg8UuoIiN2BREj0B/OVzcHbS/Kx5FasVLvOHt0XcMlfKYaLIXccZ9aH8Vd2ICk6FpfLzgBUmqmji0QQfBZ0vexZ8vy5YR/UUt8rToOHQCAai1uv6MHNA3oimcQrsrT4fBNrK4G7YEViUFX7jtY17js6kRGdkqrqFJxxVxMERL0gJoj+UIi35qzlwemb8Lvd6CFJVFS9kviV1pIp+yPdUuoXt8vPdcfUYmTfdkR5vCrPg0iaJYZ0xdbmAAAgAElEQVRCaZQiEQQDP2dc9yLrMkQgVHz9aGkM/Ehsw2X4eXfElZx6bJsKnf5WX4iUzxzpQYUuQil03jHJw+c969AqsWJta0phKk4TVRABlXHRkDwEBtNXbWPw5ytJ9Ym5uRicK4V6FZxVOQw5kvhJQWSSoId49qzGXHt8C5XkSaQv7lKKOFgkgmASYMCdr7NwYyZWJJpTOeDhdGEj4ArB1DeG0LpR3QqFZG6an+MqaUjlCgWmCnZe06vzavdkBrVwUlNXweWr0kMW1YIVCrIyI4/rxv3J3AyPIgvKH80hB4ddWzsks/2rRazB2MuPpmtKIh5J7qSXjsddkQiCOP7dM+ojPvt1lRxXh52AU6F0EXCbJnPH30tyvB3boaLKFb+kMX6tExipovAv7X7FTfLZLjX5b7vE0m7aac9B4KAISOpmv9/PsMnLeWdhJqbkVlAO6hVXCsrFDzUOJUG3IumkK0baYXt/aGiWiUvTOKOxi4+u7EhiTCK6JHYqhVJEggDf/LqEW0d9VmEBj0thzlW2ifg4D3+Pvb/UFr84QMimrPPJJtID4ZBmxWnEeabSISCfk2e7JDGsXaKTkrrSrU71GlDErdG0AnyxLJVrP1lGriGpjUvnUCsOWjIm6X/v5E/SkhzCBb91cjEOByJRsRnkBl+xiaIieMZofp7o3ZQ7TmiBy2WrDUuKaZEJwprULHrd9DxWKRlBFGcxj9RnLuxzEs/f0DO86BXzMuUETRInbHQsUKrpJvygRy2ubHFkpWKvpktZSadlR0s0DZOcoEGvN35jcbqmstyU9DAr3IT3WM9FcuRoouoI968k9ooC2P+pDMvK6M8mD5IbQn5JREcR7VtWOPlg+Cn7w6gYQ7lKQiL5gOq6g/w29AQaJ8agix1CCclLEQmCRT4Gxw96ll2+ik94U7gNUfVrRTJgvnhvf/od11bp6CoqbMiSXQE6fL216oPqzOCgCEztVYfeDWPL9QPnLMeRgIAcqGGCYJmM+Ho+I+dLVlWJlegtF4Ig/cvZrpsRGiAnqKkOfK+mEUWIWjEWzZJjaF4zigbxLuK8XuVCaJoGeQE/qbkW67OCbEzLZ3NeCB86IUkHYIbsKL2RpSxHiYit8rCNO/s2dfPp1cfg8kp8BIlBWfzToogEIYQfF5fcO46FK9cdCTu6UsxRcj2Ibu6rFwbTsVldSQRaYU6OP27Np9f3qZUCF2cQZYOAfGT+6deA9klOrJOyQfhIbVUIgqnCG2zx+Tj+xTlsDbrt23sJDrGioClSAF030STxnu5WboExZj7dG0ZxQacUTmtZmyY14/DqJnIxUxIEYRS2wF6FPDatkJImBE2dLZm5zFmzgy+WZvDj2kx8hgdLGQmipCSlIeYvzPyU54dpYWpuYgnyy83tODqlVjjrY/HtBYtIEOyhXv/k+8z4MxJyuTDDd+qUBAFN8xGyYvjz/XupWyO6JE2V+Nnvtvjo/cP2ErfjNFC5EWgQ42LNhQ1VQKWSlpBhsTrdYmuuRYM4aFlLx10K7ZZ0XM7z5Y2AHK4moZCfmz5ZxCfL8shXquqylIlGzA6FCpjqwHeJa6WuUcubz5DuKfTrkELz5FglKXDrLjvvQcQYQbz1JO9yuCgyY9l5IaQtoQCWSBb8fjZn+Zn27w5en72GtXmSI8hOTb1nBDbJKItiEwQ1OHTL5Ji6bmYOOY5Yb5TKWVTcUgyCYDL6/a8Z/dU/YQOO4nbtPFdoBHQXHsvg7wkPEhNVsQGSpm/2cfYMhyAUeu2qcMX7OyTy9LE1izUDEeUuSjUZOcfgt80WGfkQMkGCvdWMhpMaadxzvJtj6hdf/FmsgR3mofRADtfOfUEZYb/c+UaaxVWsS3FZzLGi2rTVCyabMvLo+urv7Ax698Q8KMOD09bPq4S7eEw3sVomQ09OYVCXZjRO9OD2yKVLPBI0lfhIqETBsl/En4jqIEwiTNOWFIREfWEYpPkCTFq8mcemrmeX7rFDI0sOBZFKlBH4NnGxbSlEreDW8/h60NH0alUH3eUptvqmGAQB/l6+mvMfnGCbcuw2+yyjmTvN2qIu8lk64VG83oolCN9v8XGWI0E4YnblX+fWp3OtovtUPz07yNO/m2SL9ZkFkisqwQtZAfCL+ZIGyVHwxCk6N3cp/RjyxV2gzb4MGk25Qg3w7zNf4+ikpsVtavdzeXl5zJ8/n5UrV5KRkaG+mTVq1KBVq1Z069aNhISE3XW/+OIL6tSpw0knnVTifovawOzZs0lLS+Pkk0+mVq1aRX38kPWV7t+y8JkB7p+4kDeXBDFMswxjIdnHeuR4EjWt2Bec0tDDY+e2pXNKLVwuW7Wh0kerQz/sNljEme8+Ay0TUxkuapiWweasHB6avIavV2eQb7iUtEHyDpd1UR4Zpknvpl4+vqoLcVFiQ1G8fotFENIzfXS9dhTgd3IylPVqCyPUdXQjm+WfP41bxduuuPLjVh+9vnckCBW3AuXb8yl1o5h1dv1CdyoW6g/9FOKZ300lLTi+gcaw41yc3UIn2qORH7SYttrg+bkmi9MsXjzDxTUd7eQzlaGUJkEwDINly5bx5Zdfkp2djdvtVmRA3uecnBwVAyAxMZH+/fvTtm1bhcEDDzxAixYtGDx4cLnDMWbMGFavXs2NN95Is2bNSq1/5Q9goqQH63dlceobc9meH42Y9KnDuUyK5Auyv5USmzHRozG4Sw3u7dWWxCjZb2K6J32LxWLpCP5tQ0F7MqYREl8HZYfw9px/efbXdLblKSWHyspo6mU3cxmC2zBIiNKYdPlRnNi8Nh6XO0yCioZ3sQiCTPyo858i6PajmRV7oy2TvVXJGnXrIfp0acRLDw4uwxeqcJP+JyNAx8mOF0Ph0KoetSS50yn1Cmf78sVyg4u/lE8/XN9J4/XeXkUU9i1CFOZtMTm5afFuNmWFbGkRBLnF/fXXX0yaNEkRg+7du3PaaacRExOjiIDP5+PXX39Vv4Q03Hzzzepn1ZIgqHwLFoYR4O3Zqxj6Q7oyVjQ1W6xfJkUIiS4k1aKBBx47qzmXHluPKD3Kdv8rY7dKIYdS5D0wMPl+2Vbum/YvKzOiMLWQIgplNHNhYnbrmsatx0Tzf+cfTbTHa3szFJGIF4sgyGK3GvAEAcuL2wqUyfoWu1EVAtoOPym2JhE/UK/HhdtlqZSYwZBJIBDAUMYm9n92TCx7ycps4Yo5KVfQz8SXb6FTi5Sy3FaFGp0TB6FQMFWrSscme/mzb4PDzskwLbqMCbBoB5zWBL4fFHVAcnDYhtSXNWwoJh9aMbLSRR58sDdT6oqrmmT/k49g5La0f092sxYhCxW3Xt+nzS35h1AxqNwB4XTcu29kB56NiOrffPNN5KC47LLLaN269QErrl+/ntjYWKVWkHIwghAR0UckLSWVuETE4pEAQdJemUkQhAxYFum52Qwcu5Bft7ixNNE9lfYhGb6+W7YVgdsKUjvGzf/6t6B3mzqENA9R4ZgGJcWvUHtYbWN7b4bMEH9t2Mn1E5fy7y4XIcVRIpEYSvnUEU8RXLi0EC1quJh8VUda1q1hK1PKgyCIZebZ97zLitVbK50NgoiO5EMStKKo60rnlnM607tXdxo2baIAsqyQyi8eCgSZ/ts8xkxeyJL16WTjJVoJowKK3Vamopsm88feSXINyb5X8fQl6aMNZMoX1ilHBAKy49IvbURN76Fv+wu2GPQYH8IXhGmXuOndspjSATH6WrIIfvsZtmyExCQ4pguccArExO4hCkrBbEHWHNgxBfKWgbsGJJ0MdS8BV/xepEI+1gtTLT5fbrAy3aJxosal7V1k+y02ZFl0baCTlJC5vw2C9LMrA2Z+B4sX2eTl6GPgtN4g7+Q+H13p56uvvuK3336jT58+9OzZs9D7ZF+CIG1lZmayZMkSdu7cidfrpXHjxsp+weOxjc/ESE5UAyKpaN68+V59bd++Xdk9NGrUiLi4ODsOgWmyceNG/v33X3VRatCgAe3bt2f8+PFlo2IQgoDFb2tT6f3eIvym5KW1b7il+jVTRnrhbIZAohbk4yvac2rzmupiKHd5XbMxK+pBWegF3KeibQMhmBsYVojFqdmc/cYfpJsJistGwjaVLhIRY0ULN0H+168Fg45tptQqriImcSqWBEEIwn1v/cAn0+ZUigOr4JrUiPdw73UXcMbRDaiTXINAeAdGhSNbKcasSID8wKvO2+y8HNZty+DpcbP5ftEm4skv7n4ok+cS3fH8Pv4OYtUHulRfqWKNt9+P25m8yVesZ52HqiYC17WMY0yP2occ/DO/Bnn4F1MZJKYN9Sqbg4JlU6ZJmsTFOUBJjIKmSRoufz688AT8PAOCwT1WZvKBb9EKHngcmv/HbsHwwb+3QerHYBZsWIfoptB+AtQ4TlUVV8sRP4d4cZ5JXoEYbzW8EOOC7fnw4ukuBhydvT9BWDAPnn8Ctm6GsMU68qFt3AweeAKOarfXjILBIC+++CLyu+jzI9KBwqx8QYIgB7kYN3777beIoWPEWl6IQUpKChdffDH16tVT/Tz11FPUrFmTO++8c69upk2bxs8//8x1112nSIXUFfLy559/qj9LEZG7tBMVFcWWLVtK3QbBjpxo8NSMJTz+ayamGQ7qU8Iof/vhGTEBcIWIDWq8ckETLj82RZEClZtAERI7KmJ5F3vtLAzTYPaGdM5+dyGWFY2BSFPMUv+q20RJ5YVmQAs37112LNEuDy530UwCikkQ4Nlx03hj0tzyxnm//jTNbxN43UXf4zvz2PW9qJlU9KQzwvD8lsb8ZRu59pE3CGixBd1fK3Se9eNczBn3IJZWXuFEDj3dOdv9nDhtW4ViIp1f2CSGKF1jU57BL9v9FTIecS26qmU8vepHE+PWWLAzwKsrsskKVi8JSy2vTuoljVRSmIOV/34fYPR8i6aJsPbW/T0f7psR5K2FB5bOHddAY+IADwlvPAOTJ4I3Ci68DNp2gPQ0+GwcbN4ILf4Dr48DIcvrnoS1T9gqhYZDbMlBcCdsHG1LE6IaQ5c5EN2QV+eFuPsnQ7laDjlGp1dzjQyfxag/TJal27x79OkuBnbchyD43PDQnbBuDbRuB5dcCdExMH0K/PwDtO8Ej4+Cmnus/uUwHzVqlLItuPXWW9Wtv7ClIEFYsWIFH374oZIM9O3bVxkvimHjH3/8oWwXxJBQDn6xUH/88cdJTk7mrrvu2qurqVOnMnPmTGX0KAThu+++Y8aMGUoKcc4551C7dm1SU1OZPHkyO3bsUGSh1IwUwwe2iUFGto++7//Bn9s1DDxYhMKOhaVxWIc9FpRcwsRlGdzWJZkn+rTH65FATJad4VA5GZZzDOQCqxFx8wwEA4z7cyN3frtJnTn2pU+kGmGdeGE3yyHr2TGjpcWmsQbTru9Mq1oJYW+Gwhu6F5sgfD13Lbf/37ii2jyUytQLNiIEQXe5uOWyvtzcpzOxXo8S3RSnCJiiK1qzYTt3PPsJK7ZlF6eZUn+maXIcs8YMU24yxZxaqY5pS16IhhM3l2qbRW1McMi8rDHxHp3JG/LoN3NHUZsocf2UGJ3ZZ9eneYKdGEXKjnyDphM34atcWqoSz1X09TsvaUyi9+A78P9+CTL8V1uCkPFfL559giE9/GOQdxbtDUy+AZlBOK4+fNdjM4l3Xws52TD0QTj3AhDJgchp166C+2+HtO1w01A4/zSY0wrEBqrlSGh0O7ii7bq+tTC/O4TSodlw0us9yqnjgyxJh3u76zzR043XJepGi8XbLc79LMjG7IMQhGkz4e2XoUlzGPk61K4D69fCxA/huykg0fLuehD6Xrgb49zcXJ5//nmSkpIUQSiKi1mEIFxzzTVMmDBBqQEGDRq028tBOhG1gLhDLly4kEsuuUSpBwpDEIRgSD2RFAwZMkRJHCJF1Bcvv/yyart0CYKI10PM25jGmW8uIM8Vo261pVvCh6GsvUuney2T8Vd0pmmNBBUkSLO0Ck1wV3Cuor42zCCZfoNrJyxg6lpb/WIf5aVJEOxepe0oK8CHF7Xhwo710HX5VhUe/2IThDR/Hl0vGVVhEm9dt2+MMS6dSa8Mo2W9pFILP6yYHhZPvTWRd6avRFcOKxVRbF3Zzeccxd03XKgCYFQY4AWmLyLD5p9vZkNBWW05w1PRBCFKhy0XNSI5ytazf7Ehl/R8k9R8g4cXZpYzGuXT3Wvdk7mlzR6f/X17/X2jwWkTQuSHYOYgN6c229sGwR+yCBbgB/I9f21+iAdmmQxorTHO+oKYt56D2nXho8m2YWKkSOWRI2Da19DlOHhoECw4FdzJ0P1vJSXYU9eE9U/Dmoch6TR+TvqSfl9EiXE3a272UDtuzwdS3vXrJgd5f4l1AAnCqxw96iX4bRb0vxSO6QpTv4I//4BgAFIawRl94Ox+UD9ld/f5+fmKIIjkQLwT4uPjC71AEYIg6oO33npLvf9Dhw5V9gYFy6pVq5QR5AknnEC/fv0KRRCEqLz++uvKo+Kiiy7ab0zvvPMOa9asKXWCILr3N39bzdCpW+1EiEXUgx8evMht2SJeCzD2wtac064eLrdkiJQYMkU23j98l8WsoQiCFVRGm8u259LnnUWkBlxhW77SkKbsPTBbpQ43dorhlQHH4FZZHsucIJhkm3DMRU8rnUqFFM2vDC6eu3Ug5/Vsj8tyK7VgaRURSwUJ0ef2t1i1aWdpNVvEdoQgwKwP76FxTMWmQ9134L+m5nPS9IrLyVDRBKFPSjTfnFFPvdhikzFFbDIqQLdZxA1VouqdkjwsOK/BQXW4cgB3+J9fiez7tbJVBvtKEQoOIDPfovfHQf7YYvHc6Tr/Xf0h+ruvQvNW8PbH++P55mj45ANo1xEevxQW9YGYltD1D/AUCOwjZGL7RFhyMSR255vYb7n4m3gk3tPSm7zEi0FSgXLvD0Gem2cemCA8/jQsnCeKehCPiqhoW+3R72I4qSfsc3BLs6JvfvvttxEPhSuvvFLd/gtbIgThwgsvVIe5qA1uueWW/TDfvHkzo0ePpmPHjlx66aUHJAiyN0XFMGvWLKViEMmGqCxOPfVUpbLYt3z00UcsXry4VAmCxD4QT47rPvuL8UsDaOJpUgYSBGW3r+mc31xnzKAuxHujEKWCMlqXUvpnb2GXdJ96djRJ2+3TZPjkxby8IJugIc6QZWAfIYabmpuu9UxmXNuVmLgo3EVwdyymBEFIgYv+j0xgweKVxQSqZI+FPHDe8cfw+l39ivRdjrj1FLb3P//dzDXDx5KXr2No5a3nDuF1xfPvxHsLO9xyqScqhkE/pzGrgvT+MskKJQiWxbiTanNFy3j8hkXihA0EqplK4WAbKW9QY2LcB2fi//srxG3fG+q2/sDxOg/1cO9nrCjvoEgZ3vjTYNhPBjFumH+Nm3ZLZsD/PWIfuuO+guQCh34oCA/cCfPn2N4DQy+B+ceKMxt0mwvxx+whFIYfll4KO76E2gNZVHscZ36qkZ4PC65x07H+HslEwLDo92mA6esOomIY8yF887ltE9HzLLh2CNQLu3zm59vE4QA2BkuXLmXcuHHKTuCKK65QrowHMo4Tm4KsrCxlC1AwUJIc+nKjF3sGsSuQ5yNF8Pv777/VYS8eEmeddRZPPPGE8lK49957d/cjRGXixInK0FHUBmITIZINUUlcddVVe41H2nzttddK3UhR2s0Lhuj20k+syIjGkkRJpXxay2HrMXS8rny+HdyZHo2T0FT02Yh+v1w+i4XuRPlayMFtGqzNzOesN+eyLldyQJSB46dIbDSN2t5cFtx2Cg2SolU8hMLmZygmQYAQIcbP+IdHX/06DEz5UTTR1LRv6OLbVx46LDtUC4GGPxgiFJLoWhILQSfK48GlLFsjTRxY/yPxtb/7fRFDnv0CXSUWKc/ipmFCDL+O3dvwqDxHULAvdSPZ4uPcGUXT94s4vm2ih/Y1Pbh1jVSfgQRcSs0X/2ARD4o1jVjdaiS4xajGTdNEN4keXRn7rdgVYG2O7Lg9e+xwBEFq1vZqtE3ykhLjIjNosmhngG35wt73I/XKX/+oRDedanrwunTS8g2WZASVAaTy6AyH12gU68KtwbILUoh264ogtP1yszoQdwZMsqWyJXnkNdVvh5oeanp1tvpCLN0VYod/T/KWyCjqRunEuDR8hqV+Xser0zDeRSBkqXnnFRhwnEvG6eE/iR7lx78932BlVogtvhBBZfBkxxAQU4EW8R5a13AT7dJZlR1kRWaQXHHjL8GruuPiRtQWI4NDlBumBHj3n3Dq2ZYaj/Rw0baOpqQJIQNW7jR5aZ7Be4vtdDYjTtK5v4cbd9AP118MWzZB1+PhwSchIRGCIfjyU3jvNfsW//xb0L41zO0A+RugZi9o8w5ENQTLgB2fwdKr7Im2/xSj9kD6fhpg2jqLY+vC1xd5qBunIXEb3l1kMuxHA7GFOKCR4rIN8Ni9EhIP7nkUep5pk4LsLHjhKUiuDVffBDWT90IkFArx8ccfq4O8TZs2KlqihFeOkAR5lyS6ongZ/PPPP0pKIO6GDz74oDJGvP7665W3wZw5czj77LPVrT8S4EeiMI4dO5atW7citgpCQp555hnlzvjII4+ofqSkp6crNYW4SQpBECPF5557ThESeU76kfHIWMTW4d1331X2EqVlgxBxqVyTnkuHV2ZjGfGE9Ei0mZJ+xfakQDKVjYHBGbVCTBpyItFer8KqPMIaF2cWdsRFiQ2hYZl53DJpOe8vzCKkHC32ZI4sTtv7f9ps2wYXPr6/ujOntKqj4gNpeuG8GYpNEGSSn81ayH0vTQx/k4oer704AAiAHpfOnLduplbEyOaAHzxxKTHJMU2GPfMhc5ZtIBAIKR2MblokRiXwzH/7cvLRzcGthC4H/HKqSFiWxeBH3mXmUjuCYPnFSdA49qg6THpmSHGgKvVnnli0i+GLiqZfrxuts6Z/Q+I8+986JejS+T9u58dUP3Fujc0DG6nfhUTsTUwgI2DQ7PNNZIfj1BySIFjw89n1OLFu1F5W9/LBWpMTou1XW/bShce7NTYMaEiSd28Rn9TPDVmc9f025qQF8Wrgu6LJfsF1ImO9dvYO3l+TR90ojVUXNiJhnznLPvo5NZ/Tv9s7VPVPZ9WlZ/0YfkvNJ9at0SnZu/sg6f/jdr4U9YVlMaxdIk8dW5OofYz/ZJy3/7GT1/7NUTreNjXczO/bgLh9bvpCZi6atYPJG0UdUrztsWlgQxrGHvrjIqTv4Z9CPD/PVORKCFWiBxKiIcsPOQEQJw8hMXd20fm/09171vyXH+HJB2wXRyEHrdvCti2wZbMdDGnA5XDLf+3BZ82Fhb3AyAV3EsR3hMB2yPvXNviqezG0fQ9cMczfYnL+xCBbciHeAyc00EjNs5ThosrKezAvhviG8MpImPK5TWSbtbRJwYolNklISra9GDocsx+gcpB//vnniDRBPBFEHdCwoW0rIYe7iPMloqJ4FMiBLbYKEYIgKgHxKhApwq5du+jUqRNHHXUUYt8g8RUkEFOXLl0YOHCg2isirZD2xP3x+OOPV2qO33//XT0rz0QIgtSReAdi0yD2C/Xr10fUFVI3EoyptAiCqJ/Fg+HLRRu57PM1mFY0aELzS0MXHCEIujrwdN1i/ICmXNCpsVIt2AGwirnJi/dqFOEpkSDYQZSMkMEv67cx8KN/2RVyq4RLdimdsdtkRMdFkIdOTGL4OZ2Uise2Zzt8KTZBkKYXrkmj/90vlitBcGs6/2lSh6mjbzrk7PxWkNc//4P3J80mNyeEpQexXHaIS0MsaS0DScjZsUktXnjoGholxx1024ra7Nfla7niEfHa0MuVIJxzUhveGLa/QdHhl7Z0a9zxx05eWVFErw7LYvsljakT7VJGOd9vySfPMDmzQbQ6vOTDdvK0bcze7kekDL7Lm9h7CZSUQQ7nhrGu3SLt9HyDBp9tUofLQQmCZbHighRai4O7eDoEbBdIySkgB7b0OS/NT/dvtql3UNrZcXFDkqPd6oWduS2fNL/J6fWjSY6y07r+Z9Jm1uQatIxxsXKg/YEveBOMIN15ylZ2+k0WntdAGS9GCIaoZJrEuZXEQcqSjAAdvt66+xsQIQgFV0xFYJO+v9jM6myDUV2TGNbevhnKz6SfXMOkdpRLpWSW4FVCnk6s42X2OfV33wwX7gwo6UbnWl710ZRne3y7lTnptg98Ucuq/im0LOC1cbDnRXT/+yaT1/40mL7WIrOAdk5UCqc30bitq4vTm4touMDHUPzFF8yH99+wgyVFPphiBDjwcji3v+1mqIAwIfM3WDscMn4JR1KU8CZ1oNHN0ORecMXtxuyvbSYPzzT4bq0YIdsBGvu21EjLs/htqy1BuLhTDm2mDVEf0Tk9n6FdjSaQm2O7Xk78yPaikMNHpAidu8M1Q6Dd0fbfD1DkcBYpgkgCNm3atFeNunXrqmRN8kvUA1JGjBihgh1dffXVaq22bdum7Agkp0Pkti/qhh49eqikShKeWYoQDbEhWL58uaonN+h27dopwiBxECISA7EHEJIgkgshICIxkLpCFsRGQRJKSd0mTex3sSRFvBdkDo99t5ynf81QIYdLL7Vz5CA1sTSdFK+PxfedRpz4+rsieRZKMvqyf1YRBAxChkmvN+cwJ1Wi/8o+CjPWUhmCTUZErXNB4xATb+yp9mph1TwlIggB06LtRc9gWjlYVvlIENwhF7dd2pmhl/c5CHwWftPgqfenM27KgrB16MF90l1WiGhvNJ8+fz3tG9c76JIETYvWA54GLRgOslQqq3fIRkJueOPmMzjv9BPLvrND9HDXvJ2MXlZEcgC0TXCz5IIU9cE6ffo2ftoWDkClaeqWfXq9aD7ZkGdHVbMsjqsVhdsFv4ptQ4GUqg8eXUPdnOWFavL5Jjbl2WlTD+Tm+GjHGjzayRbl3j1/J88vydo9s4c61uDJztIOXPNrGmPX5MsTJcUAACAASURBVHJMTTG8sy3QRVIgJMYuGjW8GmfWj2bihrywGkSdStzcOoHXT7D14wkfrifH2LO/PjiptoqLIITo/BnbmbK7PYt3T6jFtf9JUPP4v78zbW8HDQoShLXZQa6cnc5v2/PVHUI0tuc3juaL0+qqOa3PCdLtm23KnTKCkfqkWJYiQDsvbaxu4/mGSfPPNrHNb+sn6ka7+Ld/CjW8LrICBnU/3UT4R0XaW0v7pdA2aW+L+oM1ELE12JFnsWGXxS4/1IiCRokadeI04kUkc6AiCySHskgOdqRCfILtMSC39f2y0lkQygLfOvCvAVcixLSBqPqwj0pQJAV5QYv1mRbrMi1S4qBVss5Fk4J8t87i3T4uruqksy0/w8YsqgaeiChWVBsZ6bBxA+TnQd0GUL8BxMYd1jhVcJADXFQK4k4ofxc1gPySwz6iOpA+RR0g0oYIYZC64noo6gN5Vm7+Yq8gSZ72dZ8UMiKHvqgQxMVS6kmRf5f2pF0pIl0Q6YbUFRsICeQkLo/SjwRPKli3SJtj38oSPdAMMuijBXy+0q9E6vabVfISSYyka3ZWg5PqBPnu1p5oKrVx6evySz7iA7cgEhaxRbh78j+8Nj8LwxKlW+kSBIW55qJbkp9f7zpFEQS9kD5/JSIIcgc58aZXSNuRi1VOORmiDT8/vH0PjepJ2OH9S8g0mf33eq5/4mMscjBNuUkefEt6TTcBPZ8TOrVk7IgrlYThwFTH5JIHP2Du8s3lJkGQeN0LPribOvF7DJTKaqMerN1nF2dy/1+7itXtwCaxfNbTjjF/9ewdjF0tB23Rm2qb6GbpBfbNfdCsHUxYn3dQgrDuwhSaxntYnxNSt++94hVZFhsHNqJRnJs3/7+9qwCP4trC/8xKNu6EQHB3lyLFpbgVp1CjpYVCCxRocashj1JapHgpUFqcUtzdpcE1CQRCiNvuzsz7zp3dENKE7JLdTQJz30tDdmeunHtn7n+P/OdqLAadjEJdPy2OtZGdzr44+RSzCQhl0ccxFdwxvYYPYg0iPH+/n7pBkHowqlchtglfidaj/KZnWgKqnyhbDO/IWfJCE4wo9JfMJWEGCLTJN94RjkOPn89v8lsDX/QpLofKBa0LQVgmJAvNApywu5WcebHD7kfYkgpOZJm3D9Jhc1MZBJfZEIbrZnuNFVNiDUCwolq7X7r6shGLzgvoW1GF96o+M5FciRDRYo2BMTye7P+8A6PdO/WKNyCJRggc0PKXEzgYboAkvsTDn4mMZIBAXgZ06hYxrak/vmhaFjyXe1KHWzS9LG8C8NfFe+i37hb0sAx8W1Q3u4hq58HzIorpOFwdXZ8RMnGcZe1kCyCQq+LE3w5j+fpTkCTHUO+WzO+GXb98kek7PComFh1GLMHdqGioBMvsLCRGXuLw/ecd0blR5YwzdkvAXztPYfj87ZbPTTav1Igirm+amNV+lc1WMr/9foK8yb6sh75alJD0ThF2oqXNb/eDJCy9mYBtYUmIo507g/dFy0Adavpq0buYKzw1PJJFCVdjDGhXSAZJHx+NxIKb8ZkChOQ+hZmNntJSL7sZ/5/BTa/uzQCCOStloI5H2NtBqSYD8317wpPxgLwD0/dRkvBnY390LeKKm7EGlNr4ILWNJgFO2GvaoH8MjsHQ0+mAlSRhQV1fDCzjjkSjCPdV91lGOzNAeJwkIOCPkOdPpJLE+lfARY0TESmo+zeBjoxftKMruOObGrKz3IhTT5kDY9oSoFPhh1ry9w22P8SRCOsTreVVgDDlkAGTDotwUgNfvaFCwyAOIXESvj8u4OIToFVRDn911cA1M62G3Z6yV7diyntjBI9asw/jUpTANvQs0beF4jCn2KPzthp6nB1SByX83aBlyZgsrCQ3XMY4d0TciU7AGzMO4wkyjnZ5+a7KHtYcJ8Bbo8aDsfWh5gzgODoGZy2obAIE4OCVELzz1TITUnn5YVh6Z5t6FfHTyC6Z+gvsPHMTH09ZA5GzLu6MFzlULB2EP78fAG1GK0wELt9/gHaf/2ppV7N9nbNWhfNrv85Eo5Ht6l9YQZJRhOfqkOdP4NY2KQFTq3piZEXP5+zM5D2+8nY8xp2PYVECVMgMPbGKJ8ZWzlgzZG46K4Ag9MvciTBt92/EGlCaNndJQp/irlhaj3KmP3tgqI87HyThi1NRuJrmpE1XRPeUGQWDo/WoQL4EptK3mAtWNpQ1JsNPPcWsDMwyw8u5Y0YtHxa94fL7feYsaQYIF6P0qJLGN4HqofYotJD8F7aEJKLDvswjSP5X0wtDy8t+ClmVJjvCsf+R9WG71zsVYBEUea1QRMiHfxuwOvh5sibyQyjlDfzZRYOK+Sw/UOS18edEf0l1ThqEkt8cAPnFUv4b2zgoypE6LGCSB3zUBtz9qjFc1GSszFsaBNnhXWIHhtozDuBavAoigRxbTZgpio/yPbjyEsLHN4AzT06clskpWwBBkgT8e/sB2o2YDzhoG+vXqDymDOuWqfgmL92DZZuOIkUjQWPyeLdM1hy8vdxxdtEwRu2eUbn3KAqNB82EJFnOrW5Z2xlfVdDPG0cWDclOFS91L5mAf74Wi8EnZVtsdksRZx7LGvihoreWOf6ZU+zqRRFVNz/ElVgjuhd2wdrG/sw+S5qLD45E4myUnoX/1fbRYn0zWTVuKUAgFT5FLGRWyFFxxJlnJ3w3FbD6TX/U8nOCn45PjX4gPxuiTg4ntT4H0HVxfYqwalfcikf/I0TkL5fexVywygQQRp55ihn//tdvY0R5d/xQ0wQQVt1nAMwMEM5GpqAGOU+mKfSiSDBxD2wNTUT7vS8CCN4YWl7OQ3LiSQoLwcysDDwaiWsvYWK426UgirhZFiKV3XVjj/t33xLwwwkBofESPLRE6MTjk5pqeOps9kq2R7fzZJ2iZIRe5FB82n48MlDqQltqEJ4xExfzEHH587pwUmnBWeGAlzuEKoc7GkQBby08igNhgolw2UZg1ZzAipPgBBGhExrCk+OY/4olSauyBRBIwFfuPECLz3+GmnPMpvlus8qYMLhjpuqRgd/8hT0nryMZBiutORyctGpcXT06UxKJ8KcJqPvBTNms44BSv2pJrJrQ2wEtPd8ERRDkX/e8x7VNOiFJ8HPisbtlACp7y6F8f91LQLf9EdjaLB/aBrmANBceq0Nk7gFTKeaqwu2uQeyvrABCcp9CcFLxWHQ9DgOPRWbpQPafcUmAt5bDsnq+aF9YVvdFpgjwWyvLo4G/Fofekn0WSqwPxe34Z2r8tP4Mi67HYuDxdABLkhiA6F3cFRTiSf4LaU0MGQEEOind71YQhVw1puiLzE0Moyq441uTiSF932wyfxRd8nYQ8lH6Q6UoEshCAgQQYlMklJx6AFF06mLPtG2AmNlJkWqrFqDF0U+qQa1S5z0NAiNNolBbI/qsOoP115NNuRlspEUwAQSJk6CVRNwd3xB+PA+VSo50yapkGyCEPnyM+p/8YnHYRFYdyur7AU0qYuJnnTNdaKPn/4OV/xyHltNDgi6r6tJ8r4a3Ngln10wAl4kKIexJLOp/+D8r6ny5S2Vkx+HTDtUwYkDbl6skG3f9cDkGX76kY2JGG25G74R7XQqisBvZ1ZNR9+9w3O8ahEJuakSlCPBZ87wd3hqAcLNTIEp4aNnpOf8fIYi2JKtiBhxZNANbGvuhbWFXlp7WadV9BlqmV/XEGJMZRLPiHtLqKMhJkfIz5HdRg6IRim945p9AcqFQzsQ+sgmEOSlSwqs0UQwZAwRgZX1f9C3pxrQrlTY/wL8xGWtGGvprcdAEXr65GIOvzr+cc+mLlg6ZVzxfkLApG8tOufUVkwBRCj9KSEHZb48i3kKveUtFYHZSJIe7Ovl5HPiklpzWmVgQ8pATgnwOogRORny45jxWBCfKUXK2Sjop+3IydYtGNOLO+Ebw1fDQmEJhs5J3tgGCXm9A2V7fyjm+HVDeblwa33/WI9NFsHLXeYyZvx28SO4xlveJEzgUDPTA/vmfQZ3JArv94AmafPqzjTBw5sKSF7iEHwZ3QremlR0g1WdNxBlEBP0ZapN0xW/6a7G4vh/GnovGH/cS5HBGRtINPOkRBC8nFdbdTUD3AxH4tZ4v3i/lztjtym96gOuxhtTQwmJulmsQ+hdzxdIGvmx90Ibb40AEbqZRpZMGo32QC5beTmB9ofwC25rnw9dno7DydoIcisUB7moOVzsVYM6BEUlG5GMaFQ5L6vrg3dLuGQIZqm96NU+MqeTFnDL/FxyLEaejGNWpmpOw9k1/dCkix7u33hWOHQ9lH4AXmRjo+7LuFMUhh4vG6kUWEbKRjLqmUtFLg8vRBpZumpgOXTUy78ToM1GYfSWWpThmcuc4NApwwqVoA2NstLa4qDjE9S6UKVGUtfUp17/aEiBisEcJyQwgJNgYIDzLfCiibqAK+wbVhIpzkmmE8yhAGLjmAgMIbCu1FUAwLTGW8joVIKigYVQedtcgyDSO7YfMwqXQRIes9rrlg7B8Wl84IWOTxvUHT9D6s3kQBC04WEEGI4no27oWJn38FuT8X88XmrQ9Z69i8KR1SFFZDjxeRig8J0ENATsXjUZRX8eGOG4PTUSbF9i5rRnPyTb5mU2fCsXtB0cZQHwSdUykRXQibrLjEcvpUJ8R/Miqe/r8zBM9o0cmZsWSHppUet+sTAyECTc08UdHMg+YWDDJZEJRE+T/4OvEsw2T+RUkCxhW3gOzTZ79tPmSo2CyUUJ5bw0DB/SSa7YjHAco9JCIlFrlR6P8Oux7mCQzIqbTmHprOGZCqe7rxMYRliTgfrwRZT01qZkfd4QlofWeZ2yKWQEEGhM5cI438Tswml6DhCi9yGic3TUcOuyNwNawJAYmLnUskMpMSM5PYYkCcwINdJZJpxZdi8PA40+t1vYSk+OMms9SBFuzFpRrXz8JUBTD0yQJpabtRyyvMXFe2djEwAE1A1Q4OKgGNDwltMtrAEEOcxQEA95ZdR5/XE+W5WQrgJDGB0EtCbg3/k34qXiWZsDuAIEUncSO9ePyzZi38aJDngAPFYcjq76GO+lrMygGSJi8cAdWbTkFUW35Ru7v7oK/fxoIfw/ZySujMmHRdqzYchaSyr4ZLEWeQ5Anj4NLvrY57s5qkgYdj8R8ouy1QfHScCDion4l3eCTjsaYQvqGnXqK1XcSUv0EuhV2ZhtQIVf1c6dU0ioQ5wCFO9I9JyMNbF+m07Kbhse2kER0PfjkWY8lYFh5d3xezgNBrqrn6iKAEhxtwHtHI3H2qR6eGg6jK3ow7QWBB7MDJW3CkSkipl6MxpyrsjxoxcX2KsRooym9c5f9adpMIy8a6zfVvfBOcVcWcmlmwKMN/ccrsZhEdNVpTjk7muVjoOPc0xS8sT2TDJmShAEl3EBkT8Xc1alOlGa2xqkXovFdcBw7WBVyVeF/tbzxVkFnxrKYlvUx3iBh1e0EfHLyqRX6NXlw/3YIRHkvx/ga2WD5KVXksASIGydJVKP4lL2IEFR2cVKkZ7KcN4czw2pDzQDCM5bTHB6+hc2TkyJgEI3o8OtJ7LlPQY+i7bQgaXwQnDgRYePfhBdH0R8OAAhmCdwKCUHTT5eCU9GJ3b4hUBposOCrDmhaq0KmE/AoPgmdP/sZodFxjLryRZhVLfAQVRzGfdAcA9rUfnEq2x4zIOkTkOQAFVa90oWx4rsBDgUIhFxLbnje8c7CVf7iy6heDzUa53NiuQYovI54CEj1/p8iySf92n5O8NLwCEk0MvV5DKnE0+VoMLn7Zt420fE786jtq2XUzpSw6N9oA5LJuz9926LEfCCa5XeCl1bFogCOPyE/lmclwIlHeI9C7IPvL0dj1NkX5KWQ5NDNWr5aFHVT43yUHtdjier7BSXjfGHP3yABXlqOyYc2/8vRekYKJWSwykmNWN5Lw5I7kVPkuad6PKSwUvYWtW5myeRiZmm07k7l6tdVApJogAAVin+7F6GJtJVTmKOtIhnkJHx0BgzQCrg2tiF0PLVgWfhebpkTc2bHJMGIhnMO4+JTJ4jEU2DtA5rZgBhAoJTPElxMYY4uBBA4mWI7q5JtHwRq4El0HGq9N4uBA1Ir2bOQCqlRpSAsmzQgw2aI3doIFR5EJqDn8GV4GE2q1Mw1CRoNhxYVgzBjdG+4UErXTEpEdCJq9/8RnCBB1FhhunhJYfRuXRVTPuqQMWnTS9aZ1W234wwokc6xLqt7Xqfvv67oganVvZl9nxwpYyxxgHxFBFTZS8NyTOQm+645XwXlF6DsiUQhTC89CuEyh3FZ01+6n+qhH7qPaI0tDQfL9P1MfPuCkO168uIykmheOA7VZh9EcJT8DrYZQDDF9xMI1kp6XPqyHoLcdVBx5KSYl6QlZ6h4nJCCat8cwiOJIqes9w968YiZEQNeOg3CxtRhfhpkRk9P1Z1RHTYBCIlJyajyzlSokpyRrLGv+p3jUuDv54VjvwyGipIuZVqMLCHc2MUHsX73SYjGZEgqExe5wEHiJZTK74TvP+uJKqUKZCosgju8KGDupqOYvWKfQ1aeSuAwa0grdGxR2yHtmRtJbxt3aOO5tTFTsiB6sZ1plx/VfJ1YIim7hIHmVhkwR8oANM5vTVSQ/QZjzjpIuQ3Onz+PQ4cOsdTGtKnTJk85Dij5UJ06ddi/szopUX2JiYk4cuQIdu/ezQACfUbJlNq1a8eyKBJYsAZs0OipLydPnsSOHTvQsmVL1p+s+mI/qTm+ZkkQYeQENP3lKI49kn2LbBXqSHWRbpje45xkxK8di6FPjcJQmyLQrJ0rx0vH3CIZFCTsvvYQnZdfRjL/oj3tZXtJ1MpAkJsat0fWZRpEPl2eksxqtglAoAiGKu9MgyGacwhAoMGOeLsRBvVsaUKlGQ+PvdslCRHR8dh1JhinL4UgPvoxSpUujUZ1K6JCUX/oyGEjTXa+jGoKjUpAi4HfIMnoGPsr9WfNd++jVmk5/4CjyqIbxB3w1FHN5fp2CruosKlpPux/lIzeRV1ZVkpae5PPR2PCRevSXuf6wb6ggyXc1bjZ2bFr8UXyog2c0hP//fffbDOnkn5DoA2EkhO1adOGpT82JyrKqF5KhLRs2TKWOZEKJTqiegmAUL3Vq1dH586dodVa9/xTdsRFixax1M7u7u4YNWoUAxqUEImSN9G/zdkY8/L6yLTvogRBSkG35Wex5Y6Bad7YXNlAfZ42zJEUBu0Djfjj44bgOeJXIWtkHlEjiBJETsDUHRcx5chTlqzJZlqW1IkhaYmo6m3E6c+bmACCZWRnNgEI1Pyouevw1+7rEHhbq0fSLz+5fso4u3T6u6hRonAWyJ4ldjVldZTrorXDlipRf2axjsg21Gf8Spy+eg+8mLXNxhYPulpKxJk1U+Gps2wSbdEm1THxfDQmvUYbX1Zy61XUBb+/KVMnm8viG3H48OhTU2xxVjW8Gt/PrOGNLypk7rzryFGSun7z5s04ceJE6jNNJ3XavOmHMhLSj/mkTr/79evHUh9nVAhI/PHHHzhz5gzy58+Pbt26sSyI1M7169exdetWpl0gTUKDBg2s0iJQv3bu3ImzZ8+iUqVKaNu2LesXpVv+888/UblyZXTp0sWR4nNoW8S0SwmbRm4JxpxT0RDpKEaJgmzQC7PRWA4IB0rrEnFuVFOoOJ4RJuV2gGDWglHKciMkdFl8HH+HGJjyX6Zftu1eQ3t0q4AkbBvcUvYCcaQGgSZo58lLGDx5Mwx2NjE8W1sG+Hi7Yu//hsDLQ44tt2WRAzglTFq2B0s3HmEOdY7ijytb2Bsb5wyxiubJFmOnmP2Zwc/SI9uizrxcR+MAJ3Qo5IxS7hrmZHj+qR4b7yfBvka03CWx4m4q/NuxIHOIzA3l8OHD2LJlC+sKvWQpVTFt3EWLFoWTkxM7+d+7dw903aNHj9C0aVM0btw409M/bf4//fQTS6X80UcfsXrSRn0QELl79y7TQhQpUsQqgEB9JG0BaRLc3NxStRgXLlzAqlWrmGaiZ8+euUGsdumDKOkhSBxWnbqND7fchyA5ARzLoGDT9kgx4aQSsOP9inijkC8DCXkFIJDH3JWIWLReeAnhet7kLmeJt7J1IuQg4LMqzpjRrTo4ScMoqS0pNtIgAEkJBtTs/x0SKem6A4pA/v1SChqV8cay6UPAqzJiL3i5jpBNiFDd9Zs30fmrP5FsMLIlbZlIX67NtHf1al0TUz5q49AIBmpfAQgZzJ1JLWq7wOTsrw9H1jC3tjcGl80d2oOYmBjMnTuXqf6pFC5cGL1792YmgbQmBgIO0dHRuHLlCmrVqsVU+ZmV2NhYzJs3D/T7888/Z34HaYvZhPEiE4W182EJQCBgQaYPs0+FTqezGpxY2y9bX08aBKMk4kJYJBosOA+j4AJRZRsNQtq+EvMgzwnoXljEknffgFrtRHyKjBMhdxaiVxYhihwEKQlTd9zAN8ciIIlqSBZu3BaPy/T+UnFGrO5RBp0rBoK8NwhEWVJsAhDkhgTU7DsXTxIcewJVGTlUqlQCP3/eEYF+2U+VSROnB4cV245h1uIDiONEEMGEI8u0T9qhV7PKkNeK48wME85FY/Kl18e27sg5zYtt1fDR4ETbwFTOhZwew8GDB7Ft2zbWDbLdDxs2jDkhZschjUwJ5Cdw+/ZtVKhQAR07dmSAI7NCvgMrVqxgPgVkjkjvl7B06VIkJyczp8QSJUrg1KlTzHxB2oJy5coxzUF8fDweP37MtApmQEI+DvRvAgTkLEnOjaR5ILBDbZCjZIsWLeDxAp6WnJ6fjNo3Uj4GgxE1ZuxDSJwrJDJBZ2XXtXIgLOBRAgLVydj7aR2U8HUHmG+ZrUIqrexQFpebQxshCXiSpEfrhWdxMcIIgUIPXxBx91K9YNEegJcqBcc/fwPFPd3YWYcAgiV6HJsABNkelILu437HiX/DmFemOvXk9VLDsvgmjobPcfBz1WHu2HdQq4wPeIqFZTVYhpJkeCNTAKfoEzFuwVas3XsDFDJpXS0WdzvDC0ktxoki5o/pgea1y4B4xq0ZQ/ZaBxZej8NHxLCnlNdeAmRRON0mEFV9rXPMs6fgyJEwODiYNVGyZEkMHDjQJs1dunQJa9euZeYA2owpAoI2dDJfpA8Fo819ypQp8PHxwdChQ0En+7Rl4sSJbGMnvwfyMSAfhD179jBTB0UxfPfdd2zTN4domn0lPvnkEwQFBTFnyatXr7J2CajQ96TdINBBgOKLL75gv/NGIdc4EckGPXr+dgZbb5L2wAiWo9mGRY5okKDmgY+ruuCbDtWhVclmhtyoRaD+spyNoogFR29izM5HiBfJ9CL7aNiycKSp4HhU9Bax76Nq8HRxN1G/OxwgAKGRcWj24QwkU9IM0TGmBrMwjZIans7AyH5N0LFRdXi50MnbMtpNNmGigGthURgz63dcup8AURDB2d3h8vmloBH0CMjnhd3zPoOT1vqwquwurH/CkvBWGgrg7Nan3J93JbC0ng8GlHTPVQOYMWMGIiLkdNfNmjVjp/S0Zd++fcyxMKNCz3jXrl3Zpp9RIcfBDRs2pJov6Bpvb292T7FixZj/AGkqsgMQWrVqxZrOyMRA/Tt69Cg2bdoEFxcXvPvuu8zngQo5Xf7888948OABqlWrxvwWsqM1cdykigwIiRDw3e4bGLefUqMTUZdtAQLtNLSvqiQJ3toEbB1QHVULeEOl1kDFO8pzzHKpktaK5PIkIQmNfzmOGwlmlknbyoV6RNIHp0KvEjyW9K0JJzUBfss1KzbRIJhFQ8qMWcu24McNpyGonKBDFIySY+yXMu6SWHwnDb9Afh/8OLIzyhcOAKfi4UTIVRTkA7nkBFEUwKs4PImIwZJ/zmHR1tMw6JOfJRm3fL6zfaVGr4fKiYdam4Qji8fCw9XTIvVPthtOV8HNWANKbXw+A6Gt21Dqy/0S6FTYBesb+eW6TYhO3+RMSIXCFxs1avScMCka4fTp0xn2m1T3/fv3R8WKFTMFEPTFtWvXWJQE+TCY/Q/I9NCjRw+mLbAXQCDtxbRp01jEBPWT2kxbqP/jx49n0RVffvklAy+5vxCNMGlLBOy78Rhtl1yEUe1sH4BAGmARENQSuhbXYFH36nB30jINTG4DU4JghN5oxNhdwfjxeCxEQjdyykWbpcM2rw3S5mtEA35pXxQD6hSGiid/HMuBiE0BAnVKEEVMnr8eK3ZfhCQxhgGHrmOzSsmoAtSCCHdnb7i7q1CqsC+83HRwddUhQa/Ctdv3EBnxFE+TAMEgABJlcbCtesfSgQtqEb68FuvnD0Uxr+z7UVjabvrrCNWW2BCGO/GO9bl42f4q99leAgWcVbjTpSC0uSRqIe0IFyxYgFu3brEXPoUN9u3b9zkBkAaAiJPSFlLNs/eSIOD9999nfgAvKmlJmA4cOMDCKQkokNmhQ4cObAN/WRPDizQIBDymTp3KTpakscjIsZLGTuMYMGBAluOw/cp4mRppe5JYroHw6AQ0W3ACt+PUEIjMiIXyZUB5/hLNkDWbmZpZfYAOAr5/qyDer10EokoHrSSy0MecLowzUZJgNBhx9G4k2q+8iBTBCZR751mx1X5pOjJzHPxVemz/sDKqBpLJKocBAgnAYBTw7erdWPjnGThLAgyUyYu3Pz1xRguAF+VIWeKiph+58GyiSPViXlg5AQ04kZLu6OHhqsXGeZ+jkJcWnKRiYNJWy8Tah+LDo0/w6005FbJSXi8JBDrzDBw4qSw/YThSQuSgSJs2FfIBGD58+HMbKdn+U1LkFNpUKNph8eLF7DMCFRSlEBAQYHGXzUyIpFEgu/9nn33G7rUHQKAIjenTp7P6s3K8JD4F8m/I/UV+q1LqE4NBj5FbL2P+uUTmvQ/S6FKxocOi2a9DxQnwVxuw+p2qqF/IHRLvDE0uWNMi8UIIAm5HJaLFwoMISfJh8XK2oY56fjUwx03a7zgVvobw7QAAIABJREFUmhfgsaZ/FXgyjUpOAwTWTwkGiDgW/ATjflyL0MeRjCFKKc9LgFOp8WGnNzC8R304aXKHM5gt0z0r8513JFDDV4ujrfPnSs2BWYohISEgLQKp42nDJ26C9u3bZ0iTTqd+YlqkiAAqgYGBzKmR7PtpC4EIcnykqAjSSqRXR5OD4Pz585nJYeTIkQyQZAYQaIMaN24cAyQZOSm+SINA7RBAIA0BAZn0zo9p++zq6so4H/JKYT5ekojtl8PQbe11CNAwR3Y5pbHtjkIyuyLVS9kGgEruElb1r4TS/p7gOXJjJBO0Y00OMiGf7JQqSEaEx+rR77fTOPSIIi+I94CYFG17IjSb2wkgqEUDvmkWiM8alQFPGRwZQZLlBwCbmxjSLlpJMiAq0YDJP6/DlsMhEJhvhB4i1FZ0Ma88Bpb0Uw01DDDyHPJ5u2LMe23QuW4ZGHie0lyZKrDdA2NJj9JfE6MXUXBdKBII9ivltZBAhyBnRimd2wud6ImBkMIG5cOnTINMREmkGSDPf7qG/BSIipnIkswmg7feeosRJqUHABROSKYJCjH88MMP/xMh8OTJEwZKyFRh1lhMnjyZhTlSFAP9NhcCBmPHjmV/WgIQqlatyngcqNC95INAv4mwqXjx4s9NB42DgAx9ntfomSl0nLz2H0Yn4K2FZ3GVIuHNZncbahBkaju2MtjGq4aAan4aLO9RGUUD5BwHGnKgtzXXwAseHDn/hMT4IMKi4zFi43VsvEOsknQglKPUbP3GZ2GUFNUBHv7OBmzuVxHVgvKxZLjy+re8RbsCBLPcjEYJG47ewKI/diD4USJ4wQCe2aBep2Kyjzm7odubFTC0Z234urubVD65Sw7fX47BqLPRuatTSm9sLgEtD3xdyRPjq2Qe92/zRrNZIdnqibfAnDeBXsC0YVJIIG3WZGYgdT1dRy9D+p421T59+jy3mZu7QWCC6qPf5MBIPAhmrgHiPCAtBIGIAgUK4OOPP2a3TZgwgf3u3r07aJOnDYc0Fnv37mXJnqjNFwEEInBasmQJq5O0GuYNf/369awt0nZQf80cCaRVIFBEQIaiMKgf6TUh2RSrXW9nIA0S9IYUTNl5Hd8dizFR0dnvNM/Ik2BkDurVPQX89HZ5VAv0Aa96Fh1mT+fFtKGspDm4GZmI0Zv+xY57BuhNTom21J6knUAGO8jdQc2hW3ENFvSqAneNjmkQrG3TIQCBQlsEhpREXLgejpnLt+H0zcdI1pNjICXAYXm52BjNdiS7rlg7V25eeGoDYOQBUWVEIR9P9GlZCf07NYWLRgVmhrNK2WPnTqepnrIVBq4LzSGXTceN83VuqYS7Cuve9GfZKfNaoc2fCInI5JDVS75QoULMmfFF5Efk2EiaCTMPAhEcUb1EsUyAg8wKdNI353NIy1VAfAy00d+4cQOhoaEsuoAyS74IIBCAmTVrFtNK0EZP/g3kQEkAhz6nUE4yIRA5EuWFIF4ECnGkQgCmXr16WY47d80pOSrKp+jLD6PQfN45RPOySdXaDcvScXESuQQSuy7Z4kUUcjFiTvtyaFEmEBoV8SOQup2CAEndTmDCVCw/XP+nK7I5QY65FAQ9IFEOICNOPIzBF38F42wkAVazC5z1m7WlY6cmtEZApUnEb13LoV3FfIBKBw2z6Vg3QAcBhGdDI5eMZAiIjTNi6Iw1uHw5BLEqERqBJoln4Yd5vfA8JdyQoOGNyOfhjP6dm+OddlXBGQSrM8LllCwWXIvFxyeicqp5pV07SYC0BtOqemFERU87teCYasmUQHwCdKomngD621zoRE+ER02aNGGhkJaolO/cuYOVK1eyKAVzXXQf2ft79erFiJnMhbQFRPlMuR7M1xKIIKZDAglkCqB7yKeBNArEz0DmDfreXCgcc+PGjamhlHQ9OR5SfaTRoHwSpDlgmyjH/QekOEbKtmuF8SFIIhINRvRdfgxbQlXg2Lveug3L8h6ZTKSkuJUAQSXBW0jCJ/ULYmTjEnB10rF8BAQgaNMkCie2dxO5kuWNsCtTD7XEfcSSUYkw0nj18Vh24SnG/nMTMck6iDxxQNjfF4+0NSpRhUp+Kdg5sDa8XZyh4s1RHNaNzuEAQQZZNBWUyAOITgK2HLqDub9tRFSiHpJRVsXLSMcUumLCmvZbTFauiNTL5axb5HDDFhoDOICTmkP9GhUxtH9TlPF1hlYNqNRaqxfey/bKFvclGUW4/B5ii6qUOnKJBIaXd8fEKl5w01jupJRLup5hN9imI4oMIJCvAJ3MzfTFBBDIJyErDUPaimlDplM9aSYIHJBmgNT/GcXSU7ukXaBUznTap0yQ1CaBB/qOiJWoffPfVEfafA7Ud/qOfswAwNwO3U++CETHTICFTA40LmvHk5vmzryJ0on6SEgU2iy8gEROyzZXa+bI6jFR/SaAQJszEfiV0MRjYZ9qqFPIm2kwOI2G6bcJHBBksPKQnQoSWTpryYhkToXbEbHov+QEglN04IykzVDDwJwn7e/bxbQjkoTFHQujd/Ug0/o1P/N5ACCkneTUhcMB8fGJeBgWgV+3H8WeA8GI5XUw6hMBLQeI1oVnWL2QXuIGTiXbOJ0MAioV80CnVtXQonYF+Hn7MRKmNIqrl6g95295kCig0J+hFL2rlDwqgQLOPJbX90NNPyd4kfpAKYoEckgCZoe9ZMGAdgtO4MhDEXrSehNRgt0cB02RDRLPMknKtgQDnHkn1A1QYXjjoqhdxB1uOmc5CyQDCBR1QOdTWZsgmh4b2b2PNA3yEZcZzTlR5t+T9EgwCLjwIA4/7r+LHXcTkURukpLIohUY2yPTLli3QVs6Vaku7tQeBBR05nFmaF14u+igYkoL65wTze3aT4MgUfIJQjKy2UClIv99PTTMezPzIphyOOhTEnHnwVMcPxeCM5cu4PSdx3j6lKeZkCfPlBVMZlegwZO6SoLaSNwGPAxqCUYNoCLqb8ZSRd+n3+rSZHmjr0R5+tSmBWBUU2iKIIfGmNImGcHDxZiMsqUDUb90ECpXKYkqZYrAx9MFEqP1ZEYolmIps6UgUCQDNFAzrhAjk01uLfOuxmLwScXUkJPzo+EAg4UHDx8tj4Gl3VDRS4PG+XUIdKYEMPZ5KeWkTJS286AE2F4tQRL1OB4Wj7ZL/kWsYGS5AWgTtX8hGwAPiZz1OD2Ih8aFF1DOT412pbzQtLQfSub3grezBirTe5ypE9grnX4Tl44MECjHAfkYxBgMuBUehYN3YrHt6iNcCucQY+QgqVi2Bbmwf9j5GWSU1oS2eKg5I37rXBhdqhSGmpd9/F622A0gJOuN+HXLARw/fxuVK5bFR+2qwMPVzfpTNS0qSIjXJ+LW/WhcDYlE6P0HuJdgQHKCHk9jBURExSImNhbRiYlQE9xjVgoOBp4SMBlMCTDI+yE9QNDCQPwMnBpqkRJIU5JnQOOkg4+HG1zcXFDAxwU+rmq46jQoGuSLEkF+KJU/H3z93eCszjyN7IsmhMaz+2Qwth26Ahd3LUZ1bwRPr9xrEx58IhLzrsW/7BpT7suGBN4v6Yb5dX0QpRcRkiAgOEaPaL0IgykpnhPPMRBAgCCfTgU3jawqVYoigdwmAfnkTWmOiYIZ6L/iENbdkjkAKOpALvZcuzKroxwGSSDBzOZIygUOPhoBhbxUKOujQ/lADxT0cYafiwauahXo7CeKEhIMIp4mGfEwKgnXH8Xh36fJuBOdgugU2YRANmazcfx504k9x2XiWjBJsKJXMo58+gZcnFyZZsbS1M4ZrRe7AASagy0H/8Xg2RuZhZ4TVSgWqMHXA7ugceWi4NRksyeBWeKwYWZgfEbwIHsmGBnYoP8SdWVSsh6xZKKIFRATnYD4hESER8dCn6KH3mCEIK+M1EKT7azTQKfVwtNFB1edFr5+7vB2d0YBLyfodC5wcWI+sFCZUy4TGySrRmPVOqZbCE9SXG54RCwmLN6PnWduQBQIiSZjYIvS+OoTOR46NxbS2Hxw9AmW3FIYFh05P65qjjEb+usseU4c2TOlLUUCLyMB+R1M72LSJITGJeDNn0/gYaJKPv2+pBrcmp6k0ukz84H8F2kUeFEmUWI+EQxDyLTIRDlOGjyTAgEGUWDpBCg5oNksIu9HZgAga5DTfmLVZmHNYNJcS+9o0hO4cwK2DqyAOgUphF4n+1hk48BgF4BAUv9j+2l8uXBbqrMhzwngRSM+fLs53u/UAL4uWqudQayVHTkdmT2Y0wvJ7s4x6SZPEAy4eDME707bjtgE4high0TWaHzavixGvtfd2uE5/PqRp6MwMzjWAW42Dh9armuQHvarnQqilEfuNT/lOqEpHcoTEkj1OxP1+PbQLUzaE8pMrnLCIjuftNNJyORqwMAAL5FPAXEImHJEMOsCqeoYYkjD7iRXYi9/Amsn0byXqTkDBlTywM9dK4LnnZi5Ibt9tBNAkHDmxiN0/XK+KXOXBJ1BhVitG1wkI7y8VPhhYDPUrFQEbq4eJspNGXM5dnlYOxWWXm/CqcRBbhRw/9ETjFu8D0fPX4bO4AS9yVmMspzR4LfM+hCVigVaWnmOXrfubgIGHIlEosK0aLd5IHCw8A0fvF8qd6VbttuAlYpfSwlQ2GN8YjS6r7qGXfeS2YleNGXjdZRA0sbJ8SYls8xRIzMkyFruNKZpsymE5fXJ2d1K1nYwN0p2EC/vbsTOD2ogv6cHOLVttI72AQhEHSpJqNJ9OpKNGfMakCshpWB+t1sjDOrRCC4q2eiQHXWIoxZV1u2QrSsFp4OfYPC3K/E4IQkckSmbHDDN9wucCC+dFhdXjckz46YhxBpEVNz8AKGJeZ+zIuu5dPwVX1fywNRqeSGdr+Nlo7T46kiAwsNFIRknw+LRY9k5hBlcAFEO+1RK1hJg+wk5eHIc3Dk9fu1aBu0q+MKJTAs2igqxE0CgZE1GvDlwAR5GyPnb0xciE9JIRgYkPFyc0LFZbYzs0wAeeSgJSWZTePzURUxdsQvXHiZAkIgDXIAkxUGSnmet06t1KJNPg33zPs96NeSyKyjm92KUAW12P8LDZCUQ0hbTQ6/F+XV8MLCMojmwhTyVOnK3BChijZP0MAoilp28jxH/hCFJUoF9roCELCePAQQecJIEDKnhiUntyplyTagtIgfLsgFGCmkXbmNSsQuYvf4Ufly5y5J+gOdEOOvUqFqqMGpVLIbW9aqgaH53OJkiB6mbljCiWdSYjS6SAyclxMbqsef8HZy5dBeHzvyL8KgkZk4z+xhk1hzFxbatUx4/jXrbRj1yfDVGUcKJiBT870ocNoYkgniulGK9BLy1HLY0DUD9fHmP+tj60Sp3KBIwMxDKDosxKUkYu+UqlpyPgl5FzoIUIfbM9U+RVxoJmML8YeTA8yJaFtFhUfeK8HfTMT8Kyj9BDpe2KHYCCBTtYcTBS3fx3oRVMPLkAJJVhyXo4QwtBHCiASonJ5QP8kCH+mVQr1YVFC/oA62KMjrIXFSOIyGi8Mi0jmJysE54jB6nrt7BwZNXsffUHcTExEPkeKgECcbUy7PYLTkBI3o3xOBuzW0xlzleB4Xf7QtPxs04A7aEJOJmnIAoPXn9PgslprC8fDoejQJ02BCSiGi9gig+LOWGSVW8EOhiG7thji8EpQOKBKyQgCSSK6AeYTF6DPjtNA5EqiGZTNOvileaFeLI+lKi8WdZgXUo52rA7+9URJl83tBQLKZJ82IrDYzdAAKN8vKtcHQdMQ+Jai1UL3m0JF5rJx4oEpgfreqVQLWSBVG0eD4EevtATX4LIqAi6gOT42nW0n3xFc+iG4hUgxauwAifEpME3Lr7AKduPsa/127i0PkHiEqKkRN+iC936hNVHNaN7Yo6Vctnt9u5+n69IIMqFcdBTTlHTaXTvsfYFJKUq/uevnNFXFV4kiIi4SXXs7k+gsvtgpzxdWVP1PZ7ufWTpwSndFaRQCYSIE0rJXKi3Az3YhLQYt5h3DV4yS/1VM5C5SAhO0WSzloinkB4quKxqX9N1CrsDZ6Tqb1tBQzMU2VXgBCdZETdvmORKLkybuiXLQKnhqASoRM4qIxGqJ2MKBmYDxUqBKFMwSD4+rjCkwgtnHXwcXeBu4sOzjoVAxBEEqHi5bSiZuHJKbpFtv5YTCvxuRsFxCYakJSYiKh4PeITkhCZkIS74bG4dOUm7tx7iPC4RAiSK2OqIl26oCbtAtX1coRJLk4iTq8cAxfN67lBXIzSo/rWhywnR14pK+r7ontRV0y8EI2jj1NwNCLFYrMKgYIgFxXeDNDhhxpeyO+ihDDmlXlX+mlfCcgHM8Ao6HE1JhntfjqKEKML1KIBBqhfmfi2l5Yii1jgIVKohaSCuyYRf/SogialfaDhnr1H8hRAIBt926GzcOt+DAwWkSJZLz6ikaTNXhQ5aCUORpXsWa9ScfD29oG3lxvcdSr4+/ikAgTBICAyJhqk2opOMiAmLgURTyOhNiNWnmg7KOmKfTfuyiX9sfGH98FnQT9tvVTyzh0d9z7G5tC8oUXwd+IR3j3oOaZCerER0Bl9NpppFvSiBKPJZ5OUJRTRqlPx6FPMBe+WJPbNrExteWfulJ4qErC1BARBBGeIw8GHiXh39QXcTXZmSgQ6YMrniNfM6MCYhGnUsj+GxKvhyyXhp05l0KGyF7ScG3hSodup2FWDQHkMJizdh7WbzsDAp9hlCGaeaYNGYik9tXoePJkdjIBGAPRalmIBQPpNiD7UPeuTQPCVZQ4BtEmydgv2BQid3yyH74Z1gdYBKUDtInwbVHo91oDymx7kCS3CvpYBLL+BUhQJKBKwjwQoG65BFBmp3oF7ERj45wXcT3BjqaJZWkYTB699Ws+FtTL/LaJ6NjIiKU+NETPblEDvakHgOBXUPGle8ihAoNPVhXsR6Dx0ISTate1Y0mqpGR547oPMdNhp4m1TLzGlmzahVTt2GZ+0r42R/VuBskK+zmXc+WhMvRiTq0VQw0eLk23zK3kOcvUsKZ17VSRAYdQpxhScvPsUH224gOvxboCUAo4ojnOYoMiRMiZSRy1vYLRN+ZwkzG5TFO0r5YdO7WJzf4OMxmVfDQKA+5HxaPLBPKJOcqRc80Rbo3vVxAfd2zwXI5EnOm7jTiYbJTTfFY4jEXob12y76iJ7BMGHxdwqRZGAIgF7S4AOl4IowCgZcTk8BkPXXcGJpxQS6Xg6ZnuPNX39Znc9lv+Bk6CWRBR1AeZ1KYl6xfyg0agZ34Gt/Q0cDhDoUB6fkIC6vacjgbihlSLrJVjWLwkLx3RFizqvdgSDpVN+N96IYuvDLL3cYddRopajb+VHTSXSwGEyVxpSJCBvkqa0fIIRIdFJGLnlErbcSgIEJxALLUXOv4oeCTKFsgCROdYD9X1FzO1RDeX93aBWaVLHnOcBAk0xsWK1+2QOroTHKqveJAHKD8lxyTi0+CsU9CamRaWQBM4/1aPa1oe5Rhhk+fm5jg+Ip8ARD2OuGbjSEUUCuUQCtFmSFoGHAUkCjxk7rmHm6adI1nMgtzH5wPVqmWhpzAR+nGFE3/I6TGxXDflcyM9AA7XKsZFPdjUxyCBQwsSF/2D5P6dyyZLL+W6oRS0KF3DFzl+GvPbmhfSzcfhxMprtfAS9fV1WslwEag6YUs0Loyt6ZnmtcoEiAUUC9pOAKFE4OdO3M2fFrZfDMH3XLVyM5mFgUWwyK6NMoccQg/06Y+uaKdyexgAiE5TYv9UQUdhFwPBGhdCvZiE4qzUAJbHiOIf7QNkVIFDAoSAZMXvJ3/h56/nXyLXkxatI5DXo2rgcZg7pwJghlfK8BM48SUHTXY8Qa8gZggQXFYcZNb0wqIyHMjWKBBQJ5BIJsJO1lMJAwr0YA77bdQ0br8TjqaAGRAMElgky7xgdZFOCmf6IhMzDXZ2MpkVcMKF1KZQP8GBJ/ojHx1bUydZOpV0Bgrkz167dQOsxa/6TzdDazr4q13OiFlM+bow+reu8cuoxW81RklFkJEpXY2UyKkcVDw2H7c3yoV4+JZzRUTJX2lEkYJkEJGaypv+JIjkxith7LRwTd93FxScGGFm4OEuCI7MG0P9zPisz6++zYtZuyAQHlI9HNCVcKuIsYkzL0uhWNRBaXgXiUVEximB1ju0TDgEIRqOAin2/RYo+BRILU3m9C4ngjyl9UKtMcYerjPKS5CnUadjJKMy9FueQbjcJcMK2ZvkUMiOHSFtpRJGAtRIgDQLZHok2iMzXHIyiHglJSfjragS+3nIdT+AJCEYGEFINDTlpcWA4gEwHMliRyPGQDZtMIoAKRrjwSRjeqCTeq10Q+VycwPNm5kiZ94FKTvlZ2B0gkBqFXvSVBvyCxLhIa1fEK3m91mjE4VWj4e/hophdLJjhG7EG9D30BCcj7RMG6a7mWKRCOU9S5+Xk28QCYSiXKBJQJJDKc0P+CRQOSftMZJIBmy6EY9K+m3iSooMANSSOEvwRqDClBZa3W8dJkBQAlNaH58CRvwEjejKyHrhIIka+mR+9awYi0M0VWsrCqKIMjdTX3GF6tjtAYFhJkvDOxLXYf/U6VPZ5xztuwm3QUsvKBTF/wgDwbDPKHQvBBsOyaxWUVvp0pB5fnYvGgfBk9shnt1T20mBObR80CnDKMYSe3TEo9ysSeD0lIKvtSQNPB1DahEmvYISIx/HJ2BH8CPP2X8PVRFck0wme5XqQHR2Z1v4/OCE9aEjv//QCUPHcpaY/qB2e2gU4XoSa8v5wFIcAFNYkYdCbxfF2pQAEeHqyZIMybpHzLdiTGdHateIQgED6oCshj9Bp6FKk4PVECLRsyGmT1uiycX3QqGpRRpWpUO9Yu2QBomc+8jgFS27G42ykHokWZnuiyITSHhp8UMoNDfM5KdwG1oteuUORQK6TAPM4oA2ZNhpJhEESGHV7kl6P43cjseFyJA7cikRYMg+9QYKR05giHih6gHZngfkCmAvjYCCTAEt+YP407R/Pg4VUYqPUrAnkLCmYsi5yUKs4BOpS8EYhN3SpHIA3S+aDtzNpEjQsC2NqW47UbFg4i44BCACSAQyauAT7LoRa2LVX7TLKOGJA9YLuWDN7OHNCyVPhOLl0OujhPBKRjJNP9IjRi0gWKG5aRu4ECHRqHm4aDqXcNegQ5KyYEHLpPCrdUiSQXQmQloA2e4FIBNjWL2/SosjjQVwyjtx+ioO3I3EmJA4h8UBsCjk2chChYj4CMhggDYMpLZRcjfl4TzXJB32miXheBcHCFNm3ItQQ4OGkRkGdEZUKuuPNYr5oUNwPxfzcGCsimRDIF4EaTZtlOLvjt8f9DgMITHSiiE5fL0Jw8BMYeTnr4utQeEpUJblArU7Gvp9GomA+JXzudZh3ZYyKBBQJOFACps1cZNoAUyQDMz9IkETiG5A/jU4RcPtRPILDY3AmLAaXwmPxMEFEjFGDJL0IvSDKKdw52Rxh3szlsAPZVEH+BKR/oGytLmo1PNQCCrrwKBXogiqBHqgW6I4yAT5MUyDHMvLgeDUDEcxN0YFuENmZAYcCBOrojbAn6DlqASITXh+AQDYlF2cJG+d9iVIeRHph1l9lZ+qUexUJKBJQJKBIICsJ0MFUPvnL/nBsdxYp0oH0DbJ/wtNEPZ4mGhGVZEBoTDIexiWzPSpWECEJz9gVeE6CTqOCrwuPgh5OKOimg7erBp4uavg4q6FVqaBi6ggVYQKmUWAZKInkiM97/mYOBwgkspioKHQdvQQ3IhLAm5I4SRK5b+Q9Ab5ocfKCFk4wQOfrhfU/voti7m5ZrWXle0UCigQUCSgSsLMEyLHRbD2QeQxpI6dwRA6coDJ9Z/JtMGm7GbcCmQUgsg2fciWYAxFlyqNnsRL0TWqg5X89Iu08OttVnyMAgbpvMBiwcs+/mLp4PSSBwlRePYCg4pLQr209DOvbHG5OWqgVl0TbrVylJkUCigQUCbykBFLhQUbBCqn+BdYwuZoTQ1CHTD4MTJPg2KjKlxRHprflGEAgGRIrVuiTWHyzYhd2Hb8Mial9zOEreS/7I5kSSAciismoUrYEvvuoNUoW8WdOKXmHANTWS0ypT5GAIgFFAooE8qIEcg4gMGmRYoe8TI04ejkUv2w8heBb9xAbFwNJylsAgUxbOo0GRYPyYWDXOmhSswx8dMQamUe8UfLi6lX6rEhAkYAiAUUCdpNADgOE/44rLlGP7QdPYf2BS7gYHIZ4jRacSCdwiXFTi2LOOTey8BRIUBkkiGoR4JzA65NQsoQfejSogGZ1y6BwUEG7TZZSsSIBRQKKBBQJKBJwlARyHUCggRslAgEi7j2OxdqNB3H+xmNcDnuIhGQDOGhz7FROJgTyeFVxGlQq7IfyJbzQtn5ZvFG5HDi1itF65RRntqMWjNKOIgFFAooEXgcJJD4NxYaDV9CgVQsUcX4dRvzfMeZKgJCWRpfiTSniNDbRgO17D+Dw5TCEPkxGbIqApKRkJCSnIDnJyDJi0Q9gYOCCE9XgBDVENVFe0ncSRJXslaoymlgxGEm27H/KixzUAgeJk2DUmJxMOA4ebjq4OmvgpnNBgKeEN6sUxJs1a6FEUD6oKBMXI8fMYznIX8+1roxakYDVEogNv4tLocmoXLUs3O2QZ+7ejQuI1hVDlUIKN4rVk2ODG4zJcdi7fwO6jVgs11azM45P6YvyhfwQdmE7yvWZg6V7/kHXgDSNCUnY/MsczPbujn19itugF7m3ilwJEF4kLqJqlqAFJeMVBIHFrN4PC8e5KxG4duMu7kYnIiQqDpLeCEkwgkJgRUFkaTOJD5u2foOatnSKTdVCxRuY6UKr5eHt5YoC/l6oVMwPJUuWRrUCOgT6e0GjUTGQYsqrlXtnU+mZIoHXRgISEqIeYXabAfg+LkkedZW2iF71pU2DpY8vGYuWs+5g95FVqO2ZlXAlxIY/Rs0ufREeK1PKfzB5PmZ1KZfxjQm30LLhe3hYujbbAlsRAAAPfElEQVQurfkecY9uosb4I7i4YAB7vynFzhIQjfhtykcY/Fck9pxbjxoqHu+80wMbz6rxz4EVKBK68xlA8ElAWGQCnF3dgKjLaNdmJPjBM7GuZ0Xk99IhIuIJDIIIqJ0Q6Odp0zVoZym8sPo8BxAyGk1qMIqJIlNOBSrHQ5h5stNwZpqqkJ0HGWeR/K9U5mOZStNEqMG+Shvuojgd5uSCVdpWJEASiAo5jeJthkOQOuDeuc/gCuCvtf+gTd/2lPDXZsUagJAcFYr8DftArPEBHvzaE1o8xM4tCWiXGUCgQ47RAJFTQaMSMLvmW5hQvi8er1AAgs0m8AUVJd49gcB2XyJoyAJcHlhWJlJ6egKV3/wSZbqNxJzOKhNA+BtP+nTGyPBobN7yF5YM7oqN9+SKvVt/jTtfAkWaTkOMaR/p9dVcLOhdyRFDsHsbrwRAsLuUlAYUCSgSyEUSiMP4Bl3xS0oV3Dn2Pdwo6UbaYojGkE4fY/m9h/JL3D8/vvlpAXpX8MI/i8ZiwJxDSKQvdF4YPn46JnSogNtH/kTzz+fiSSLglz8fIsMf448tG+G5b2aqBqGaGIo6PT/FzbBoAE74ZPw3+LZ7jdSWk57eQ8Cb78A7X29c3vsR3E3fXN/1G2p+vg57L29CTQB1mjRCma5jsWJwFfSt+DZuVxuKcaXnoMdac1X1ce3ydOyYMQKjlp1CEjgEFi6MUxtXwINcsJRiEwncOboWVQb+jKkr9+Kzaua0edFo36Qjkqu/jWXvlGAAYeHyERj27hR8NmcJvmpSAoi/gcZ1PwA3ZqlsYjDGQw8XaNU8vv7iXWyNKokLS7+2SR9zuhIFIOT0DCjtKxJQJGCdBGLuoGj9AdDX/Bwhyzph9fTvsDH0Katj9ITvwB+fhcaTd+PEzi0o5yuiY7fuuJS/Nc58WhRF3p6OwRN/x/SuBbB18tvovU7AySOrMXdgRxzTtsHxlUMRcXgmKn28GavTAYTQBb3w6aYCuHFwBh6tn4hqk57g/Ol5KG62BwgGbF82ET1mHwbghgb1O2P5gg8QZQFAOLqy/XMahNhza1Ct32pMXbMcfQolwK9+b8xeuwHvV/CxTlbK1ZlK4MGZDSjb/3+oPmo59vcrKl8Xfx416w5F2d4T8V3bZJTrMwu1yulx6gqwf88OVA/Q/Qcg3NgyAQ3H70ciub9ROucaLXB5+dhXQvIKQHglpvH1HUTo2cOY88+ZVAFMGjkULkTKma4Yks+hSM1hmLJ8Nd6vUcAigRnjIjBm7u9prg3AlyN6wl85xVkkP7tdFH8f1ev2Q5hrO4QcG4mz//yD4xcOYvyqI1i79QCMGwbh/T/CEXp4PbQqDjM/fA+T4svh+EeBqDv4D6zdvxlv+QERO75FieHbsWvnSnzTsh8MLcZg2+zWSIk7jcJvDMeK5wDCEuwa1BLfXXx+VHv2HECttA5s9HXkVcxfuRZf/roXLboNxjf1U7LUIKQHCNf+nImGEzc/19jgGasxvbVla9dusn+VKjbG4cte7bDsXimcOL4IxXgOcyYPw7g/IrD6n4WoGnmQaRCW7FiOkZ36wL9Cf+xd1g9uJg2Cof1kHJlWD6PfaIufm32O2OlN8HHfnjisqqkAhJxaJwmPb2DZ/tt4r3sr2CfyRMS1PX9id1g+vNunMVzMmqecGrDSbqYSuLBxARqO/R3N27+N0l5A4q3DmPTjGnhn4OH1MgAh5fFN+Dd9H8XeaIe3StJqy4fhn3dXAEKOr0kjNn0/GP1W3cC4n1diZP0CiD71Owq/u4ABhIJX5qHBV9twZP8WVPKMQ6tW/aBp8D5W9/RAwc6T0G/Kb5jXKQjfjuiC6acr4PqucZjUuyUO6Noj+LcvcH7NBDSZehBr0mkQwhb2xUfrPXH98Fx4qXjcDI1GySCvVGmQR/z5WHfUzEdOEsGo1mYQCjUbiP+10qLqoMX43+aNeC//XZRt+BFqv/u8iSEVIPi1wP2toyBd/gNF+i7HhIWLMbxefkgJt6HXFoWT5tXKV5PTSyk5KgRfzZqHXzccY13JX64Opn0+CG/XK/ZcFEOdy5NQfehetBs9A0v6VsHS8UMxdH0wvFt/hc0NzqHV2O1IDKqIapowRPooAMHO8xqFwRU7YUWaVgYNn4xx/Rrh8l+z0fLbnVi9aTvaFJKw8ccvcKnMpxjfuiQenFyFsu8tTHNXCfy1YSZalPK2or8C1n7cFB8eroYbZ/6HgKwIHY3x+H3GDCwr0h87exWzoh3l0uxK4PuvPsXUQ/E4sPFXVPN9pjZ48M+vKDtiJau+bKU+2L16IJzTaRAu7VmO+kOXMFXwd7/MwkcNyiDs9CF0+GwsbsUB1Rq3w87xnRlAaD/pT6zq6p/a3eiQ2xg96l38fhHgVWosXrwCnWsWxI6xo9BjYyzmTi6Fb5ZdQ/CGn7Br2wL0/2ods3mPmLkYXzf0xaJfZuDLpaSGLo19O39EjQL2gbrZlW+uvj8lBj2+mI5dh07AKMpOxPkLlcbq5YtQw/0pun42BruPXWWOysXKVMaSuTNRo4AW2+YPQ6+fzslD8yqC+XO+Re8aBXBy81L0+2oZHkKDug1K4eThYKxNBxAqGu6i6/uf4cgt2R2t3adT8fughqliSol+AP8GvVL/DipeDl9P/wZvB8aiTf9PcfJuHIpXqoXH106h+XvpAUIX3Ng8BvXHHUWyIPsg7PzuYwxZecVUXwHcPb0KPjoFIOTqdfmKdS6XmhhkgLAt33u4tbc/1vbrhY/OPcDajTvQ2C8BdyISUbxEAdy6cQdt+76PDp9Oxsh21aC6vYUBhLnrDqBv8QQUrd8WMWX64NGqAXh0IwS8Rz4UDnBD3OPbCIkBSpcoDop41MdH4uZD+aHPX6gIdg17BhCEyFBEJ+gRVKQ4PNRGBN+6z64LLFQY3joOIcEH0bX7RGgHTsWS7tVQKr+bQq7soIfk2u7laPHlEkTrgcC+E7F7UEMU8lRj56oTaNinDnD3GIq2G423f1iP2U3up5oYeunOIH+PuRj08wp84XsRpXrPxPFjW/Fuxw7ga3+AI9O64kbwKRT182YAodGns/Fdcy9A54myBXj0b9sJ5wOa49LycTizoAuazo3EwT078WDuePTYeBweAUGoVq405rYAKn99DCs3/o6OJZ1w+VIk7h6YjwF/ReLGvl9wbFR79NxWF3cvjoOP8t530KrJuJnYmDi4erpDJQm4sm4a6kw+gkN7N6FKPiXgMEcnRmk8RyWQqwHCVv93cPnvPpjQtRdWPKqCS2cm4sGqeWj8zSEcPj0fLRp0R1JyCtQaLTq8+zmm141iAGHmqh3oXjgMZZsNRN+x8/BDFze0rdgHzh3H489pzfD3lEbouRa4deoAfBKOo1rjUQjTOkHNSZi24h+4zzUBhFND0K3We0hu3A2n5n6KZaOb4LMdGjirgeTkUjh34ntM6dMF62/qwam1KNhuDC5PbaoABIcu6RRM798eM8+lwCAC147tAXd2CUp/uiq1F+VGLMbhnnGpACFw/Rz03HQ8TS/VmLtpK+6MeR+zg8PYqfP3jbvRwuMeAwgqjZbZslG+M+5Mq4D8b43DW1NXYm2nwjCmnEeRGkMxeflqFNgwBz02hmDXkd9RxzMRkyq+hZnojIeXh7EwPCARQzq9heU3nxfQ+SMHUNyWsXkOlf+r0djWOePRe9EBeTC8GqPmrcfXDZVJeTVmVxnFy0ogVwOEtCYGnzp9ELx4IK6aAcLlNagkGlHqjWZ4Z9LijE0MGhdMm/crhtSTMgUIowb3xZ8plfFo6Ug4q0QkCsCWITJAGFwjDj+dccWps7PhfmUXyvaZh/UnNqC5K1CrUTN0HfUrRr8polHdgXD6epliYnjZVZjt+yRc2zgVtcbuxq69a/BFt15oOWIOPq4q4u02w5CSDiBUOL8ALWc/wK7930L2Xebg4eUNZ7WAyCcxGDdqEH4PKYDrvw1GyfQmhpiLqFV/CIKGzMKGj2pAH7YVQa1+wF/btyF+wRRmYjh7+ReUhAG/vtMcX5ytg3vnvoc3s4BIGPdBY2yL64Lt8/qmjtrXx5dpspSScxLQJyYgKjFZXg1aN/h7OClAP+emQ2k5l0ggVwMEs4kh6cYfqNB5HvpNnI/OKXtlDcILAAKZGPqXFfC/j9pj/FE1zhz9GcPqZaxBGNivE8KLdcKxHwaYpsTsg1AKnm43wNfpj3tz3sO1nStR64tfn5u2D8f8DzM7uigAIYcW8+rvp2DRxXBQCq3wm//iXnx53D0zE51avYVIj1LwV8Xh7I1wpNcg9C8joGPHvgjWlUZJby20YgLWr1yG7gOHIDFFxJPQu1CVeAMHvumJwP/4IAj4bdoIfLH5BqqUKownt/7FrVofIWJ2b+ydIPsgyAABiLl/DCXbjUbBUmXg78yjw4ARaKk9jlpDlqNGpdIg5t6gFoOxtH8mTHs5JFelWUUCigQUCTCwLFH2oVxXnvdBuLxmEppP3YtPv1mI9rG7/wMQ3vjwB6z8oHaqkyIBhHdK6fF2p3bYedcP547/hFFtOuNB+R44+lNfDGnWHssjZRPDb8MGYsLVJGxb+Ssa+sVh/1NvPJoqaxB2jyuN5lPWYvSkX/FJlSco3Gkc2s9agVUtCwAPTyHMvRYK4hoDCFK7STj4beNcJ8lXuUOPgi9i302ZDAcaJ/Ro3Ygly3p09RT2XX+KEhUqIPrff2GsUA+tihqwftspVK3fECV9XZAYcQubj8m6fm3BSuhcowD+2b0HMYlGAK5o0boBvMRYrNt5DEFVGqFBkbS2aAHnDu7GtWiA41Xo0qY5yLk87PxZHLpvQNsOdVJJcpJDL2Dj2XDWTuV6jVDeT4eQ4OM4clP2eXmjaRMUcVPiJl/ldaqMTZFAXpVArgYIaU0M7bp+jLlf98K9dSYfhMtrUFmSMGPcIEzeeAVt3xuBmQ1i00UxBGLWohn44I0g/L38e/T8YRs8fAPQKv8jrPtXBgj+STcwcMg0rLlwh7GjLdq6Hfj2mZPij4O7Y+4tVyz9eSb8Ti9F+29NsckBlXFt61wEOhuwYvJwDP7jAvzbjsPN75orqsm8+jQo/VYkoEhAkYAigVQJ5FKAoMyQIgFFAooEFAkoElAkkJMSUABCTkpfaVuRgCIBRQKKBBQJ5FIJKAAhl06M0i1FAooEFAkoElAkkJMSUABCTkpfaVuRgCIBRQKKBBQJ5FIJKAAhl06M0i1FAooEFAkoElAkkJMSUABCTkpfaVuRgCIBRQKKBBQJ5FIJKAAhl06M0i1FAooEFAkoElAkkJMS+D9AQxSJCCbRDgAAAABJRU5ErkJggg==;" vertex="1" parent="WIyWlLk6GJQsqaUBKTNV-1">
          <mxGeometry x="510" y="94.02000000000001" width="205" height="111.96" as="geometry" />
        </mxCell>
        <mxCell id="fya4og5elzQJn8ioy4DR-11" style="edgeStyle=orthogonalEdgeStyle;rounded=0;orthogonalLoop=1;jettySize=auto;html=1;entryX=0;entryY=0.25;entryDx=0;entryDy=0;" parent="WIyWlLk6GJQsqaUBKTNV-1" source="fya4og5elzQJn8ioy4DR-0" target="fya4og5elzQJn8ioy4DR-8" edge="1">
          <mxGeometry relative="1" as="geometry">
            <mxPoint x="210" y="330" as="targetPoint" />
            <Array as="points">
              <mxPoint x="210" y="150" />
              <mxPoint x="210" y="328" />
            </Array>
          </mxGeometry>
        </mxCell>
        <mxCell id="fya4og5elzQJn8ioy4DR-0" value="Service Provider" style="rounded=1;whiteSpace=wrap;html=1;" parent="WIyWlLk6GJQsqaUBKTNV-1" vertex="1">
          <mxGeometry x="290" y="120" width="160" height="60" as="geometry" />
        </mxCell>
        <mxCell id="fya4og5elzQJn8ioy4DR-6" style="edgeStyle=orthogonalEdgeStyle;rounded=0;orthogonalLoop=1;jettySize=auto;html=1;" parent="WIyWlLk6GJQsqaUBKTNV-1" source="fya4og5elzQJn8ioy4DR-1" edge="1">
          <mxGeometry relative="1" as="geometry">
            <mxPoint x="280" y="140" as="targetPoint" />
            <Array as="points">
              <mxPoint x="120" y="272" />
              <mxPoint x="120" y="140" />
            </Array>
          </mxGeometry>
        </mxCell>
        <mxCell id="fya4og5elzQJn8ioy4DR-14" style="edgeStyle=orthogonalEdgeStyle;rounded=0;orthogonalLoop=1;jettySize=auto;html=1;exitX=0;exitY=1;exitDx=0;exitDy=0;exitPerimeter=0;entryX=0.25;entryY=1;entryDx=0;entryDy=0;" parent="WIyWlLk6GJQsqaUBKTNV-1" source="fya4og5elzQJn8ioy4DR-1" target="fya4og5elzQJn8ioy4DR-8" edge="1">
          <mxGeometry relative="1" as="geometry" />
        </mxCell>
        <mxCell id="fya4og5elzQJn8ioy4DR-1" value="" style="outlineConnect=0;dashed=0;verticalLabelPosition=bottom;verticalAlign=top;align=center;html=1;shape=mxgraph.aws3.user;fillColor=#D2D3D3;gradientColor=none;" parent="WIyWlLk6GJQsqaUBKTNV-1" vertex="1">
          <mxGeometry x="50" y="240" width="45" height="63" as="geometry" />
        </mxCell>
        <mxCell id="fya4og5elzQJn8ioy4DR-7" value="1. Request Resource&amp;nbsp;" style="text;html=1;strokeColor=none;fillColor=none;align=center;verticalAlign=middle;whiteSpace=wrap;rounded=0;rotation=-90;" parent="WIyWlLk6GJQsqaUBKTNV-1" vertex="1">
          <mxGeometry x="47" y="191" width="130" height="30" as="geometry" />
        </mxCell>
        <mxCell id="fya4og5elzQJn8ioy4DR-12" style="edgeStyle=orthogonalEdgeStyle;rounded=0;orthogonalLoop=1;jettySize=auto;html=1;entryX=0.5;entryY=1;entryDx=0;entryDy=0;entryPerimeter=0;" parent="WIyWlLk6GJQsqaUBKTNV-1" source="fya4og5elzQJn8ioy4DR-8" target="fya4og5elzQJn8ioy4DR-1" edge="1">
          <mxGeometry relative="1" as="geometry">
            <mxPoint x="90" y="345" as="targetPoint" />
          </mxGeometry>
        </mxCell>
        <mxCell id="fya4og5elzQJn8ioy4DR-17" style="edgeStyle=orthogonalEdgeStyle;rounded=0;orthogonalLoop=1;jettySize=auto;html=1;exitX=0.5;exitY=1;exitDx=0;exitDy=0;" parent="WIyWlLk6GJQsqaUBKTNV-1" source="fya4og5elzQJn8ioy4DR-8" edge="1">
          <mxGeometry relative="1" as="geometry">
            <mxPoint x="620" y="210" as="targetPoint" />
          </mxGeometry>
        </mxCell>
        <mxCell id="fya4og5elzQJn8ioy4DR-27" style="edgeStyle=orthogonalEdgeStyle;rounded=0;orthogonalLoop=1;jettySize=auto;html=1;entryX=0.5;entryY=1;entryDx=0;entryDy=0;" parent="WIyWlLk6GJQsqaUBKTNV-1" source="fya4og5elzQJn8ioy4DR-8" target="fya4og5elzQJn8ioy4DR-0" edge="1">
          <mxGeometry relative="1" as="geometry" />
        </mxCell>
        <mxCell id="fya4og5elzQJn8ioy4DR-8" value="" style="shape=image;verticalLabelPosition=bottom;labelBackgroundColor=default;verticalAlign=top;aspect=fixed;imageAspect=0;image=data:image/png,iVBORw0KGgoAAAANSUhEUgAAANoAAADoCAMAAAC+cQpPAAABBVBMVEX///9NTU0AuOMoW4EAiqrQ0NDY2NgzxunT09PHx8fe3t7i4uLCwsIrXoNycnJJSUkgVn5WepgRUXqTrMC0xtJZgZ+dnJzv7+8Es93p6en4+PiSkpImiaKYmJjz9vgUveUpboDl6/A/jqHS3ORTU1N8fHxeXl4AkLBLcpLM1+BqamoBmLs6ZYjp7vLc5Oq5ubkBp85tjKa/zNenuch8lq2LpbmBm7A/YGhGVVenp6eixs7O1ts0l7JRoriOyNdjwt2wzNpDfoxEcn43sM4gdYpBWmE0YWw6psAgi6WKmKWOusdJxeKe099wscJ8zOGvy9FerL6pwshbwN9+vs62xsheuM0yy+8Mnm5fAAAQDElEQVR4nO1d+3uTShNOk6+3tCi5YCsqbQ5qQQFLCPFSv6rHu63t8Ry/8///Kd/Cwu4SBgLLZenz9P3BR02b7MvMvDO7hJle7xa3uMUtbnGLW5SGNnMcXXccx9ZEL6VGaOZkoVjSOIRsGcrSc0SvqQaouqcMECF5EEAK/5Tl8dhypzPRa6sE2xsNxgElCZPC/MJ/yGPJnd9Y33SWAS+GFAvETx4bkxtpOt0dyJQYS1Bi2FkTW/RCywJZTCYc5CDUJAsjsJZMWcqWd6PcUvMsQgzxMtzFZGo6M1uzZ/rc813FkmVKTjFV0QsuCnU+osQGxiKthYFuUnbyYOHcCHKq7hJ/kwdKplDoS2NAyN2EkFNnvkUX7E7z4ihIDXG+k43cH+0ANM+IfRFZbL72xyeMW7pdDjnVVOKVyvKokPI5S2pkyZ91lJwWCn60TKNw8OiuRL3S62TI2R4bZGaJ3yQhh35T6V7xpc0VquXKtJxj2RMilrK01DtFTjNdsraBwVFe6EzIWZPuhJzqTOjCDJ9vLzaPQw69x2jakZCzY8FHOiCVCrIEUN4gITdwzQ54pTanvigplUpdxzdIGWP5jmBymr6UGMGvuvsyFxaTCESGnOZMDBr9S72Gd/RoyA3cubCQs6cKdaC6TgNmNMuhRCAm5DRzIRHBH9VYRug+zXLGpP2Q03RS4cvcgp8Bdb6wmETQ8vEJchvOqqoQNNYrWz34smPBl9buyXjhTEZMImir9tLMJRNkjR23mUuyl0OJoI0TBs3xDCbIahD8zE+auiSc20gEs6nCBFnDUdBmIrDnVPAl12teu8xEImgu5BKCP5q0crclmQgaupiqQwQfBdmytTMam9ZeQSJoIOSQ4BPBakjwsxAkAvLRft0hlxT8FoIsAdVcGg0lAk2fJAS//c2GNl3QMK/xruPMYwR/IejICS2ChtyynkW0LvhZ0JmQqyMRaCYVfBRkQm+vq2ztpVRdiyDBz4JNa69gE17BcNp8IWhvkYngWpNEwF812J4xjn2xsv3rgopqL0KO93LHh1WSHERtzSusAJvWXjLPSTWqTF1ieFGCnwWUCOKtsMWxX4xvT6CtUleOqRnENYQ0GCzLRso8UsbgTKmRxVWERu4RyItyC5wbMr5tq3T2FjO5h1KOm4ltJkuLDsnHKrSpEXMrHm+6EtpMLu/HrUIleuAXda0Z1ka0N+r6l8Pir6hIXrE6SfWjn78BX1NxXJygrLXf4wgxxQIi+d1nFsZOWFUoRULHiWS/RGyKhIm1RPbXu2TkjsUuQxcwxTlAWu+SpoQzNdctCnW4WQFbXHsmdYJXrKyLH80NdV/yeD6lt/XgTgU82eT6UDsS9HVLnkfbPC4JOXj0+G4FbDy4z/OpUbjJo/w1q/gKFNTSVew/26iEpy+4Prbn48Q9zf0hM6pcuLz+/oPH1ahtPNnjooZFXVbyahJ1GUQap4b0XjytyGzj6Wu+05cJDqO8Zc+sYAckL7jef/ikKrONjTs7XB/t4Ghb5vzIdMwfaerrqu6I8PjRARe3JZaI7CoDi4jscm3RNu9UZ7ax8WyXi9rcWiMkdvgDA66cpt6rwWjIbA+4zBYaRcqJpHloNINr+1lV+GNwJgAsJEamv/njQERcnre+/6AeZigBDHk+Xw8dbpxV+Kp4cz3heGf1dWXhj8GXALRwczPOiiXNKlhCp7FVg/DHuMNVSi5zg83B0s+xm6lF+GPwJYBJSE3JeHU+LlBlgqhH+GM82+eghs8GrAwd8UJqbnlXr148JvGAo5Q0cTRluJyPE3b5t33x9G7p5dOtTBo8CSCqtTIS1yKsjfMKMRh7kPB/OSaAmH34I8afADmOBGCH1MYZFXK4wZb9sm+qQhX/54f/iXH6Kf3y8eF2jI8AN44EoAbUpHGGvHNSA4X/E2H2vH/6OUX8tH9EuL0Ffp0jAYzQ6qVxRhUZZmy5bMY+gIrHL4TZyWm//3D15Yd9hhpkNo4E0AC13WdAsLBG6/cPXyZffYnoMty+vkq/QfkEUD+1g0f5RjtELPrfki9/C/6vT6hdfAAuTukjoPqpQRryitGQkMVhQiX/DOmyLvkSUJIXJZWkdmrDJ8AVP6buiFn0nzM+9+ot/r98Jbn7ZEssNVQ8ps8TP68aDeETffm4n6KGzJbC43sHPXUFbVK7/+LeKl5//yNltH7/I/2Bj/00t6/fU+9z7/XmMIUc3ayZmno//enDH28JNcKsf05fvyT/ySjJ+dYOi+AWwE4am+1RO9hL4+y/aXfsX2wx3C8As70720pBJDX1forYcO/HSVL4QwqXrFkhs22f51Fqn1raaMPhNWS0d0mXvQLMdnG9nll71CCjDX8CGnJkJqmZRwC3q7O1zNqjBhht7w3RkBNqtKtVpQHN9n4ts9aopY02HDIakm009GPbWWbLZdYWNRWKNCr8VEP6l6vMkJIcAWa7XMesLWqQO64X/jUJoBPUIHcc/nMCuCNgNNZsDLfzNczaoQa54971W8Bo7wBiKKjeQUrypguxBmpIEeGPmG2ZsJKIpwYxKyj8wygzn0NmuxQv/qCG/EUi7ZQY7eIsg9nWGawkoqmBRisk/Ez1yygJW0oKpgYZ7XcR4WcLe9hs12JrSDXNbLj3z9qKP0EM4T1oNqFWA/cy1+s1JLUfA0vJHCXZbJwaVGGtF35gmzkHEsBRdk2y2Ti14sJ/nsGMLDadAI76R5lK0jy1whqybQLEEotNKwkKv4sMJdlsnBos/PkakrnJfL+yAwj+eXQFnfiEzBqmljIaYgaeGpBsnbMNWzVbyHT7zU6a3Gbz1FaNFlrkJ1Txv19DK8R1YgeA/4GUJH1Y1zy1JLPI00ANiY7fdsADRYpEAoj/do6ZpJg1S411xFgZIOHfjk9xMk5LY7AJ4IhelojKCrN2qLGi95NqCE29EbXN1eu/gs2vJzFYi9PvkVNmu7u7jVI7SBgMgxTGp0zFdEWNlscNTPXnO5sJ7MbIuelWh4ykK6ZYRtDiVg7fdpJXP43fNGvARmOJNUytd5AitrWFC8iT5H3c4PAtcfUhd/yLGo2m+svEr+3u7++3Q03dA7iFKTv0qKTZkn6VpvYLSvVXqyaj3Jql1jtIO+RWUGhFHsVwO1sJmRS3TSjV/329kyAWMIu5NUwNNttbsjiqJJebKSSp/QA1ZDXK9im3hqmBZjv7iyyONVs+t9/Q4d7f850EsVapqfchJflIszXdMqepseQgoxENobK4v0/INU2tpwJm27oCjvG33+dxu4aE/2qVGKW23wI1OAFApzhXELWIHCj8F1hDdkFq+/vNUwOVpLjZMLdfhBkr/DurxFqmBprtDDrGzzAbIpch/ClibVMDzQafmWZxyxL+FLOWqcEJALz7AiSAMJrAPd48n1kr1MAEAJotwyWZip9ekB9pYu1Tq6okvwDhP3oHMWufWsUEAGrIr45Qq2S2N5Dw/wMyE0ANVpK/CynJ7lfIaL87Q61XWElSCQAWfpiZEGpwAoC+EXKdZPYbFP4MZkKogWa7Bm+/8wq/MGp8SpJxalCEWXvUQJdcnwDAGwSw8Iujpu6lT3K2ziEludwFNIS5nf/zxX4KQqlBX6u+951RPULtf48IvgFGe/79QQr3drEbsNetve8ew1+G/3KaNtsH5uW0hpx+gb8MXwbtPMLwcNVs/yYem/m0arTDb+n3EP4IA/jgyd2X1GwRt8TDTl9SRoMePCn7CFs7jwvd/ZQ0279vk886fUpm68OH3XxcCHzI69XzhNkuVqzyOWm05x19yAt+NO84oSR/pF5mhf/wuK1H8+p5oPKEMdvHl6uvvnrIFI8ngNHulO/NkUutxsdgUQI4jHH0Ib30LyfkZST8aaNx9EEY5T0Gu+CjBj+8fPyQALDKq+Nv8avQs80cDy9r+OHlDGq4Z1H557K5HjnPA88j5/nPZU/GnE/Td6FRgINb12U0CsA9EHK7UWWgA+0dcHcfK6M3hR5SMziaJ3agKYcXtok0MuTHxh2beFr7iG+l4of9RrKiCYsMV5NB4Q1wemFLpnGWvKu8rSt64tsW2eEIqSztD3QkoDbi6hAmuNnUHDeQzexwo1fooCi2RVjUtShb3XGwcdQjAYQ2drNxmZVd2qs+t/wLbsfn4X6sOV0Uzaj3M9fbC2yi2MN9BLP7uiGPHIUayVOQ9ES2vsSlSI4/IngBtYGV39U0C8IalqKslddpCmNmFeshDENUm9nQaNKaDrJYSHijTVBzYC3qD7+mg6yDzcbXI1JMS+dYHte1bVPDTdtAXnApiYhG3D09mhCytu2vg6dmWAWb/4vHDLf0HxdoDT8Nx3rLnCrZOrSoVbVRoPejtsAuOap9fG0T0Lyo530hS0S+KysdnnYSQ42Yycti2oBzO5KcznOL57kUHqygerhlt6x03Cc1PHNXKtEUXYtmnsijaZd1chbPFyojebNlPBGqxunldcOJ54FapSaVOYuIm9XkbOUq0OKZ3SWZBZcknlGmdHBGWTDsKh4IVZYZ8kk/nG4W/G7D45w5MCNzfbnm5tlkCFi35gGG0yXJRECFa6CfRqZ+ix2VuopgYl48gXPBmZ5UcylF3JqfaF4UDp1ziJyR/4LP2ImpvvCJqeHMVDoButp0yeScW9FjDzV2uHT1qbs2yR9ByAlNBImR4JM6ZNvpwkzplanSdS0jOQlcTCJgBD8Ym1mfXmtzOr9dUtpPBInBvXXMymaBpIn6udvysNFEkPm110aq4zFe2ebobEbwgyHZTQiZmESgmjTIahD8LNiJ0eCtbOWQgjGCX2+QJTGbMomg+dorKfgNb0A0h00Eze5T6XTloMRvoVpA1Q69kqMGvVJfGoSY4Tmt6NZK7dWMm8yaFfwsqDPPYGqvBhKBTYOsKcHPgqYziaD2Qejq3GUFv+3iRzMZr1RqDTndb0vws2AnEkFth7E2E2SNC34WVJoIgnOvWhKBOmUFv9UgS0LTaSJAIVd9ITpTVRneTOiJhTZXmJCrmAhm9KxKlpYigiwB1WYTgcs3/DeE7ZEgCwRfNLEAmuNTL7J83kRA6gApuEPUlcP4IBEQjDhOqoN7DMzlmbRTVRWDNh3J+BYBuvTlvVJjpFZa6B0i1gtqrwlz2RflvHKqUF/kO8RvFiq5lRf6VPFg0eNMJnX3ViVKBNQri94rthkNkpZdCrIkNCYRSEVCTmMy2cDtwE2FHMx8xisXa2ovFVWh1BdbPgEsD1V3Y69ck8I1Zk9WKjjFQZ0blBza74BqGZwHk9pDlt3uBlkS4b1ictfRcFf3XLbpj6w4xoLiY35DiAVwggNLQm5gWcrCn3gBJkvXsCRyx1bi+QqBYJiBQkik/JJZRN9tCP6UJb87d8mLQp0rY5YcpUMNNpa4q2nBQHVG8N1KieEX0woMNq5j8yoMwR3VMfVAYj4ZGUzcDda6YHsLQx6PcZAFf4zHY0nxbzwvDM0xPd9VDMMyRspiMtVvsB/e4ha3uMUtbiEG/wcX+NqWQqn41AAAAABJRU5ErkJggg==;" parent="WIyWlLk6GJQsqaUBKTNV-1" vertex="1">
          <mxGeometry x="337.11" y="310" width="65.78" height="70" as="geometry" />
        </mxCell>
        <mxCell id="fya4og5elzQJn8ioy4DR-10" value="2. Auth Request" style="text;html=1;strokeColor=none;fillColor=none;align=center;verticalAlign=middle;whiteSpace=wrap;rounded=0;rotation=-90;" parent="WIyWlLk6GJQsqaUBKTNV-1" vertex="1">
          <mxGeometry x="147" y="240" width="100" height="30" as="geometry" />
        </mxCell>
        <mxCell id="fya4og5elzQJn8ioy4DR-13" value="3. List of Identity Provider" style="text;html=1;strokeColor=none;fillColor=none;align=center;verticalAlign=middle;whiteSpace=wrap;rounded=0;" parent="WIyWlLk6GJQsqaUBKTNV-1" vertex="1">
          <mxGeometry x="107" y="340" width="157.5" height="30" as="geometry" />
        </mxCell>
        <mxCell id="fya4og5elzQJn8ioy4DR-15" value="4. Select Identity Provider" style="text;html=1;strokeColor=none;fillColor=none;align=center;verticalAlign=middle;whiteSpace=wrap;rounded=0;" parent="WIyWlLk6GJQsqaUBKTNV-1" vertex="1">
          <mxGeometry x="107" y="400" width="140" height="30" as="geometry" />
        </mxCell>
        <mxCell id="fya4og5elzQJn8ioy4DR-21" style="edgeStyle=orthogonalEdgeStyle;rounded=0;orthogonalLoop=1;jettySize=auto;html=1;entryX=0.5;entryY=0;entryDx=0;entryDy=0;entryPerimeter=0;" parent="WIyWlLk6GJQsqaUBKTNV-1" source="PRaEHVmMno1cnMzCAUFc-0" target="fya4og5elzQJn8ioy4DR-1" edge="1">
          <mxGeometry relative="1" as="geometry">
            <mxPoint x="500" y="501" as="targetPoint" />
            <Array as="points">
              <mxPoint x="630" y="70" />
              <mxPoint x="73" y="70" />
            </Array>
          </mxGeometry>
        </mxCell>
        <mxCell id="fya4og5elzQJn8ioy4DR-24" style="edgeStyle=orthogonalEdgeStyle;rounded=0;orthogonalLoop=1;jettySize=auto;html=1;" parent="WIyWlLk6GJQsqaUBKTNV-1" edge="1">
          <mxGeometry relative="1" as="geometry">
            <mxPoint x="410" y="350" as="targetPoint" />
            <Array as="points">
              <mxPoint x="590" y="210" />
              <mxPoint x="590" y="350" />
            </Array>
            <mxPoint x="580" y="210" as="sourcePoint" />
          </mxGeometry>
        </mxCell>
        <mxCell id="fya4og5elzQJn8ioy4DR-19" value="5. Authentication Server" style="text;html=1;strokeColor=none;fillColor=none;align=center;verticalAlign=middle;whiteSpace=wrap;rounded=0;" parent="WIyWlLk6GJQsqaUBKTNV-1" vertex="1">
          <mxGeometry x="440" y="410" width="140" height="30" as="geometry" />
        </mxCell>
        <mxCell id="fya4og5elzQJn8ioy4DR-23" value="6. Request for credentials" style="text;html=1;strokeColor=none;fillColor=none;align=center;verticalAlign=middle;whiteSpace=wrap;rounded=0;" parent="WIyWlLk6GJQsqaUBKTNV-1" vertex="1">
          <mxGeometry x="253" y="44" width="243" height="30" as="geometry" />
        </mxCell>
        <mxCell id="fya4og5elzQJn8ioy4DR-25" value="7. Authentication Response" style="text;html=1;strokeColor=none;fillColor=none;align=center;verticalAlign=middle;whiteSpace=wrap;rounded=0;" parent="WIyWlLk6GJQsqaUBKTNV-1" vertex="1">
          <mxGeometry x="410" y="320" width="150" height="30" as="geometry" />
        </mxCell>
        <mxCell id="fya4og5elzQJn8ioy4DR-28" value="&lt;span style=&quot;color: rgb(0, 0, 0); font-family: Helvetica; font-size: 12px; font-style: normal; font-variant-ligatures: normal; font-variant-caps: normal; font-weight: 400; letter-spacing: normal; orphans: 2; text-align: center; text-indent: 0px; text-transform: none; widows: 2; word-spacing: 0px; -webkit-text-stroke-width: 0px; background-color: rgb(248, 249, 250); text-decoration-thickness: initial; text-decoration-style: initial; text-decoration-color: initial; float: none; display: inline !important;&quot;&gt;8. Authentication Response&lt;/span&gt;" style="text;whiteSpace=wrap;html=1;" parent="WIyWlLk6GJQsqaUBKTNV-1" vertex="1">
          <mxGeometry x="370" y="250" width="180" height="40" as="geometry" />
        </mxCell>
        <mxCell id="PRaEHVmMno1cnMzCAUFc-1" value="&lt;span&gt;Identity Provider&lt;/span&gt;" style="text;html=1;align=center;verticalAlign=middle;resizable=0;points=[];autosize=1;strokeColor=none;fillColor=none;" vertex="1" parent="WIyWlLk6GJQsqaUBKTNV-1">
          <mxGeometry x="630" y="217" width="100" height="20" as="geometry" />
        </mxCell>
      </root>
    </mxGraphModel>
  </diagram>
</mxfile>
